SplineFontDB: 3.0
FontName: Shabnam-Bold
FullName: Shabnam Bold
FamilyName: Shabnam
Weight: Bold
Copyright: Copyright (c) 2003 by Bitstream, Inc. All Rights Reserved.\nDejaVu changes are in public domain\nCopyright (c) 2015 by Saber Rastikerdar. All Rights Reserved.\nNon-Arabic(Latin) glyphs and data are imported from Roboto font under the Apache License, Version 2.0.
Version: 3.0.0
ItalicAngle: 0
UnderlinePosition: -500
UnderlineWidth: 100
Ascent: 1638
Descent: 410
InvalidEm: 0
LayerCount: 2
Layer: 0 1 "Back" 1
Layer: 1 1 "Fore" 0
XUID: [1021 502 1027637223 208439]
UniqueID: 4000635
UseUniqueID: 1
FSType: 0
OS2Version: 1
OS2_WeightWidthSlopeOnly: 0
OS2_UseTypoMetrics: 1
CreationTime: 1431850356
ModificationTime: 1519753048
PfmFamily: 33
TTFWeight: 700
TTFWidth: 5
LineGap: 0
VLineGap: 0
Panose: 2 11 6 3 3 8 4 2 2 4
OS2TypoAscent: 1900
OS2TypoAOffset: 0
OS2TypoDescent: -900
OS2TypoDOffset: 0
OS2TypoLinegap: 0
OS2WinAscent: 1900
OS2WinAOffset: 0
OS2WinDescent: 900
OS2WinDOffset: 0
HheadAscent: 1900
HheadAOffset: 0
HheadDescent: -900
HheadDOffset: 0
OS2SubXSize: 1331
OS2SubYSize: 1433
OS2SubXOff: 0
OS2SubYOff: 286
OS2SupXSize: 1331
OS2SupYSize: 1433
OS2SupXOff: 0
OS2SupYOff: 983
OS2StrikeYSize: 102
OS2StrikeYPos: 530
OS2Vendor: '    '
OS2CodePages: 00000041.20080000
OS2UnicodeRanges: 80002003.80000000.00000008.00000000
Lookup: 1 9 0 "'fina' Terminal Forms in Arabic lookup 9" { "'fina' Terminal Forms in Arabic lookup 9 subtable"  } ['fina' ('arab' <'KUR ' 'SND ' 'URD ' 'dflt' > ) ]
Lookup: 1 9 0 "'medi' Medial Forms in Arabic lookup 11" { "'medi' Medial Forms in Arabic lookup 11 subtable"  } ['medi' ('arab' <'KUR ' 'SND ' 'URD ' 'dflt' > ) ]
Lookup: 1 9 0 "'init' Initial Forms in Arabic lookup 13" { "'init' Initial Forms in Arabic lookup 13 subtable"  } ['init' ('arab' <'KUR ' 'SND ' 'URD ' 'dflt' > ) ]
Lookup: 4 1 1 "'rlig' Required Ligatures in Arabic lookup 14" { "'rlig' Required Ligatures in Arabic lookup 14 subtable"  } ['rlig' ('arab' <'KUR ' 'dflt' > ) ]

StartChar: exclam
Encoding: 33 33 1
Width: 568
VWidth: 2429
GlyphClass: 2
Flags: W
LayerCount: 2
Fore
SplineSet
112.919921875 170.381835938 m 128,-1,1
 112.919921875 240.122070312 112.919921875 240.122070312 162.049804688 289.251953125 c 128,-1,2
 211.033738557 338.23783839 211.033738557 338.23783839 281.416992188 338.883789062 c 0,3,4
 352.801757812 338.240234375 352.801757812 338.240234375 401.790039062 289.251953125 c 128,-1,5
 450.919921875 240.122070312 450.919921875 240.122070312 450.919921875 170.381835938 c 128,-1,6
 450.919921875 100.641601562 450.919921875 100.641601562 401.797851562 51.51953125 c 0,7,8
 352.086082702 2.93801897399 352.086082702 2.93801897399 282.416992188 1.8798828125 c 4,9,10
 211.038085938 2.5234375 211.038085938 2.5234375 162.049804688 51.51171875 c 128,-1,0
 112.919921875 100.641601562 112.919921875 100.641601562 112.919921875 170.381835938 c 128,-1,1
176.516601562 1351.35449219 m 1,11,-1
 379.28515625 1351.35449219 l 1,12,-1
 418.1875 1351.35449219 l 1,13,-1
 417.275390625 1312.46972656 l 1,14,-1
 395.620117188 509.717773438 l 1,15,-1
 394.749023438 472.609375 l 1,16,-1
 357.629882812 472.609375 l 1,17,-1
 199.25390625 472.609375 l 1,18,-1
 162.178710938 472.609375 l 1,19,-1
 161.264648438 509.680664062 l 1,20,-1
 138.52734375 1312.41796875 l 1,21,-1
 137.568359375 1351.35449219 l 1,22,-1
 176.516601562 1351.35449219 l 1,11,-1
EndSplineSet
EndChar

StartChar: period
Encoding: 46 46 2
Width: 572
VWidth: 2429
GlyphClass: 2
Flags: W
LayerCount: 2
Fore
SplineSet
118.255859375 167.43359375 m 132,-1,1
 118.255859375 237.173828125 118.255859375 237.173828125 167.385742188 286.303710938 c 128,-1,2
 216.37109375 335.290039062 216.37109375 335.290039062 286.752929688 335.935546875 c 0,3,4
 358.137695312 335.291992188 358.137695312 335.291992188 407.125976562 286.303710938 c 128,-1,5
 456.255859375 237.173828125 456.255859375 237.173828125 456.255859375 167.43359375 c 128,-1,6
 456.255859375 97.693359375 456.255859375 97.693359375 407.133789062 48.5712890625 c 0,7,8
 357.422851562 -0.009765625 357.422851562 -0.009765625 287.752929688 -1.068359375 c 0,9,10
 216.374023438 -0.4248046875 216.374023438 -0.4248046875 167.385742188 48.5634765625 c 128,-1,0
 118.255859375 97.693359375 118.255859375 97.693359375 118.255859375 167.43359375 c 132,-1,1
EndSplineSet
EndChar

StartChar: colon
Encoding: 58 58 3
Width: 579
VWidth: 2429
GlyphClass: 2
Flags: W
LayerCount: 2
Fore
SplineSet
120.203125 872.43359375 m 128,-1,1
 120.203125 942.173828125 120.203125 942.173828125 169.333007812 991.303710938 c 128,-1,2
 218.318359375 1040.29003906 218.318359375 1040.29003906 288.700195312 1040.93554688 c 0,3,4
 360.084074055 1040.29287907 360.084074055 1040.29287907 409.073242188 991.303710938 c 128,-1,5
 458.203125 942.173828125 458.203125 942.173828125 458.203125 872.43359375 c 128,-1,6
 458.203125 802.693359375 458.203125 802.693359375 409.073242188 753.563476562 c 128,-1,7
 360.087890625 704.577148438 360.087890625 704.577148438 289.706054688 703.931640625 c 0,8,9
 218.334018384 704.572373191 218.334018384 704.572373191 169.333007812 753.563476562 c 128,-1,0
 120.203125 802.693359375 120.203125 802.693359375 120.203125 872.43359375 c 128,-1,1
120.203125 167.43359375 m 128,-1,11
 120.203125 237.173828125 120.203125 237.173828125 169.333007812 286.303710938 c 128,-1,12
 218.316941682 335.289596203 218.316941682 335.289596203 288.700195312 335.935546875 c 0,13,14
 360.084960938 335.291992188 360.084960938 335.291992188 409.073242188 286.303710938 c 128,-1,15
 458.203125 237.173828125 458.203125 237.173828125 458.203125 167.43359375 c 128,-1,16
 458.203125 97.693359375 458.203125 97.693359375 409.081054688 48.5712890625 c 0,17,18
 358.619140625 0.3759765625 358.619140625 0.3759765625 289.700195312 -1.068359375 c 0,19,20
 218.321289062 -0.4248046875 218.321289062 -0.4248046875 169.333007812 48.5634765625 c 128,-1,10
 120.203125 97.693359375 120.203125 97.693359375 120.203125 167.43359375 c 128,-1,11
EndSplineSet
EndChar

StartChar: afii57388
Encoding: 1548 1548 5
Width: 627
VWidth: 2436
GlyphClass: 2
Flags: W
LayerCount: 2
Fore
SplineSet
322.661132812 -1.06640625 m 0,0,1
 307.420898438 -1.05859375 307.420898438 -1.05859375 293.208007812 0.521484375 c 128,-1,2
 278.995117188 2.1005859375 278.995117188 2.1005859375 265.819335938 5.2490234375 c 128,-1,3
 252.642578125 8.396484375 252.642578125 8.396484375 240.481445312 13.1142578125 c 128,-1,4
 228.321289062 17.83203125 228.321289062 17.83203125 217.186523438 24.1103515625 c 128,-1,5
 206.052734375 30.388671875 206.052734375 30.388671875 195.921875 38.236328125 c 0,6,7
 145.267578125 77.474609375 145.267578125 77.474609375 129.50390625 149.6796875 c 0,8,9
 115.040039062 215.206054688 115.040039062 215.206054688 139.952148438 322.645507812 c 0,10,11
 183.470703125 513.498046875 183.470703125 513.498046875 384.33203125 707.055664062 c 2,12,-1
 407.344726562 729.231445312 l 1,13,-1
 433.13671875 710.362304688 l 1,14,-1
 497.930664062 662.9609375 l 1,15,-1
 532.877929688 637.39453125 l 1,16,-1
 502.990234375 606.063476562 l 2,17,18
 437.622070312 537.538085938 437.622070312 537.538085938 398.600585938 472.973632812 c 128,-1,19
 359.522460938 408.317382812 359.522460938 408.317382812 346.397460938 349.65234375 c 2,20,-1
 345.921875 347.525390625 l 1,21,-1
 348.08203125 347.233398438 l 2,22,23
 420.184570312 337.512695312 420.184570312 337.512695312 459.841796875 290.080078125 c 0,24,25
 479.680664062 266.3515625 479.680664062 266.3515625 489.748046875 235.807617188 c 128,-1,26
 499.815429688 205.263671875 499.815429688 205.263671875 500.096679688 167.806640625 c 0,27,28
 500.235351562 147.852539062 500.235351562 147.852539062 497.143554688 129.768554688 c 0,29,30
 495.599609375 120.734375 495.599609375 120.734375 493.31640625 112.34375 c 128,-1,31
 491.033203125 103.953125 491.033203125 103.953125 488.012695312 96.2041015625 c 128,-1,32
 484.9921875 88.455078125 484.9921875 88.455078125 481.249023438 81.2421875 c 128,-1,33
 477.505859375 74.029296875 477.505859375 74.029296875 473.037109375 67.34765625 c 0,34,35
 464.106445312 53.994140625 464.106445312 53.994140625 452.62109375 43.28125 c 128,-1,36
 441.126953125 32.55859375 441.126953125 32.55859375 427.033203125 24.2353515625 c 128,-1,37
 412.92578125 15.9052734375 412.92578125 15.9052734375 396.646484375 10.3251953125 c 128,-1,38
 380.33984375 4.736328125 380.33984375 4.736328125 361.724609375 1.841796875 c 128,-1,39
 343.025390625 -1.06640625 343.025390625 -1.06640625 322.661132812 -1.06640625 c 0,0,1
EndSplineSet
EndChar

StartChar: uni0615
Encoding: 1557 1557 6
Width: 11
VWidth: 2551
GlyphClass: 4
Flags: W
AnchorPoint: "Anchor-10" 648 1488.29 mark 0
AnchorPoint: "Anchor-9" 648 1488.29 mark 0
AnchorPoint: "Anchor-1" 648 2304.6 basemark 0
AnchorPoint: "Anchor-1" 648 1488.29 mark 0
LayerCount: 2
Fore
SplineSet
790.362304688 1859.40234375 m 0,0,1
 773.21875 1860.70507812 773.21875 1860.70507812 751.10546875 1852.60546875 c 128,-1,2
 728.9921875 1844.50488281 728.9921875 1844.50488281 701.7109375 1827.07714844 c 0,3,4
 647.442382812 1792.40917969 647.442382812 1792.40917969 575.66796875 1720.35449219 c 2,5,-1
 553.008789062 1697.60644531 l 1,6,-1
 549.611328125 1694.1953125 l 1,7,-1
 554.42578125 1694.1953125 l 1,8,-1
 653.03125 1694.1953125 l 2,9,10
 835.516601562 1694.0078125 835.516601562 1694.0078125 841.01953125 1776.55664062 c 0,11,12
 841.983398438 1790.22753906 841.983398438 1790.22753906 841.197265625 1801.58789062 c 128,-1,13
 840.411132812 1812.94824219 840.411132812 1812.94824219 837.856445312 1821.90136719 c 128,-1,14
 835.287109375 1830.90625 835.287109375 1830.90625 831.055664062 1837.68652344 c 128,-1,15
 826.82421875 1844.46679688 826.82421875 1844.46679688 820.916015625 1848.94726562 c 128,-1,16
 815.040039062 1853.40136719 815.040039062 1853.40136719 807.390625 1856.0078125 c 128,-1,17
 799.741210938 1858.61425781 799.741210938 1858.61425781 790.362304688 1859.40234375 c 0,0,1
938.100585938 1835.5625 m 0,18,19
 939.411132812 1821.49707031 939.411132812 1821.49707031 939.418945312 1808.28027344 c 0,20,21
 939.549804688 1602.640625 939.549804688 1602.640625 631.908203125 1602.640625 c 2,22,-1
 347.12109375 1602.640625 l 1,23,-1
 339.12109375 1602.640625 l 1,24,-1
 339.12109375 1610.640625 l 1,25,-1
 339.12109375 1686.1953125 l 1,26,-1
 339.12109375 1694.1953125 l 1,27,-1
 347.12109375 1694.1953125 l 1,28,-1
 438.844726562 1694.1953125 l 1,29,-1
 440.844726562 1694.1953125 l 1,30,-1
 440.844726562 1696.1953125 l 1,31,-1
 440.844726562 2187.28320312 l 1,32,-1
 440.844726562 2195.28320312 l 1,33,-1
 448.844726562 2195.28320312 l 1,34,-1
 525.655273438 2195.28320312 l 1,35,-1
 533.6484375 2195.28320312 l 1,36,-1
 533.655273438 2187.29003906 l 1,37,-1
 533.978515625 1806.6953125 l 1,38,-1
 533.983398438 1801.7578125 l 1,39,-1
 537.416015625 1805.30664062 l 1,40,-1
 554.538085938 1823.00488281 l 2,41,42
 598.619140625 1868.73339844 598.619140625 1868.73339844 638.903320312 1899.29394531 c 128,-1,43
 679.1875 1929.85449219 679.1875 1929.85449219 715.399414062 1945.15625 c 128,-1,44
 751.611328125 1960.45800781 751.611328125 1960.45800781 783.922851562 1960.69824219 c 0,45,46
 818.8984375 1961.03515625 818.8984375 1961.03515625 846.161132812 1953.26074219 c 128,-1,47
 873.424804688 1945.48632812 873.424804688 1945.48632812 893.046875 1929.66015625 c 0,48,49
 906.106445312 1919.12597656 906.106445312 1919.12597656 915.45703125 1905.20703125 c 128,-1,50
 924.806640625 1891.28710938 924.806640625 1891.28710938 930.477539062 1873.87109375 c 128,-1,51
 936.1484375 1856.45507812 936.1484375 1856.45507812 938.100585938 1835.5625 c 0,18,19
EndSplineSet
EndChar

StartChar: uni061B
Encoding: 1563 1563 7
Width: 627
VWidth: 2436
GlyphClass: 2
Flags: W
LayerCount: 2
Fore
SplineSet
322.743164062 442.862304688 m 0,0,1
 284.6796875 442.862304688 284.6796875 442.862304688 253.015625 452.696289062 c 128,-1,2
 221.3515625 462.530273438 221.3515625 462.530273438 196.00390625 482.165039062 c 128,-1,3
 170.682617188 501.779296875 170.682617188 501.779296875 154.081054688 529.6171875 c 128,-1,4
 137.478515625 557.455078125 137.478515625 557.455078125 129.590820312 593.586914062 c 0,5,6
 122.1796875 630.643554688 122.1796875 630.643554688 124.9296875 671.936523438 c 128,-1,7
 127.688476562 713.333007812 127.688476562 713.333007812 140.034179688 766.57421875 c 0,8,9
 183.552734375 957.426757812 183.552734375 957.426757812 384.4140625 1150.984375 c 2,10,-1
 407.426757812 1173.16015625 l 1,11,-1
 433.21875 1154.29101562 l 1,12,-1
 498.012695312 1106.88964844 l 1,13,-1
 532.959960938 1081.32324219 l 1,14,-1
 503.072265625 1049.9921875 l 2,15,16
 373.446289062 914.10546875 373.446289062 914.10546875 346.479492188 793.581054688 c 2,17,-1
 346.00390625 791.454101562 l 1,18,-1
 348.1640625 791.162109375 l 2,19,20
 420.266601562 781.44140625 420.266601562 781.44140625 459.923828125 734.008789062 c 0,21,22
 473.146484375 718.193359375 473.146484375 718.193359375 482.0234375 699.369140625 c 128,-1,23
 490.901367188 680.544921875 490.901367188 680.544921875 495.446289062 658.630859375 c 128,-1,24
 499.991210938 636.716796875 499.991210938 636.716796875 500.178710938 611.735351562 c 0,25,26
 500.728515625 532.192382812 500.728515625 532.192382812 453.077148438 487.576171875 c 0,27,28
 429.227539062 465.245117188 429.227539062 465.245117188 396.671875 454.053710938 c 128,-1,29
 364.1171875 442.862304688 364.1171875 442.862304688 322.743164062 442.862304688 c 0,0,1
146.907226562 167.43359375 m 128,-1,31
 146.907226562 237.173828125 146.907226562 237.173828125 196.037109375 286.303710938 c 128,-1,32
 245.02208224 335.288683803 245.02208224 335.288683803 315.404296875 335.935546875 c 4,33,34
 386.7890625 335.291992188 386.7890625 335.291992188 435.77734375 286.303710938 c 128,-1,35
 484.907226562 237.173828125 484.907226562 237.173828125 484.907226562 167.43359375 c 128,-1,36
 484.907226562 97.693359375 484.907226562 97.693359375 435.78515625 48.5712890625 c 0,37,38
 386.07421875 -0.009765625 386.07421875 -0.009765625 316.404296875 -1.068359375 c 0,39,40
 245.024920867 -0.424334929818 245.024920867 -0.424334929818 196.037109375 48.5634765625 c 128,-1,30
 146.907226562 97.693359375 146.907226562 97.693359375 146.907226562 167.43359375 c 128,-1,31
EndSplineSet
EndChar

StartChar: uni061F
Encoding: 1567 1567 8
Width: 951
VWidth: 2436
GlyphClass: 2
Flags: W
LayerCount: 2
Fore
SplineSet
384.284179688 167.43359375 m 128,-1,1
 384.284179688 237.173828125 384.284179688 237.173828125 433.4140625 286.303710938 c 128,-1,2
 482.391601562 335.282226562 482.391601562 335.282226562 553.283203125 335.283203125 c 128,-1,3
 624.173828125 335.284179688 624.173828125 335.284179688 673.154296875 286.303710938 c 128,-1,4
 722.284179688 237.173828125 722.284179688 237.173828125 722.284179688 167.43359375 c 0,5,6
 722.284179688 70.4716796875 722.284179688 70.4716796875 638.240234375 21.548828125 c 0,7,8
 525.848193179 -43.8706541166 525.848193179 -43.8706541166 433.4140625 48.5634765625 c 0,9,0
 384.284179688 97.693359375 384.284179688 97.693359375 384.284179688 167.43359375 c 128,-1,1
417.52734375 489.2734375 m 2,10,11
 417.019994608 522.987683283 417.019994608 522.987683283 299.08203125 595.637695312 c 0,12,13
 49 750 49 750 52.5043945312 937.090332031 c 128,-1,14
 56 1124 56 1124 182.939453125 1235.20410156 c 0,15,16
 310 1346 310 1346 473.073242188 1346.35253906 c 0,17,18
 791 1347 791 1347 897.255859375 992.533203125 c 1,19,-1
 692.775390625 894 l 1,20,21
 625 1078 625 1078 481.245117188 1076.69921875 c 0,22,23
 385 1076 385 1076 342.943359375 1001.05957031 c 0,24,25
 324.292392729 967.558494174 324.292392729 967.558494174 324.864250444 935 c 4,26,27
 326.222300511 857.679953376 326.222300511 857.679953376 435.991210938 785.67578125 c 0,28,29
 688.948972224 619.033615806 688.948972224 619.033615806 694.525390625 490.92578125 c 2,30,-1
 695.797851562 461.693359375 l 1,31,-1
 417.942382812 461.693359375 l 1,32,-1
 417.52734375 489.2734375 l 2,10,11
EndSplineSet
EndChar

StartChar: uni0621
Encoding: 1569 1569 9
Width: 807
VWidth: 2591
GlyphClass: 2
Flags: W
AnchorPoint: "Anchor-7" 470.143 -28.166 basechar 0
AnchorPoint: "Anchor-10" 322.188 1129.55 basechar 0
LayerCount: 2
Fore
SplineSet
444.807617188 670.45703125 m 0,0,1
 370.414849979 670.077360668 370.414849979 670.077360668 327.030273438 630.314453125 c 0,2,3
 295.069696948 599.40233102 295.069696948 599.40233102 295.30078125 544.04296875 c 0,4,5
 295.152425129 478.358296349 295.152425129 478.358296349 345.286132812 442.721679688 c 0,6,7
 398.988393516 404.54842327 398.988393516 404.54842327 475.66796875 398.86328125 c 0,8,9
 486.389648438 398.069335938 486.389648438 398.069335938 497.694335938 398.09765625 c 0,10,11
 562.682617188 398.01171875 562.682617188 398.01171875 650.68359375 444.055664062 c 2,12,-1
 691.595703125 465.4609375 l 1,13,-1
 704.731445312 421.1953125 l 1,14,-1
 751.731445312 262.809570312 l 1,15,-1
 761.735351562 229.09375 l 1,16,-1
 728.892578125 216.514648438 l 1,17,-1
 180.590820312 6.5146484375 l 1,18,-1
 146.369140625 -6.59375 l 1,19,-1
 132.030273438 27.130859375 l 1,20,-1
 71.00390625 170.65625 l 1,21,-1
 55.166015625 207.904296875 l 1,22,-1
 93.337890625 221.36328125 l 1,23,-1
 206.139648438 261.135742188 l 1,24,-1
 210.25 262.583984375 l 1,25,-1
 206.470703125 264.755859375 l 2,26,27
 53.0986328125 352.883789062 53.0986328125 352.883789062 53.69921875 553.791992188 c 0,28,29
 54.0361328125 749.220703125 54.0361328125 749.220703125 211.24609375 846.27734375 c 0,30,31
 304.982499464 904.931425296 304.982499464 904.931425296 436.137695312 905.607421875 c 4,32,33
 534.605044135 906.035192057 534.605044135 906.035192057 635.30078125 857.565429688 c 1,34,-1
 635.30078125 833.682617188 l 1,35,-1
 635.30078125 682 l 1,36,-1
 635.30078125 628.677734375 l 1,37,-1
 584.8984375 646.081054688 l 2,38,39
 515.515752904 670.038444071 515.515752904 670.038444071 444.807617188 670.45703125 c 0,0,1
EndSplineSet
EndChar

StartChar: uni0627
Encoding: 1575 1575 15
Width: 469
VWidth: 2591
GlyphClass: 2
Flags: W
AnchorPoint: "Anchor-10" 235.338 1443.41 basechar 0
AnchorPoint: "Anchor-7" 239.805 -216.859 basechar 0
LayerCount: 2
Fore
SplineSet
160.299804688 1353.72753906 m 5,0,-1
 326.393554688 1353.72753906 l 5,1,-1
 366.393554688 1353.72753906 l 5,2,-1
 366.393554688 1313.72753906 l 5,3,-1
 366.393554688 40.6943359375 l 1,4,-1
 366.393554688 0.6943359375 l 1,5,-1
 326.393554688 0.6943359375 l 1,6,-1
 160.299804688 0.6943359375 l 1,7,-1
 120.299804688 0.6943359375 l 1,8,-1
 120.299804688 40.6943359375 l 1,9,-1
 120.299804688 1313.72753906 l 5,10,-1
 120.299804688 1353.72753906 l 5,11,-1
 160.299804688 1353.72753906 l 5,0,-1
EndSplineSet
Substitution2: "'fina' Terminal Forms in Arabic lookup 9 subtable" uniFE8E
EndChar

StartChar: uni062D
Encoding: 1581 1581 21
Width: 1319
VWidth: 2591
GlyphClass: 2
Flags: W
AnchorPoint: "Anchor-7" 471.334 -795.653 basechar 0
AnchorPoint: "Anchor-10" 552.649 1229.29 basechar 0
LayerCount: 2
Fore
SplineSet
1218.40625 341.287109375 m 2,0,1
 838.107434501 291.397248523 838.107434501 291.397248523 657.174811 221.24891723 c 0,2,3
 314.246516657 88.2941900182 314.246516657 88.2941900182 313.6875 -139.9140625 c 0,4,5
 312.9453125 -289.059570312 312.9453125 -289.059570312 430.350585938 -364.1953125 c 128,-1,6
 547.755859375 -439.330078125 547.755859375 -439.330078125 804.452148438 -439.172851562 c 2,7,-1
 1256.33007812 -438.895507812 l 1,8,-1
 1256.33007812 -695.5546875 l 1,9,-1
 792.391601562 -694.58203125 l 2,10,11
 386.927572196 -693.97603814 386.927572196 -693.97603814 222.841227504 -536.364972195 c 128,-1,12
 58.7548828125 -378.75390625 58.7548828125 -378.75390625 61.90625 -130.532226562 c 128,-1,13
 65.0576171875 117.689453125 65.0576171875 117.689453125 256.356445312 285.349609375 c 128,-1,14
 447.654296875 453.009765625 447.654296875 453.009765625 813.876953125 524.62109375 c 1,15,-1
 786.708007812 540.283203125 l 2,16,17
 540.837225513 680.940662802 540.837225513 680.940662802 341.344726562 522.440429688 c 2,18,-1
 240.211914062 442.088867188 l 1,19,-1
 72.734375 630.235351562 l 1,20,-1
 165.204101562 708.239257812 l 2,21,22
 500.611694186 991.659408539 500.611694186 991.659408539 865.68359375 781.115234375 c 2,23,-1
 1054.61816406 672.153320312 l 2,24,25
 1151.41222564 616.835368783 1151.41222564 616.835368783 1222.91015625 601.70703125 c 2,26,-1
 1254.88 594.940429688 l 1,27,-1
 1254.88 345.81640625 l 1,28,-1
 1218.40625 341.287109375 l 2,0,1
EndSplineSet
Substitution2: "'fina' Terminal Forms in Arabic lookup 9 subtable" uniFEA2
Substitution2: "'medi' Medial Forms in Arabic lookup 11 subtable" uniFEA4
Substitution2: "'init' Initial Forms in Arabic lookup 13 subtable" uniFEA3
EndChar

StartChar: uni062F
Encoding: 1583 1583 23
Width: 1011
VWidth: 2591
GlyphClass: 2
Flags: W
AnchorPoint: "Anchor-10" 403.659 1338.16 basechar 0
AnchorPoint: "Anchor-7" 428.382 -204.53 basechar 0
LayerCount: 2
Fore
SplineSet
467.978515625 0 m 2,0,-1
 101.899414062 0 l 1,1,-1
 63.8994140625 0 l 1,2,-1
 63.8994140625 38 l 1,3,-1
 63.8994140625 222 l 1,4,-1
 63.8994140625 260 l 1,5,-1
 101.899414062 260 l 1,6,-1
 468.911132812 260 l 2,7,8
 493.732421875 260 493.732421875 260 516.018554688 261.1171875 c 0,9,10
 568.614257812 263.752929688 568.614257812 263.752929688 604.946289062 271.600585938 c 0,11,12
 641.484375 279.494140625 641.484375 279.494140625 659.720703125 291.5078125 c 0,13,14
 664.276367188 294.508789062 664.276367188 294.508789062 668.138671875 297.546875 c 128,-1,15
 672.000976562 300.5859375 672.000976562 300.5859375 675.205078125 303.694335938 c 128,-1,16
 678.409179688 306.802734375 678.409179688 306.802734375 680.930664062 309.982421875 c 128,-1,17
 683.453125 313.163085938 683.453125 313.163085938 685.282226562 316.405273438 c 0,18,19
 692.563476562 329.311523438 692.563476562 329.311523438 691.772460938 345.067382812 c 0,20,21
 690.243164062 374.626953125 690.243164062 374.626953125 667.120117188 415.041015625 c 128,-1,22
 643.99609375 455.455078125 643.99609375 455.455078125 599.267578125 507.130859375 c 2,23,-1
 324.448242188 824.634765625 l 1,24,-1
 302.571289062 849.91015625 l 1,25,-1
 324.8515625 874.831054688 l 1,26,-1
 448.3671875 1012.98535156 l 1,27,-1
 477.270507812 1045.31445312 l 1,28,-1
 505.5234375 1012.41699219 l 1,29,-1
 805.825195312 662.760742188 l 2,30,31
 949.068359375 496 949.068359375 496 948.288085938 334.834960938 c 0,32,33
 947.921875 250.524414062 947.921875 250.524414062 915.1640625 186.752929688 c 0,34,35
 904.25 165.50390625 904.25 165.50390625 890.075195312 146.802734375 c 128,-1,36
 875.901367188 128.100585938 875.901367188 128.100585938 858.452148438 111.928710938 c 128,-1,37
 841.002929688 95.7578125 841.002929688 95.7578125 820.271484375 82.11328125 c 0,38,39
 757.973632812 41.111328125 757.973632812 41.111328125 669.751953125 20.5703125 c 128,-1,40
 581.40625 0 581.40625 0 467.978515625 0 c 2,0,-1
EndSplineSet
Substitution2: "'fina' Terminal Forms in Arabic lookup 9 subtable" uniFEAA
EndChar

StartChar: uni0631
Encoding: 1585 1585 25
Width: 755
VWidth: 2591
GlyphClass: 2
Flags: W
AnchorPoint: "Anchor-7" 297.433 -629.366 basechar 0
AnchorPoint: "Anchor-10" 450.527 993.269 basechar 0
LayerCount: 2
Fore
SplineSet
94.2373046875 -194.440429688 m 2,0,1
 275.107421875 -194.616210938 275.107421875 -194.616210938 358.70703125 -118.190429688 c 0,2,3
 400.587890625 -79.90234375 400.587890625 -79.90234375 421.485351562 -20.1875 c 128,-1,4
 442.3828125 39.52734375 442.3828125 39.52734375 442.3828125 120.53125 c 2,5,-1
 442.383789062 646.626953125 l 1,6,-1
 442.383789062 684.401367188 l 1,7,-1
 480.157226562 684.625976562 l 1,8,-1
 657.954101562 685.68359375 l 1,9,-1
 696.180664062 685.911132812 l 1,10,-1
 696.180664062 647.684570312 l 1,11,-1
 696.180664062 118.013671875 l 2,12,13
 696.1328125 -20.6572265625 696.1328125 -20.6572265625 657.249023438 -127.01953125 c 128,-1,14
 618.405273438 -233.26953125 618.405273438 -233.26953125 542.758789062 -304.676757812 c 128,-1,15
 467.092773438 -376.103515625 467.092773438 -376.103515625 355.063476562 -413.16015625 c 128,-1,16
 242.911132812 -450.2578125 242.911132812 -450.2578125 96.7353515625 -451.411132812 c 2,17,-1
 22.2490234375 -451.999023438 l 1,18,-1
 -16.0517578125 -452.301757812 l 1,19,-1
 -16.05078125 -413.999023438 l 1,20,-1
 -16.0478515625 -232.369140625 l 1,21,-1
 -16.046875 -194.333007812 l 1,22,-1
 21.9892578125 -194.370117188 l 1,23,-1
 94.2373046875 -194.440429688 l 2,0,1
EndSplineSet
PairPos2: "'kern' Horizontal Kerning lookup 15-2" uniFBFE dx=60 dy=0 dh=60 dv=0 dx=0 dy=0 dh=0 dv=0
PairPos2: "'kern' Horizontal Kerning lookup 15-1" uniFEFB dx=-100 dy=0 dh=-100 dv=0 dx=0 dy=0 dh=0 dv=0
PairPos2: "'kern' Horizontal Kerning lookup 15-1" uniFEDF dx=-100 dy=0 dh=-100 dv=0 dx=0 dy=0 dh=0 dv=0
PairPos2: "'kern' Horizontal Kerning lookup 15-1" uni062F dx=-100 dy=0 dh=-100 dv=0 dx=0 dy=0 dh=0 dv=0
PairPos2: "'kern' Horizontal Kerning lookup 15-2" uniFB90 dx=-142 dy=0 dh=-142 dv=0 dx=0 dy=0 dh=0 dv=0
PairPos2: "'kern' Horizontal Kerning lookup 15-2" uniFB8E dx=-142 dy=0 dh=-142 dv=0 dx=0 dy=0 dh=0 dv=0
PairPos2: "'kern' Horizontal Kerning lookup 15-2" uni06A9 dx=-142 dy=0 dh=-142 dv=0 dx=0 dy=0 dh=0 dv=0
PairPos2: "'kern' Horizontal Kerning lookup 15-2" uniFEEB dx=-100 dy=0 dh=-100 dv=0 dx=0 dy=0 dh=0 dv=0
PairPos2: "'kern' Horizontal Kerning lookup 15-2" uni0647 dx=-100 dy=0 dh=-100 dv=0 dx=0 dy=0 dh=0 dv=0
PairPos2: "'kern' Horizontal Kerning lookup 15-2" uniFEE7 dx=-100 dy=0 dh=-100 dv=0 dx=0 dy=0 dh=0 dv=0
PairPos2: "'kern' Horizontal Kerning lookup 15-2" uniFEE3 dx=-100 dy=0 dh=-100 dv=0 dx=0 dy=0 dh=0 dv=0
PairPos2: "'kern' Horizontal Kerning lookup 15-2" uni0645 dx=-100 dy=0 dh=-100 dv=0 dx=0 dy=0 dh=0 dv=0
PairPos2: "'kern' Horizontal Kerning lookup 15-2" uniFEDB dx=-100 dy=0 dh=-100 dv=0 dx=0 dy=0 dh=0 dv=0
PairPos2: "'kern' Horizontal Kerning lookup 15-2" uni0643 dx=-100 dy=0 dh=-100 dv=0 dx=0 dy=0 dh=0 dv=0
PairPos2: "'kern' Horizontal Kerning lookup 15-2" uniFED7 dx=-100 dy=0 dh=-100 dv=0 dx=0 dy=0 dh=0 dv=0
PairPos2: "'kern' Horizontal Kerning lookup 15-2" uniFED3 dx=-100 dy=0 dh=-100 dv=0 dx=0 dy=0 dh=0 dv=0
PairPos2: "'kern' Horizontal Kerning lookup 15-2" uni0641 dx=-100 dy=0 dh=-100 dv=0 dx=0 dy=0 dh=0 dv=0
PairPos2: "'kern' Horizontal Kerning lookup 15-2" uniFECF dx=-100 dy=0 dh=-100 dv=0 dx=0 dy=0 dh=0 dv=0
PairPos2: "'kern' Horizontal Kerning lookup 15-2" uniFECB dx=-100 dy=0 dh=-100 dv=0 dx=0 dy=0 dh=0 dv=0
PairPos2: "'kern' Horizontal Kerning lookup 15-2" uniFEC7 dx=-100 dy=0 dh=-100 dv=0 dx=0 dy=0 dh=0 dv=0
PairPos2: "'kern' Horizontal Kerning lookup 15-2" uni0638 dx=-100 dy=0 dh=-100 dv=0 dx=0 dy=0 dh=0 dv=0
PairPos2: "'kern' Horizontal Kerning lookup 15-2" uniFEC3 dx=-100 dy=0 dh=-100 dv=0 dx=0 dy=0 dh=0 dv=0
PairPos2: "'kern' Horizontal Kerning lookup 15-2" uni0637 dx=-100 dy=0 dh=-100 dv=0 dx=0 dy=0 dh=0 dv=0
PairPos2: "'kern' Horizontal Kerning lookup 15-2" uniFEBF dx=-100 dy=0 dh=-100 dv=0 dx=0 dy=0 dh=0 dv=0
PairPos2: "'kern' Horizontal Kerning lookup 15-2" uni0636 dx=-100 dy=0 dh=-100 dv=0 dx=0 dy=0 dh=0 dv=0
PairPos2: "'kern' Horizontal Kerning lookup 15-2" uniFEBB dx=-100 dy=0 dh=-100 dv=0 dx=0 dy=0 dh=0 dv=0
PairPos2: "'kern' Horizontal Kerning lookup 15-2" uni0635 dx=-100 dy=0 dh=-100 dv=0 dx=0 dy=0 dh=0 dv=0
PairPos2: "'kern' Horizontal Kerning lookup 15-2" uniFEB7 dx=-100 dy=0 dh=-100 dv=0 dx=0 dy=0 dh=0 dv=0
PairPos2: "'kern' Horizontal Kerning lookup 15-2" uni0634 dx=-100 dy=0 dh=-100 dv=0 dx=0 dy=0 dh=0 dv=0
PairPos2: "'kern' Horizontal Kerning lookup 15-2" uniFEB3 dx=-100 dy=0 dh=-100 dv=0 dx=0 dy=0 dh=0 dv=0
PairPos2: "'kern' Horizontal Kerning lookup 15-2" uni0633 dx=-100 dy=0 dh=-100 dv=0 dx=0 dy=0 dh=0 dv=0
PairPos2: "'kern' Horizontal Kerning lookup 15-2" uniFEA7 dx=-100 dy=0 dh=-100 dv=0 dx=0 dy=0 dh=0 dv=0
PairPos2: "'kern' Horizontal Kerning lookup 15-2" uniFEA3 dx=-100 dy=0 dh=-100 dv=0 dx=0 dy=0 dh=0 dv=0
PairPos2: "'kern' Horizontal Kerning lookup 15-2" uniFE9F dx=-100 dy=0 dh=-100 dv=0 dx=0 dy=0 dh=0 dv=0
PairPos2: "'kern' Horizontal Kerning lookup 15-2" uniFE9B dx=-100 dy=0 dh=-100 dv=0 dx=0 dy=0 dh=0 dv=0
PairPos2: "'kern' Horizontal Kerning lookup 15-2" uni062B dx=-100 dy=0 dh=-100 dv=0 dx=0 dy=0 dh=0 dv=0
PairPos2: "'kern' Horizontal Kerning lookup 15-2" uniFE97 dx=-100 dy=0 dh=-100 dv=0 dx=0 dy=0 dh=0 dv=0
PairPos2: "'kern' Horizontal Kerning lookup 15-2" uni062A dx=-100 dy=0 dh=-100 dv=0 dx=0 dy=0 dh=0 dv=0
PairPos2: "'kern' Horizontal Kerning lookup 15-2" uni0629 dx=-100 dy=0 dh=-100 dv=0 dx=0 dy=0 dh=0 dv=0
PairPos2: "'kern' Horizontal Kerning lookup 15-2" uniFE91 dx=-47 dy=0 dh=-47 dv=0 dx=0 dy=0 dh=0 dv=0
PairPos2: "'kern' Horizontal Kerning lookup 15-2" uni0628 dx=-100 dy=0 dh=-100 dv=0 dx=0 dy=0 dh=0 dv=0
PairPos2: "'kern' Horizontal Kerning lookup 15-2" uni0627 dx=-160 dy=0 dh=-160 dv=0 dx=0 dy=0 dh=0 dv=0
PairPos2: "'kern' Horizontal Kerning lookup 15-2" uni0622 dx=-160 dy=0 dh=-160 dv=0 dx=0 dy=0 dh=0 dv=0
PairPos2: "'kern' Horizontal Kerning lookup 15-2" uni0621 dx=-100 dy=0 dh=-100 dv=0 dx=0 dy=0 dh=0 dv=0
PairPos2: "'kern' Horizontal Kerning lookup 15-2" uniFB94 dx=-142 dy=0 dh=-142 dv=0 dx=0 dy=0 dh=0 dv=0
PairPos2: "'kern' Horizontal Kerning lookup 15-2" uniFB92 dx=-142 dy=0 dh=-142 dv=0 dx=0 dy=0 dh=0 dv=0
PairPos2: "'kern' Horizontal Kerning lookup 15-2" afii57509 dx=-142 dy=0 dh=-142 dv=0 dx=0 dy=0 dh=0 dv=0
PairPos2: "'kern' Horizontal Kerning lookup 15-2" uniFB7C dx=-100 dy=0 dh=-100 dv=0 dx=0 dy=0 dh=0 dv=0
PairPos2: "'kern' Horizontal Kerning lookup 15-2" afii57506 dx=-100 dy=0 dh=-100 dv=0 dx=0 dy=0 dh=0 dv=0
PairPos2: "'kern' Horizontal Kerning lookup 15-2" afii57440 dx=-94 dy=0 dh=-94 dv=0 dx=0 dy=0 dh=0 dv=0
Substitution2: "'fina' Terminal Forms in Arabic lookup 9 subtable" uniFEAE
EndChar

StartChar: uni0633
Encoding: 1587 1587 27
Width: 2484
VWidth: 2591
GlyphClass: 2
Flags: W
AnchorPoint: "Anchor-7" 691 -627.5 basechar 0
AnchorPoint: "Anchor-10" 1778.4 1103.57 basechar 0
LayerCount: 2
Fore
SplineSet
1533.00976562 -1.064453125 m 0,0,1
 1502.54003906 -1.064453125 1502.54003906 -1.064453125 1474.01074219 3.9765625 c 128,-1,2
 1445.49902344 8.943359375 1445.49902344 8.943359375 1418.94042969 18.0478515625 c 0,3,4
 1392.83691406 26.8291015625 1392.83691406 26.8291015625 1369.0390625 40.8828125 c 2,5,-1
 1366.22753906 42.5439453125 l 1,6,-1
 1366.02636719 39.2841796875 l 2,7,8
 1351.05859375 -202.982421875 1351.05859375 -202.982421875 1193.3046875 -327.106445312 c 0,9,10
 1035.38574219 -450.940429688 1035.38574219 -450.940429688 748.819335938 -450.940429688 c 2,11,-1
 694.10546875 -450.940429688 l 2,12,13
 266.243164062 -451 266.243164062 -451 126.3046875 -167.639648438 c 0,14,15
 63.1845703125 -38.9130859375 63.1845703125 -38.9130859375 63.12109375 141.263671875 c 2,16,-1
 63 483.987304688 l 1,17,-1
 62.9873046875 521.9921875 l 1,18,-1
 100.9921875 522 l 1,19,-1
 281.870117188 522.033203125 l 1,20,-1
 319.877929688 522.041015625 l 1,21,-1
 319.877929688 484.033203125 l 1,22,-1
 319.877929688 142.4609375 l 2,23,24
 320.000976562 -27.8955078125 320.000976562 -27.8955078125 410.552734375 -108.776367188 c 0,25,26
 500.833007812 -189.639648438 500.833007812 -189.639648438 696.272460938 -189.639648438 c 2,27,-1
 747.399414062 -189.639648438 l 2,28,29
 944.672851562 -190.000976562 944.672851562 -190.000976562 1034.31054688 -121.837890625 c 0,30,31
 1124.24511719 -53.8095703125 1124.24511719 -53.8095703125 1124.16210938 86.53515625 c 2,32,-1
 1123.81445312 672.795898438 l 1,33,-1
 1123.79199219 710.798828125 l 1,34,-1
 1161.79492188 710.818359375 l 1,35,-1
 1342.24804688 710.911132812 l 1,36,-1
 1380.26757812 710.930664062 l 1,37,-1
 1380.26757812 672.911132812 l 1,38,-1
 1380.26757812 437.268554688 l 2,39,40
 1379.99804688 341.241210938 1379.99804688 341.241210938 1416.28417969 300.466796875 c 0,41,42
 1425.265625 290.064453125 1425.265625 290.064453125 1437.10253906 282.266601562 c 128,-1,43
 1448.94042969 274.469726562 1448.94042969 274.469726562 1463.58105469 269.297851562 c 128,-1,44
 1478.22070312 264.125 1478.22070312 264.125 1495.61914062 261.537109375 c 128,-1,45
 1513.01660156 258.94921875 1513.01660156 258.94921875 1533.20703125 258.932617188 c 0,46,47
 1550.29492188 258.94921875 1550.29492188 258.94921875 1565.00195312 261.076171875 c 128,-1,48
 1579.70898438 263.203125 1579.70898438 263.203125 1592.08984375 267.458007812 c 128,-1,49
 1604.47167969 271.711914062 1604.47167969 271.711914062 1614.47558594 278.138671875 c 128,-1,50
 1624.47949219 284.565429688 1624.47949219 284.565429688 1632.05957031 293.149414062 c 0,51,52
 1636.43066406 298.126953125 1636.43066406 298.126953125 1640.171875 304.116210938 c 128,-1,53
 1643.91308594 310.106445312 1643.91308594 310.106445312 1647.01855469 317.08203125 c 128,-1,54
 1650.12304688 324.05859375 1650.12304688 324.05859375 1652.60742188 332.048828125 c 128,-1,55
 1655.09179688 340.0390625 1655.09179688 340.0390625 1656.95117188 349.002929688 c 128,-1,56
 1658.81152344 357.967773438 1658.81152344 357.967773438 1660.05957031 367.94921875 c 128,-1,57
 1661.30761719 377.930664062 1661.30761719 377.930664062 1661.94433594 388.874023438 c 128,-1,58
 1662.58007812 399.817382812 1662.58007812 399.817382812 1662.61328125 411.779296875 c 2,59,-1
 1663.33984375 674.725585938 l 1,60,-1
 1663.44433594 712.62109375 l 1,61,-1
 1701.33984375 712.62109375 l 1,62,-1
 1880.45703125 712.62109375 l 1,63,-1
 1918.26074219 712.62109375 l 1,64,-1
 1918.45605469 674.817382812 l 1,65,-1
 1919.80859375 413.841796875 l 2,66,67
 1920.00195312 330.227539062 1920.00195312 330.227539062 1952.13085938 294.740234375 c 0,68,69
 1968.16894531 276.813476562 1968.16894531 276.813476562 1994.09375 267.889648438 c 128,-1,70
 2020.01757812 258.966796875 2020.01757812 258.966796875 2055.71289062 258.932617188 c 0,71,72
 2070.01367188 258.966796875 2070.01367188 258.966796875 2082.20800781 260.723632812 c 128,-1,73
 2094.40234375 262.48046875 2094.40234375 262.48046875 2104.54296875 265.987304688 c 128,-1,74
 2114.84960938 269.637695312 2114.84960938 269.637695312 2123.54101562 275.844726562 c 128,-1,75
 2132.23242188 282.052734375 2132.23242188 282.052734375 2139.20996094 290.737304688 c 0,76,77
 2153.84765625 308.088867188 2153.84765625 308.088867188 2160.3046875 337.595703125 c 0,78,79
 2163.63085938 352.095703125 2163.63085938 352.095703125 2165.29003906 370.176757812 c 128,-1,80
 2166.94824219 388.258789062 2166.94824219 388.258789062 2166.94824219 409.92578125 c 2,81,-1
 2166.94824219 708.295898438 l 1,82,-1
 2166.94824219 746.314453125 l 1,83,-1
 2204.94824219 746.295898438 l 1,84,-1
 2383.70605469 746.295898438 l 1,85,-1
 2421.70605469 746.295898438 l 1,86,-1
 2421.70605469 708.295898438 l 1,87,-1
 2421.70605469 401.959960938 l 2,88,89
 2421.99902344 207.763671875 2421.99902344 207.763671875 2328.34667969 103.194335938 c 0,90,91
 2281.73925781 51.1123046875 2281.73925781 51.1123046875 2213.796875 25.0390625 c 128,-1,92
 2145.85449219 -1.033203125 2145.85449219 -1.033203125 2056.41015625 -1.06640625 c 0,93,94
 1974.39257812 -1 1974.39257812 -1 1909.90234375 25.28515625 c 128,-1,95
 1845.21777344 51.6630859375 1845.21777344 51.6630859375 1801.33886719 104.413085938 c 2,96,-1
 1799.77441406 106.293945312 l 1,97,-1
 1798.2421875 104.385742188 l 2,98,99
 1712.04882812 -2.9892578125 1712.04882812 -2.9892578125 1533.00976562 -1.064453125 c 0,0,1
EndSplineSet
Substitution2: "'fina' Terminal Forms in Arabic lookup 9 subtable" uniFEB2
Substitution2: "'medi' Medial Forms in Arabic lookup 11 subtable" uniFEB4
Substitution2: "'init' Initial Forms in Arabic lookup 13 subtable" uniFEB3
EndChar

StartChar: uni0635
Encoding: 1589 1589 29
Width: 2515
VWidth: 2591
GlyphClass: 2
Flags: W
AnchorPoint: "Anchor-10" 2006.4 1307.57 basechar 0
AnchorPoint: "Anchor-7" 691 -627.5 basechar 0
LayerCount: 2
Fore
SplineSet
2187.61328125 450.188476562 m 4,0,1
 2155.38476562 592 2155.38476562 592 2020.19238281 592.013671875 c 4,2,3
 1845.38476562 592 1845.38476562 592 1682.79980469 260.52734375 c 5,4,-1
 1981.26464844 260.52734375 l 6,5,6
 2170.38476562 261 2170.38476562 261 2189.48730469 348.557617188 c 4,7,8
 2194.38476562 370 2194.38476562 370 2194.38867188 393 c 4,9,10
 2194.38476562 421 2194.38476562 421 2187.61328125 450.188476562 c 4,0,1
1621.32421875 0 m 6,11,12
 1454 0 1454 0 1366.20117188 42.119140625 c 1,13,14
 1344 -325 1344 -325 1003.24609375 -419.961914062 c 0,15,16
 892.213510736 -450.940429688 892.213510736 -450.940429688 748.819335938 -450.940429688 c 2,17,-1
 694.10546875 -450.940429688 l 2,18,19
 166 -451 166 -451 79.0576171875 -26.18359375 c 0,20,21
 63.1527225554 51.2564028591 63.1527225554 51.2564028591 63.12109375 141.263671875 c 2,22,-1
 62.9873046875 521.9921875 l 1,23,-1
 281.870117188 522.033203125 l 1,24,-1
 319.877929688 522.041015625 l 1,25,-1
 319.877929688 142.4609375 l 2,26,27
 320 -28 320 -28 410.5546875 -108.77734375 c 0,28,29
 500.5987313 -189.639648438 500.5987313 -189.639648438 696.272460938 -189.639648438 c 2,30,-1
 747.401367188 -189.639648438 l 2,31,32
 945 -190 945 -190 1034.43994141 -121.740234375 c 0,33,34
 1124.24532069 -53.8144476315 1124.24532069 -53.8144476315 1124.16210938 86.53515625 c 2,35,-1
 1123.79199219 710.798828125 l 1,36,-1
 1380.26757812 710.930664062 l 1,37,-1
 1380.26757812 457.294921875 l 2,38,39
 1380 344 1380 344 1418.9296875 301.978515625 c 5,40,41
 1657 855 1657 855 2017.5 855 c 4,42,43
 2243 855 2243 855 2361.29296875 697.849609375 c 4,44,45
 2453 577 2453 577 2452.56152344 407.689453125 c 4,46,47
 2450.97937122 207.388388361 2450.97937122 207.388388361 2303.06835938 94.67578125 c 4,48,49
 2179 0 2179 0 1961.26464844 0 c 6,50,-1
 1621.32421875 0 l 6,11,12
EndSplineSet
Substitution2: "'fina' Terminal Forms in Arabic lookup 9 subtable" uniFEBA
Substitution2: "'medi' Medial Forms in Arabic lookup 11 subtable" uniFEBC
Substitution2: "'init' Initial Forms in Arabic lookup 13 subtable" uniFEBB
EndChar

StartChar: uni0637
Encoding: 1591 1591 31
Width: 1369
VWidth: 2591
GlyphClass: 2
Flags: W
AnchorPoint: "Anchor-7" 609.72 -198 basechar 0
AnchorPoint: "Anchor-10" 471.723 1474.59 basechar 0
LayerCount: 2
Fore
SplineSet
599 754.614257812 m 1,0,1
 732 855 732 855 887.825195312 855 c 0,2,3
 1093 855 1093 855 1214.83789062 698.020507812 c 0,4,5
 1305 581 1305 581 1305.23535156 404.825195312 c 0,6,7
 1305 207 1305 207 1156.59570312 93.5625 c 0,8,9
 1034 0 1034 0 814.940429688 0 c 2,10,-1
 101.770507812 0 l 1,11,-1
 63.7705078125 0 l 1,12,-1
 63.7705078125 38 l 1,13,-1
 63.7705078125 222.200195312 l 1,14,-1
 63.7705078125 260.2421875 l 1,15,-1
 101.8125 260.200195312 l 1,16,-1
 256.059570312 260.029296875 l 1,17,-1
 257.338867188 260.028320312 l 1,18,-1
 257.876953125 261.189453125 l 2,19,20
 271 290 271 290 293.659179688 335.415039062 c 0,21,22
 312.407152777 372.833329523 312.407152777 372.833329523 352.673828125 449.119140625 c 2,23,-1
 352.905273438 449.557617188 l 1,24,-1
 352.905273438 1316.64355469 l 1,25,-1
 352.905273438 1354.64355469 l 1,26,-1
 390.905273438 1354.64355469 l 1,27,-1
 561 1354.64355469 l 1,28,-1
 599 1354.64355469 l 1,29,-1
 599 1316.64355469 l 1,30,-1
 599 754.666015625 l 1,31,-1
 599 754.614257812 l 1,0,1
1041.22851562 450.188476562 m 4,32,33
 1009 592 1009 592 873.807617188 592.013671875 c 4,34,35
 699 592 699 592 536.415039062 260.52734375 c 5,36,-1
 834.879882812 260.52734375 l 6,37,38
 1024 261 1024 261 1043.10253906 348.557617188 c 4,39,40
 1048 370 1048 370 1048.00390625 393 c 4,41,42
 1048 421 1048 421 1041.22851562 450.188476562 c 4,32,33
EndSplineSet
Substitution2: "'fina' Terminal Forms in Arabic lookup 9 subtable" uniFEC2
Substitution2: "'medi' Medial Forms in Arabic lookup 11 subtable" uniFEC4
Substitution2: "'init' Initial Forms in Arabic lookup 13 subtable" uniFEC3
EndChar

StartChar: uni0639
Encoding: 1593 1593 33
Width: 1249
VWidth: 2591
GlyphClass: 2
Flags: W
AnchorPoint: "Anchor-7" 471.334 -795.653 basechar 0
AnchorPoint: "Anchor-10" 711.349 1391.99 basechar 0
LayerCount: 2
Fore
SplineSet
710.043945312 446.637695312 m 1,0,1
 820.471936776 454.099460714 820.471936776 454.099460714 941.16015625 454.096679688 c 2,2,-1
 1110.6796875 454.092773438 l 1,3,-1
 1148.67871094 454.091796875 l 1,4,-1
 1148.67871094 192.723632812 l 1,5,-1
 925.034179688 192.591796875 l 2,6,7
 312 192 312 192 313.6875 -139.627929688 c 0,8,9
 314 -289 314 -289 431.982421875 -364.191894531 c 0,10,11
 552.575950825 -439.358995663 552.575950825 -439.358995663 804.448242188 -439.172851562 c 2,12,-1
 1186.33007812 -438.890625 l 1,13,-1
 1186.33007812 -695.5703125 l 1,14,-1
 792.37109375 -694.58203125 l 2,15,16
 386 -694 386 -694 222.744628906 -536.456542969 c 0,17,18
 59 -379 59 -379 62.11328125 -137.12890625 c 0,19,20
 67 215 67 215 428.275390625 367.977539062 c 1,21,22
 301 509 301 509 335.953125 703.190429688 c 0,23,24
 359 832 359 832 448.452148438 923.887695312 c 0,25,26
 570 1048 570 1048 769.1171875 1048.01220703 c 128,-1,27
 968.208365732 1047.99998721 968.208365732 1047.99998721 1101.29003906 882.516601562 c 2,28,-1
 1117.18554688 862.750976562 l 1,29,-1
 1006.62988281 660.280273438 l 1,30,-1
 970.752929688 695.46484375 l 2,31,32
 880 784 880 784 767.44140625 783.451171875 c 0,33,34
 665 783 665 783 613.47265625 711.46875 c 0,35,36
 584 670 584 670 584.61328125 619 c 4,37,38
 586 519 586 519 708.87890625 446.916015625 c 1,39,-1
 710.043945312 446.637695312 l 1,0,1
EndSplineSet
Substitution2: "'fina' Terminal Forms in Arabic lookup 9 subtable" uniFECA
Substitution2: "'medi' Medial Forms in Arabic lookup 11 subtable" uniFECC
Substitution2: "'init' Initial Forms in Arabic lookup 13 subtable" uniFECB
EndChar

StartChar: afii57440
Encoding: 1600 1600 35
Width: 250
VWidth: 2591
GlyphClass: 2
Flags: W
AnchorPoint: "Anchor-10" 125.758 1541.26 basechar 0
AnchorPoint: "Anchor-7" 129.758 -132.351 basechar 0
LayerCount: 2
Fore
SplineSet
254.9765625 260 m 2,0,1
 317.9765625 260 317.9765625 260 317.9765625 137 c 2,2,-1
 317.9765625 126.009765625 l 2,3,4
 317.994140625 62.4404296875 317.994140625 62.4404296875 302.137695312 31.2197265625 c 128,-1,5
 286.280273438 -0 286.280273438 -0 254.9765625 0 c 2,6,-1
 -5.0234375 0 l 2,7,8
 -98.0234375 0 -98.0234375 0 -98.0234375 126 c 2,9,-1
 -98.0234375 137.009765625 l 2,10,11
 -97.9892578125 260 -97.9892578125 260 -5.0234375 260 c 2,12,-1
 254.9765625 260 l 2,0,1
EndSplineSet
EndChar

StartChar: uni0643
Encoding: 1603 1603 38
Width: 1889
VWidth: 2591
GlyphClass: 2
Flags: W
AnchorPoint: "Anchor-7" 849.692 -192.794 basechar 0
AnchorPoint: "Anchor-10" 927.382 1437.15 basechar 0
LayerCount: 2
Fore
SplineSet
708.265625 739.345703125 m 2,0,1
 770.586914062 731.491210938 770.586914062 731.491210938 832.82421875 731.491210938 c 0,2,3
 847.357421875 731.491210938 847.357421875 731.491210938 861.276367188 732.690429688 c 0,4,5
 868.235351562 733.290039062 868.235351562 733.290039062 875.036132812 734.188476562 c 128,-1,6
 881.8359375 735.0859375 881.8359375 735.0859375 888.4765625 736.283203125 c 128,-1,7
 895.1171875 737.48046875 895.1171875 737.48046875 901.603515625 738.966796875 c 128,-1,8
 908.088867188 740.452148438 908.088867188 740.452148438 914.41796875 742.227539062 c 0,9,10
 927.078125 745.77734375 927.078125 745.77734375 939.262695312 750.513671875 c 0,11,12
 945.294921875 752.858398438 945.294921875 752.858398438 950.700195312 755.251953125 c 128,-1,13
 956.104492188 757.646484375 956.104492188 757.646484375 960.908203125 760.102539062 c 128,-1,14
 965.7109375 762.559570312 965.7109375 762.559570312 969.90234375 765.079101562 c 128,-1,15
 974.094726562 767.598632812 974.094726562 767.598632812 977.671875 770.1796875 c 0,16,17
 984.91015625 775.40234375 984.91015625 775.40234375 989.319335938 779.532226562 c 128,-1,18
 993.728515625 783.661132812 993.728515625 783.661132812 995.555664062 787.068359375 c 0,19,20
 999.059570312 793.604492188 999.059570312 793.604492188 999.059570312 799.939453125 c 2,21,-1
 997.171875 807.547851562 l 2,22,23
 995.188476562 811.427734375 995.188476562 811.427734375 980.525390625 818.228515625 c 0,24,25
 973.329101562 821.565429688 973.329101562 821.565429688 963.278320312 824.239257812 c 128,-1,26
 953.227539062 826.913085938 953.227539062 826.913085938 940.237304688 828.96875 c 0,27,28
 834.338867188 845.723632812 834.338867188 845.723632812 789.036132812 904.9765625 c 0,29,30
 722.305664062 992.251953125 722.305664062 992.251953125 752.78125 1088.03613281 c 0,31,32
 759.942382812 1110.546875 759.942382812 1110.546875 771.091796875 1130.46386719 c 128,-1,33
 782.240234375 1150.37988281 782.240234375 1150.37988281 797.388671875 1167.72851562 c 0,34,35
 827.70703125 1202.45019531 827.70703125 1202.45019531 872.235351562 1225.88183594 c 128,-1,36
 916.879882812 1249.37304688 916.879882812 1249.37304688 972.83203125 1263.27441406 c 128,-1,37
 1028.85351562 1277.19433594 1028.85351562 1277.19433594 1097.62988281 1282.30566406 c 2,38,-1
 1126.89941406 1284.48046875 l 1,39,-1
 1167.71484375 1287.51269531 l 1,40,-1
 1167.71484375 1246.58496094 l 1,41,-1
 1167.71484375 1146.15820312 l 1,42,-1
 1167.71484375 1111.12402344 l 1,43,-1
 1132.79589844 1108.28320312 l 1,44,-1
 1107.75585938 1106.24609375 l 2,45,46
 1055.09765625 1101.96289062 1055.09765625 1101.96289062 1017.45898438 1093.25878906 c 128,-1,47
 979.658203125 1084.51953125 979.658203125 1084.51953125 961.17578125 1073.5390625 c 0,48,49
 955.014648438 1069.87890625 955.014648438 1069.87890625 950.0546875 1066.34570312 c 128,-1,50
 945.094726562 1062.81347656 945.094726562 1062.81347656 941.243164062 1059.31933594 c 128,-1,51
 937.390625 1055.82519531 937.390625 1055.82519531 934.711914062 1052.40429688 c 0,52,53
 926.592773438 1042.03320312 926.592773438 1042.03320312 926.592773438 1031.37695312 c 2,54,-1
 928.090820312 1018.92382812 l 2,55,56
 929.688476562 1014.26464844 929.688476562 1014.26464844 935.948242188 1009.80078125 c 0,57,58
 941.9375 1005.53125 941.9375 1005.53125 954.169921875 1001.59472656 c 0,59,60
 979.017578125 993.600585938 979.017578125 993.600585938 1027.30957031 986.498046875 c 0,61,62
 1058.32617188 981.935546875 1058.32617188 981.935546875 1085.25195312 969.212890625 c 128,-1,63
 1112.1484375 956.504882812 1112.1484375 956.504882812 1133.33691406 935.979492188 c 0,64,65
 1156.05859375 913.969726562 1156.05859375 913.969726562 1167.31835938 883.9921875 c 128,-1,66
 1178.609375 853.934570312 1178.609375 853.934570312 1178.609375 818.932617188 c 0,67,68
 1178.609375 750.872070312 1178.609375 750.872070312 1149.46972656 704.576171875 c 0,69,70
 1023.45214844 504.3671875 1023.45214844 504.3671875 690.028320312 556.481445312 c 2,71,-1
 666.987304688 560.083984375 l 1,72,-1
 634.857421875 565.108398438 l 1,73,-1
 634.857421875 597.627929688 l 1,74,-1
 634.857421875 705.506835938 l 1,75,-1
 634.857421875 748.596679688 l 1,76,-1
 677.608398438 743.208984375 l 1,77,-1
 708.265625 739.345703125 l 2,0,1
537.549804688 260 m 2,78,-1
 1351.84472656 260 l 2,79,80
 1400.27246094 260 1400.27246094 260 1435.93554688 273.319335938 c 128,-1,81
 1471.59863281 286.637695312 1471.59863281 286.637695312 1494.34277344 313.357421875 c 0,82,83
 1539.41601562 366.76171875 1539.41601562 366.76171875 1539.41601562 488.396484375 c 2,84,-1
 1539.41601562 1315.18847656 l 1,85,-1
 1539.41601562 1353.1875 l 1,86,-1
 1576.44042969 1353.18847656 l 1,87,-1
 1748.17382812 1353.18847656 l 1,88,-1
 1786.17382812 1353.18847656 l 1,89,-1
 1786.17382812 1315.18847656 l 1,90,-1
 1786.17382812 485.377929688 l 2,91,92
 1786 329.434570312 1786 329.434570312 1736.48828125 220.555664062 c 0,93,94
 1687.44726562 112.41796875 1687.44726562 112.41796875 1588.59375 56.244140625 c 0,95,96
 1490.46777344 0 1490.46777344 0 1346.62988281 0 c 2,97,-1
 534.767578125 0 l 2,98,99
 303.841796875 0 303.841796875 0 183.090820312 123.478515625 c 0,100,101
 122.689453125 185.000976562 122.689453125 185.000976562 92.458984375 274.595703125 c 128,-1,102
 62.228515625 364.190429688 62.228515625 364.190429688 62.2275390625 481.977539062 c 2,103,-1
 62.2265625 694.66015625 l 1,104,-1
 62.2265625 732.66015625 l 1,105,-1
 100.2265625 732.66015625 l 1,106,-1
 278.984375 732.66015625 l 1,107,-1
 316.984375 732.66015625 l 1,108,-1
 316.984375 694.66015625 l 1,109,-1
 316.984375 482.54296875 l 2,110,111
 317 365.172851562 317 365.172851562 369.315429688 312.741210938 c 0,112,113
 386.653320312 295.104492188 386.653320312 295.104492188 411.194335938 283.373046875 c 128,-1,114
 435.736328125 271.640625 435.736328125 271.640625 467.291992188 265.8203125 c 128,-1,115
 498.848632812 260 498.848632812 260 537.549804688 260 c 2,78,-1
EndSplineSet
Substitution2: "'fina' Terminal Forms in Arabic lookup 9 subtable" uniFEDA
Substitution2: "'medi' Medial Forms in Arabic lookup 11 subtable" uniFEDC
Substitution2: "'init' Initial Forms in Arabic lookup 13 subtable" uniFEDB
EndChar

StartChar: uni0644
Encoding: 1604 1604 39
Width: 1337
VWidth: 2591
GlyphClass: 2
Flags: W
AnchorPoint: "Anchor-10" 604.754 1149.62 basechar 0
AnchorPoint: "Anchor-7" 691 -627.5 basechar 0
LayerCount: 2
Fore
SplineSet
317.877929688 142.44921875 m 2,0,1
 317.877929688 57.974609375 317.877929688 57.974609375 337.546875 -4.2607421875 c 128,-1,2
 357.215820312 -66.49609375 357.215820312 -66.49609375 396.659179688 -106.401367188 c 0,3,4
 474.692382812 -185.522460938 474.692382812 -185.522460938 644.358398438 -185.528320312 c 2,5,-1
 697.385742188 -185.530273438 l 2,6,7
 848.8671875 -186.002929688 848.8671875 -186.002929688 918.890625 -110.958007812 c 0,8,9
 989.36328125 -35.3984375 989.36328125 -35.3984375 989.365234375 126.416015625 c 2,10,-1
 989.376953125 1314.63671875 l 1,11,-1
 989.376953125 1352.63671875 l 1,12,-1
 1027.37695312 1352.63671875 l 1,13,-1
 1196.29882812 1352.63671875 l 1,14,-1
 1234.33007812 1352.63671875 l 1,15,-1
 1234.29882812 1314.60546875 l 1,16,-1
 1233.25488281 121.969726562 l 2,17,18
 1233.12792969 52.630859375 1233.12792969 52.630859375 1224.37207031 -8.64453125 c 128,-1,19
 1215.61523438 -69.919921875 1215.61523438 -69.919921875 1198.24316406 -123.122070312 c 0,20,21
 1163.24023438 -229.947265625 1163.24023438 -229.947265625 1095.18847656 -301.260742188 c 0,22,23
 1061.03027344 -337.272460938 1061.03027344 -337.272460938 1018.56640625 -364.4296875 c 128,-1,24
 976.103515625 -391.587890625 976.103515625 -391.587890625 925.28125 -409.9140625 c 0,25,26
 824.112304688 -446.830078125 824.112304688 -446.830078125 690.430664062 -446.830078125 c 2,27,-1
 644.198242188 -446.830078125 l 2,28,29
 253.049804688 -447 253.049804688 -447 123.74609375 -170.404296875 c 0,30,31
 93.4765625 -105.702148438 93.4765625 -105.702148438 78.3154296875 -27.787109375 c 128,-1,32
 63.1533203125 50.1279296875 63.1533203125 50.1279296875 63.12109375 141.263671875 c 2,33,-1
 63 483.987304688 l 1,34,-1
 62.9873046875 521.9921875 l 1,35,-1
 100.9921875 522 l 1,36,-1
 279.870117188 522.033203125 l 1,37,-1
 317.877929688 522.041015625 l 1,38,-1
 317.877929688 484.033203125 l 1,39,-1
 317.877929688 142.44921875 l 2,0,1
EndSplineSet
Substitution2: "'fina' Terminal Forms in Arabic lookup 9 subtable" uniFEDE
Substitution2: "'medi' Medial Forms in Arabic lookup 11 subtable" uniFEE0
Substitution2: "'init' Initial Forms in Arabic lookup 13 subtable" uniFEDF
EndChar

StartChar: uni0645
Encoding: 1605 1605 40
Width: 1310
VWidth: 2591
GlyphClass: 2
Flags: W
AnchorPoint: "Anchor-10" 675.565 1188.03 basechar 0
AnchorPoint: "Anchor-7" 722.389 -285.648 basechar 0
LayerCount: 2
Fore
SplineSet
842.7890625 569.490234375 m 2,0,-1
 725.830078125 569.490234375 l 1,1,-1
 723.830078125 569.490234375 l 1,2,-1
 723.830078125 567.490234375 l 1,3,-1
 723.830078125 408.14453125 l 2,4,5
 723.868164062 356.844726562 723.868164062 356.844726562 732.537109375 320.401367188 c 128,-1,6
 741.205078125 283.958007812 741.205078125 283.958007812 758.676757812 262.27734375 c 128,-1,7
 776.1640625 240.577148438 776.1640625 240.577148438 803.727539062 229.745117188 c 128,-1,8
 831.291015625 218.913085938 831.291015625 218.913085938 868.740234375 218.890625 c 0,9,10
 933.168945312 218.93359375 933.168945312 218.93359375 964.237304688 261.803710938 c 0,11,12
 995.08984375 304.373046875 995.08984375 304.373046875 995.08984375 408 c 2,13,-1
 995.08984375 449.80078125 l 2,14,15
 995.072265625 481.081054688 995.072265625 481.081054688 986.529296875 503.924804688 c 128,-1,16
 977.986328125 526.76953125 977.986328125 526.76953125 960.833007812 541.0078125 c 0,17,18
 926.78125 569.2734375 926.78125 569.2734375 842.7890625 569.490234375 c 2,0,-1
858.188476562 820.5390625 m 2,19,20
 1046.54980469 820.5390625 1046.54980469 820.5390625 1147.18457031 725.653320312 c 128,-1,21
 1247.76953125 630.813476562 1247.76953125 630.813476562 1247.76953125 451 c 2,22,-1
 1247.76953125 407.028320312 l 2,23,24
 1247.89257812 200.307617188 1247.89257812 200.307617188 1151.08007812 89.71484375 c 128,-1,25
 1054.37109375 -20.76171875 1054.37109375 -20.76171875 868.690429688 -20.4755859375 c 0,26,27
 674.5078125 -20.21875 674.5078125 -20.21875 572.728515625 89.7578125 c 128,-1,28
 470.888671875 199.799804688 470.888671875 199.799804688 470.889648438 406.30859375 c 2,29,-1
 470.889648438 543.520507812 l 1,30,-1
 470.889648438 546.235351562 l 1,31,-1
 468.296875 545.430664062 l 2,32,33
 313.010742188 497.22265625 313.010742188 497.22265625 313.010742188 199.032226562 c 2,34,-1
 313.010742188 -458.416992188 l 1,35,-1
 313.010742188 -496.416992188 l 1,36,-1
 275.010742188 -496.416992188 l 1,37,-1
 100.94921875 -496.416992188 l 1,38,-1
 62.94921875 -496.416992188 l 1,39,-1
 62.94921875 -458.416992188 l 1,40,-1
 62.94921875 191.604492188 l 1,41,-1
 62.9541015625 197.576171875 l 2,42,43
 62.458984375 501.079101562 62.458984375 501.079101562 194.192382812 660.881835938 c 128,-1,44
 325.783203125 820.512695312 325.783203125 820.512695312 583.25390625 820.525390625 c 2,45,-1
 858.188476562 820.5390625 l 2,19,20
EndSplineSet
Substitution2: "'init' Initial Forms in Arabic lookup 13 subtable" uniFEE3
Substitution2: "'medi' Medial Forms in Arabic lookup 11 subtable" uniFEE4
Substitution2: "'fina' Terminal Forms in Arabic lookup 9 subtable" uniFEE2
EndChar

StartChar: uni0647
Encoding: 1607 1607 42
Width: 924
VWidth: 2368
GlyphClass: 2
Flags: W
AnchorPoint: "Anchor-10" 421.833 1179.93 basechar 0
AnchorPoint: "Anchor-7" 439.418 -158.202 basechar 0
LayerCount: 2
Fore
SplineSet
456.997070312 611.5859375 m 2,0,1
 309.944335938 479.591796875 309.944335938 479.591796875 309.731445312 379.326171875 c 0,2,3
 309.838867188 315.46484375 309.838867188 315.46484375 346.365234375 286.134765625 c 0,4,5
 352.475585938 281.228515625 352.475585938 281.228515625 360.041992188 277.15234375 c 128,-1,6
 367.607421875 273.076171875 367.607421875 273.076171875 376.6171875 269.836914062 c 128,-1,7
 385.626953125 266.59765625 385.626953125 266.59765625 396.06640625 264.17578125 c 128,-1,8
 406.506835938 261.75390625 406.506835938 261.75390625 418.409179688 260.1484375 c 128,-1,9
 430.311523438 258.541992188 430.311523438 258.541992188 443.616210938 257.741210938 c 128,-1,10
 456.919921875 256.940429688 456.919921875 256.940429688 471.703125 256.935546875 c 0,11,12
 552.53515625 256.963867188 552.53515625 256.963867188 585.758789062 286.296875 c 0,13,14
 602.484375 301.063476562 602.484375 301.063476562 610.8046875 325.15625 c 128,-1,15
 619.124023438 349.248046875 619.124023438 349.248046875 619.15625 382.544921875 c 0,16,17
 619.137695312 396.955078125 619.137695312 396.955078125 614.719726562 413.09375 c 128,-1,18
 610.302734375 429.232421875 610.302734375 429.232421875 601.563476562 446.9921875 c 128,-1,19
 592.825195312 464.751953125 592.825195312 464.751953125 579.731445312 484.291015625 c 128,-1,20
 566.651367188 503.810546875 566.651367188 503.810546875 548.9375 524.470703125 c 128,-1,21
 531.22265625 545.130859375 531.22265625 545.130859375 508.90625 566.904296875 c 128,-1,22
 486.590820312 588.678710938 486.590820312 588.678710938 459.62890625 611.62109375 c 2,23,-1
 458.297851562 612.75390625 l 1,24,-1
 456.997070312 611.5859375 l 2,0,1
62.951171875 362.151367188 m 0,25,26
 62.951171875 568.220703125 62.951171875 568.220703125 280.883789062 779.895507812 c 2,27,-1
 282.397460938 781.366210938 l 1,28,-1
 280.84765625 782.798828125 l 1,29,-1
 273.590820312 789.5078125 l 1,30,-1
 246.689453125 814.379882812 l 1,31,-1
 270.564453125 842.170898438 l 1,32,-1
 376.344726562 965.30078125 l 1,33,-1
 398.98828125 991.658203125 l 1,34,-1
 427.259765625 971.458007812 l 2,35,36
 868.038085938 656.525390625 868.038085938 656.525390625 867.499023438 377.012695312 c 0,37,38
 867.228515625 193.453125 867.228515625 193.453125 764.672851562 96.9775390625 c 128,-1,39
 662.068359375 0.4541015625 662.068359375 0.4541015625 470.03515625 0.9775390625 c 0,40,41
 405.077148438 1.158203125 405.077148438 1.158203125 349.594726562 11.6162109375 c 128,-1,42
 294.140625 22.0634765625 294.140625 22.0634765625 248.943359375 42.41015625 c 128,-1,43
 203.801757812 62.7294921875 203.801757812 62.7294921875 169.077148438 93.20703125 c 0,44,45
 151.719726562 108.442382812 151.719726562 108.442382812 137.15625 126.004882812 c 128,-1,46
 122.592773438 143.567382812 122.592773438 143.567382812 110.813476562 163.467773438 c 128,-1,47
 99.03515625 183.369140625 99.03515625 183.369140625 90.109375 205.811523438 c 128,-1,48
 81.18359375 228.25390625 81.18359375 228.25390625 75.1123046875 253.245117188 c 0,49,50
 71.0625 269.916992188 71.0625 269.916992188 68.3603515625 287.564453125 c 128,-1,51
 65.6591796875 305.211914062 65.6591796875 305.211914062 64.3046875 323.866210938 c 128,-1,52
 62.951171875 342.520507812 62.951171875 342.520507812 62.951171875 362.151367188 c 0,25,26
EndSplineSet
Substitution2: "'fina' Terminal Forms in Arabic lookup 9 subtable" uniFEEA
Substitution2: "'medi' Medial Forms in Arabic lookup 11 subtable" uniFEEC
Substitution2: "'init' Initial Forms in Arabic lookup 13 subtable" uniFEEB
EndChar

StartChar: uni0648
Encoding: 1608 1608 43
Width: 877
VWidth: 2591
GlyphClass: 2
Flags: W
AnchorPoint: "Anchor-10" 438.019 1099.88 basechar 0
AnchorPoint: "Anchor-7" 367.433 -629.366 basechar 0
LayerCount: 2
Fore
SplineSet
820.041992188 394.298828125 m 2,0,1
 819.66015625 38.0283203125 l 6,2,3
 819 -205 819 -205 666.677246094 -327.227539062 c 0,4,5
 511.489336268 -450.61094922 511.489336268 -450.61094922 214.728515625 -450.412109375 c 2,6,-1
 101.044921875 -450.3359375 l 1,7,-1
 100.899414062 -191.157226562 l 1,8,-1
 208.936523438 -191.265625 l 2,9,10
 440 -191 440 -191 521.836914062 -104.698242188 c 0,11,12
 561 -63 561 -63 571.286132812 0.1064453125 c 1,13,-1
 448.420898438 0.1064453125 l 2,14,15
 260 0 260 0 159.705078125 98.3095703125 c 0,16,17
 60 196 60 196 60.4189453125 389.092773438 c 128,-1,18
 61 582 61 582 158.293945312 690.260742188 c 0,19,20
 259 804 259 804 446.834960938 804.58984375 c 0,21,22
 612 805 612 805 713.151367188 707.169921875 c 0,23,24
 820 603 820 603 820.041992188 394.298828125 c 2,0,1
381.91015625 264.369140625 m 0,25,26
 408.536895064 257.125976562 408.536895064 257.125976562 447.383789062 257.125976562 c 2,27,-1
 570.9921875 257.125976562 l 1,28,-1
 570.642578125 388.89453125 l 2,29,30
 569.9838041 478.195455206 569.9838041 478.195455206 542.603515625 512.329101562 c 0,31,32
 509 554 509 554 443.112304688 553.374023438 c 0,33,34
 372 553 372 553 339.384765625 514.545898438 c 0,35,36
 307 476 307 476 307.155273438 380.157226562 c 0,37,38
 307 284 307 284 381.91015625 264.369140625 c 0,25,26
EndSplineSet
Substitution2: "'fina' Terminal Forms in Arabic lookup 9 subtable" uniFEEE
EndChar

StartChar: uni0649
Encoding: 1609 1609 44
Width: 1446
VWidth: 2591
GlyphClass: 2
Flags: W
AnchorPoint: "Anchor-7" 641 -627.5 basechar 0
AnchorPoint: "Anchor-10" 604 1259.43 basechar 0
LayerCount: 2
Fore
SplineSet
1060.77441406 309.370117188 m 2,0,1
 1323.89907348 309.370117188 1323.89907348 309.370117188 1373.33789062 128.068359375 c 0,2,3
 1383.12792969 91.5224423814 1383.12792969 91.5224423814 1383.12792969 49.36328125 c 2,4,-1
 1383.12792969 20.01171875 l 2,5,6
 1383 -329 1383 -329 1034.75097656 -419.845703125 c 0,7,8
 920.916073884 -449.280273438 920.916073884 -449.280273438 775.421875 -449.280273438 c 2,9,-1
 690.923828125 -449.280273438 l 2,10,11
 383 -449 383 -449 222.822265625 -298.330078125 c 0,12,13
 62.4575469711 -148.4276962 62.4575469711 -148.4276962 62.267578125 144.0078125 c 2,14,-1
 61.974609375 595 l 1,15,-1
 317.022460938 595 l 1,16,-1
 317.022460938 145.204101562 l 2,17,18
 317 -26 317 -26 407.572265625 -106.87109375 c 0,19,20
 497.978230118 -187.98046875 497.978230118 -187.98046875 693.11328125 -187.98046875 c 2,21,-1
 784.022460938 -187.98046875 l 2,22,23
 968 -188 968 -188 1049.24511719 -139.553222656 c 0,24,25
 1130.71875 -91.1670309271 1130.71875 -91.1670309271 1130.71875 2.416015625 c 2,26,-1
 1130.71875 14.2158203125 l 2,27,28
 1131 36 1131 36 1117.80078125 45.2729492188 c 0,29,30
 1105.34220995 54.7399616836 1105.34220995 54.7399616836 1060.29003906 54.740234375 c 2,31,-1
 898.94921875 54.7412109375 l 2,32,33
 746 55 746 55 701.735351562 173.284179688 c 0,34,35
 687.765625 211.643568921 687.765625 211.643568921 687.765625 259.583007812 c 2,36,-1
 687.765625 325.396484375 l 2,37,38
 688 658 688 658 894.7578125 776.744140625 c 0,39,40
 997.696728567 835.825937344 997.696728567 835.825937344 1148.51367188 835.901367188 c 2,41,-1
 1382.82226562 836.018554688 l 1,42,-1
 1384.0703125 570.604492188 l 1,43,-1
 1107.24609375 570.604492188 l 2,44,45
 945.588907235 571.001008337 945.588907235 571.001008337 942.514648438 341.26171875 c 6,46,-1
 942.087890625 309.370117188 l 1,47,-1
 1060.77441406 309.370117188 l 2,0,1
EndSplineSet
Substitution2: "'fina' Terminal Forms in Arabic lookup 9 subtable" uniFEF0
Substitution2: "'medi' Medial Forms in Arabic lookup 11 subtable" uniFBE9
Substitution2: "'init' Initial Forms in Arabic lookup 13 subtable" uniFBE8
EndChar

StartChar: uni064B
Encoding: 1611 1611 46
Width: 0
VWidth: 2184
GlyphClass: 4
Flags: W
AnchorPoint: "Anchor-10" 544.872 1088.61 mark 0
AnchorPoint: "Anchor-9" 544.872 1088.61 mark 0
AnchorPoint: "Anchor-1" 544.872 1516.61 basemark 0
AnchorPoint: "Anchor-1" 544.872 1088.61 mark 0
LayerCount: 2
Fore
SplineSet
327.400390625 1049.80664062 m 1,0,-1
 327.400390625 1151.46289062 l 1,1,-1
 327.400390625 1156.83496094 l 1,2,-1
 332.372070312 1158.86816406 l 1,3,-1
 727.571289062 1320.46875 l 1,4,-1
 738.599609375 1324.97753906 l 1,5,-1
 738.599609375 1313.06347656 l 1,6,-1
 738.599609375 1211.40722656 l 1,7,-1
 738.599609375 1206.03515625 l 1,8,-1
 733.627929688 1204.00195312 l 1,9,-1
 338.428710938 1042.40136719 l 1,10,-1
 327.400390625 1037.89257812 l 1,11,-1
 327.400390625 1049.80664062 l 1,0,-1
327.400390625 1257.00683594 m 1,12,-1
 327.400390625 1358.66308594 l 1,13,-1
 327.400390625 1364.03515625 l 1,14,-1
 332.372070312 1366.06835938 l 1,15,-1
 727.571289062 1527.66894531 l 1,16,-1
 738.599609375 1532.17773438 l 1,17,-1
 738.599609375 1520.26367188 l 1,18,-1
 738.599609375 1418.60742188 l 1,19,-1
 738.599609375 1413.23535156 l 1,20,-1
 733.627929688 1411.20214844 l 1,21,-1
 338.428710938 1249.6015625 l 1,22,-1
 327.400390625 1245.09277344 l 1,23,-1
 327.400390625 1257.00683594 l 1,12,-1
EndSplineSet
EndChar

StartChar: uni064C
Encoding: 1612 1612 47
Width: 0
VWidth: 2184
GlyphClass: 4
Flags: W
AnchorPoint: "Anchor-10" 552.791 1209.53 mark 0
AnchorPoint: "Anchor-9" 552.791 1209.53 mark 0
AnchorPoint: "Anchor-1" 546.391 1733.93 basemark 0
AnchorPoint: "Anchor-1" 552.791 1209.53 mark 0
LayerCount: 2
Fore
SplineSet
557.486328125 1329.8984375 m 0,0,1
 573.50390625 1345.48339844 573.50390625 1345.48339844 586.012695312 1362.31835938 c 128,-1,2
 598.530273438 1379.16503906 598.530273438 1379.16503906 607.602539062 1397.31152344 c 2,3,-1
 608.990234375 1400.08691406 l 1,4,-1
 605.953125 1400.73046875 l 2,5,6
 603.653320312 1401.21777344 603.653320312 1401.21777344 601.404296875 1401.7421875 c 128,-1,7
 599.15625 1402.26757812 599.15625 1402.26757812 596.9609375 1402.828125 c 128,-1,8
 594.765625 1403.38964844 594.765625 1403.38964844 592.622070312 1403.98730469 c 128,-1,9
 590.478515625 1404.58496094 590.478515625 1404.58496094 588.387695312 1405.21972656 c 128,-1,10
 586.296875 1405.85351562 586.296875 1405.85351562 584.258789062 1406.52441406 c 128,-1,11
 582.220703125 1407.1953125 582.220703125 1407.1953125 580.234375 1407.90332031 c 0,12,13
 568.341796875 1412.13964844 568.341796875 1412.13964844 558.670898438 1417.60839844 c 0,14,15
 536.350585938 1429.38867188 536.350585938 1429.38867188 519.368164062 1443.26074219 c 0,16,17
 510.893554688 1450.18457031 510.893554688 1450.18457031 503.762695312 1457.61914062 c 128,-1,18
 496.630859375 1465.0546875 496.630859375 1465.0546875 490.838867188 1473.00195312 c 0,19,20
 479.28125 1488.859375 479.28125 1488.859375 473.375976562 1506.89648438 c 0,21,22
 472.194335938 1510.50195312 472.194335938 1510.50195312 471.25 1514.17773438 c 128,-1,23
 470.305664062 1517.85449219 470.305664062 1517.85449219 469.596679688 1521.60351562 c 128,-1,24
 468.888671875 1525.35351562 468.888671875 1525.35351562 468.416015625 1529.17480469 c 128,-1,25
 467.943359375 1532.99609375 467.943359375 1532.99609375 467.70703125 1536.89160156 c 128,-1,26
 467.470703125 1540.78710938 467.470703125 1540.78710938 467.470703125 1544.75683594 c 0,27,28
 467.470703125 1618.03320312 467.470703125 1618.03320312 525.57421875 1661.82128906 c 0,29,30
 548.903320312 1679.31738281 548.903320312 1679.31738281 602.03125 1679.31738281 c 0,31,32
 605.05859375 1679.31738281 605.05859375 1679.31738281 608.021484375 1679.23730469 c 128,-1,33
 610.983398438 1679.15625 610.983398438 1679.15625 613.87890625 1678.99609375 c 128,-1,34
 616.774414062 1678.8359375 616.774414062 1678.8359375 619.604492188 1678.59472656 c 128,-1,35
 622.434570312 1678.35449219 622.434570312 1678.35449219 625.197265625 1678.03417969 c 128,-1,36
 627.959960938 1677.71289062 627.959960938 1677.71289062 630.658203125 1677.3125 c 0,37,38
 644.12890625 1675.3125 644.12890625 1675.3125 656.0859375 1671.27636719 c 128,-1,39
 668.008789062 1667.25195312 668.008789062 1667.25195312 678.30859375 1661.06640625 c 128,-1,40
 688.59375 1654.88964844 688.59375 1654.88964844 697.065429688 1646.62988281 c 0,41,42
 720.278320312 1623.84179688 720.278320312 1623.84179688 731.858398438 1595.84277344 c 128,-1,43
 743.438476562 1567.84472656 743.438476562 1567.84472656 743.438476562 1534.48535156 c 0,44,45
 743.438476562 1530.81835938 743.438476562 1530.81835938 743.3125 1527.15917969 c 128,-1,46
 743.1875 1523.50097656 743.1875 1523.50097656 742.935546875 1519.8515625 c 128,-1,47
 742.684570312 1516.20117188 742.684570312 1516.20117188 742.306640625 1512.56054688 c 0,48,49
 741.17578125 1501.63671875 741.17578125 1501.63671875 738.91796875 1490.8203125 c 128,-1,50
 736.661132812 1480.00292969 736.661132812 1480.00292969 733.278320312 1469.29101562 c 2,51,-1
 732.34765625 1466.34179688 l 1,52,-1
 735.444335938 1466.17871094 l 2,53,54
 743.370117188 1465.75976562 743.370117188 1465.75976562 750.392578125 1465.54394531 c 128,-1,55
 757.416015625 1465.32910156 757.416015625 1465.32910156 763.541015625 1465.31738281 c 0,56,57
 767.477539062 1465.11621094 767.477539062 1465.11621094 771.107421875 1464.96875 c 128,-1,58
 774.737304688 1464.8203125 774.737304688 1464.8203125 778.482421875 1464.71289062 c 128,-1,59
 782.227539062 1464.60546875 782.227539062 1464.60546875 786.079101562 1464.54003906 c 2,60,-1
 793.942382812 1464.40527344 l 1,61,-1
 793.942382812 1456.54101562 l 1,62,-1
 793.942382812 1383.1328125 l 1,63,-1
 793.942382812 1375.08203125 l 1,64,-1
 785.891601562 1375.1328125 l 2,65,66
 753.841796875 1375.3359375 753.841796875 1375.3359375 739.200195312 1376.80371094 c 2,67,-1
 694.416015625 1381.109375 l 1,68,-1
 692.958007812 1381.25 l 1,69,-1
 692.383789062 1379.90332031 l 2,70,71
 687.959960938 1369.52148438 687.959960938 1369.52148438 681.865234375 1358.55273438 c 128,-1,72
 675.771484375 1347.58300781 675.771484375 1347.58300781 667.997070312 1336.01367188 c 128,-1,73
 660.221679688 1324.44433594 660.221679688 1324.44433594 650.783203125 1312.30175781 c 128,-1,74
 641.344726562 1300.16015625 641.344726562 1300.16015625 630.217773438 1287.421875 c 128,-1,75
 619.091796875 1274.68359375 619.091796875 1274.68359375 606.306640625 1261.38769531 c 0,76,77
 570.227539062 1224.88476562 570.227539062 1224.88476562 532.365234375 1206.68945312 c 128,-1,78
 494.50390625 1188.49316406 494.50390625 1188.49316406 454.807617188 1188.49316406 c 0,79,80
 341.307617188 1188.37402344 341.307617188 1188.37402344 311.262695312 1319.64355469 c 0,81,82
 305.353515625 1343.62988281 305.353515625 1343.62988281 302.265625 1373.53808594 c 128,-1,83
 299.173828125 1403.49023438 299.173828125 1403.49023438 298.876953125 1439.27441406 c 2,84,-1
 298.810546875 1447.34082031 l 1,85,-1
 306.876953125 1447.34082031 l 1,86,-1
 363.12109375 1447.34082031 l 1,87,-1
 371.05078125 1447.34082031 l 1,88,-1
 371.12109375 1439.41113281 l 2,89,90
 371.403320312 1407.36328125 371.403320312 1407.36328125 374.102539062 1383.15625 c 128,-1,91
 376.802734375 1358.94824219 376.802734375 1358.94824219 381.962890625 1342.43945312 c 0,92,93
 402.341796875 1277.24902344 402.341796875 1277.24902344 454.752929688 1277.85253906 c 0,94,95
 503.705078125 1277.85253906 503.705078125 1277.85253906 557.486328125 1329.8984375 c 0,0,1
640.905273438 1482.70898438 m 1,96,-1
 646.181640625 1495.02050781 l 2,97,98
 650.135742188 1504.24609375 650.135742188 1504.24609375 652.108398438 1514.08496094 c 0,99,100
 653.09375 1519.00195312 653.09375 1519.00195312 653.586914062 1524.10253906 c 128,-1,101
 654.079101562 1529.203125 654.079101562 1529.203125 654.079101562 1534.48535156 c 0,102,103
 654.079101562 1564.72460938 654.079101562 1564.72460938 638.651367188 1577.421875 c 0,104,105
 623.434570312 1589.95703125 623.434570312 1589.95703125 605.456054688 1589.95703125 c 0,106,107
 598.517578125 1589.95703125 598.517578125 1589.95703125 592.748046875 1588.96777344 c 0,108,109
 589.845703125 1588.46972656 589.845703125 1588.46972656 587.313476562 1587.77539062 c 128,-1,110
 584.782226562 1587.08105469 584.782226562 1587.08105469 582.608398438 1586.1796875 c 0,111,112
 578.251953125 1584.37402344 578.251953125 1584.37402344 574.83984375 1581.72753906 c 0,113,114
 570.748046875 1578.6484375 570.748046875 1578.6484375 567.733398438 1574.96484375 c 0,115,116
 566.21875 1573.11425781 566.21875 1573.11425781 564.942382812 1571.04394531 c 128,-1,117
 563.665039062 1568.97460938 563.665039062 1568.97460938 562.627929688 1566.69238281 c 0,118,119
 561.935546875 1565.16796875 561.935546875 1565.16796875 561.361328125 1563.5390625 c 128,-1,120
 560.787109375 1561.90917969 560.787109375 1561.90917969 560.333984375 1560.18945312 c 128,-1,121
 559.880859375 1558.46875 559.880859375 1558.46875 559.543945312 1556.64648438 c 0,122,123
 558.54296875 1551.21972656 558.54296875 1551.21972656 558.54296875 1544.75683594 c 0,124,125
 558.54296875 1541.06152344 558.54296875 1541.06152344 558.9921875 1537.60449219 c 128,-1,126
 559.442382812 1534.14746094 559.442382812 1534.14746094 560.348632812 1530.91308594 c 128,-1,127
 561.255859375 1527.67871094 561.255859375 1527.67871094 562.618164062 1524.69921875 c 0,128,129
 566.703125 1515.7578125 566.703125 1515.7578125 575.703125 1508.35253906 c 128,-1,130
 584.5859375 1501.04296875 584.5859375 1501.04296875 598.571289062 1495.44824219 c 0,131,132
 607.14453125 1492.01953125 607.14453125 1492.01953125 617.166015625 1488.53808594 c 128,-1,133
 627.180664062 1485.05957031 627.180664062 1485.05957031 638.478515625 1481.58496094 c 2,134,-1
 640.196289062 1481.05664062 l 1,135,-1
 640.905273438 1482.70898438 l 1,96,-1
EndSplineSet
EndChar

StartChar: uni064D
Encoding: 1613 1613 48
Width: 0
VWidth: 2184
GlyphClass: 4
Flags: W
AnchorPoint: "Anchor-7" 533.072 17.8066 mark 0
AnchorPoint: "Anchor-6" 533.072 17.8066 mark 0
AnchorPoint: "Anchor-0" 545.872 -394.193 basemark 0
AnchorPoint: "Anchor-0" 533.072 17.8066 mark 0
LayerCount: 2
Fore
SplineSet
332.400390625 -440.193359375 m 1,0,-1
 332.400390625 -338.537109375 l 1,1,-1
 332.400390625 -333.165039062 l 1,2,-1
 337.372070312 -331.131835938 l 1,3,-1
 732.571289062 -169.53125 l 1,4,-1
 743.599609375 -165.022460938 l 1,5,-1
 743.599609375 -176.936523438 l 1,6,-1
 743.599609375 -278.592773438 l 1,7,-1
 743.599609375 -283.96484375 l 1,8,-1
 738.627929688 -285.998046875 l 1,9,-1
 343.428710938 -447.598632812 l 1,10,-1
 332.400390625 -452.107421875 l 1,11,-1
 332.400390625 -440.193359375 l 1,0,-1
332.400390625 -232.993164062 m 1,12,-1
 332.400390625 -131.336914062 l 1,13,-1
 332.400390625 -125.96484375 l 1,14,-1
 337.372070312 -123.931640625 l 1,15,-1
 732.571289062 37.6689453125 l 1,16,-1
 743.599609375 42.177734375 l 1,17,-1
 743.599609375 30.263671875 l 1,18,-1
 743.599609375 -71.392578125 l 1,19,-1
 743.599609375 -76.7646484375 l 1,20,-1
 738.627929688 -78.7978515625 l 1,21,-1
 343.428710938 -240.3984375 l 1,22,-1
 332.400390625 -244.907226562 l 1,23,-1
 332.400390625 -232.993164062 l 1,12,-1
EndSplineSet
EndChar

StartChar: uni064E
Encoding: 1614 1614 49
Width: 0
VWidth: 2184
GlyphClass: 4
Flags: W
AnchorPoint: "Anchor-10" 515.072 1304.71 mark 0
AnchorPoint: "Anchor-9" 515.072 1304.71 mark 0
AnchorPoint: "Anchor-1" 515.072 1561.51 basemark 0
AnchorPoint: "Anchor-1" 515.072 1304.71 mark 0
LayerCount: 2
Fore
SplineSet
298.400390625 1281.90722656 m 1,0,-1
 298.400390625 1383.56347656 l 1,1,-1
 298.400390625 1388.93554688 l 1,2,-1
 303.372070312 1390.96875 l 1,3,-1
 698.571289062 1552.56835938 l 1,4,-1
 709.599609375 1557.07714844 l 1,5,-1
 709.599609375 1545.16308594 l 1,6,-1
 709.599609375 1443.50683594 l 1,7,-1
 709.599609375 1438.13476562 l 1,8,-1
 704.627929688 1436.1015625 l 1,9,-1
 309.428710938 1274.50195312 l 1,10,-1
 298.400390625 1269.99316406 l 1,11,-1
 298.400390625 1281.90722656 l 1,0,-1
EndSplineSet
EndChar

StartChar: uni064F
Encoding: 1615 1615 50
Width: 0
VWidth: 2184
GlyphClass: 4
Flags: W
AnchorPoint: "Anchor-10" 535.04 1252.31 mark 0
AnchorPoint: "Anchor-9" 535.04 1252.31 mark 0
AnchorPoint: "Anchor-1" 547.84 1747.91 basemark 0
AnchorPoint: "Anchor-1" 535.04 1252.31 mark 0
LayerCount: 2
Fore
SplineSet
560.61328125 1431.3515625 m 0,0,1
 545.50390625 1437.81347656 545.50390625 1437.81347656 532.84765625 1445.70507812 c 128,-1,2
 520.19140625 1453.59765625 520.19140625 1453.59765625 510.013671875 1462.88769531 c 128,-1,3
 499.834960938 1472.17773438 499.834960938 1472.17773438 492.081054688 1482.89550781 c 0,4,5
 468.83984375 1515.01660156 468.83984375 1515.01660156 468.919921875 1558.73339844 c 0,6,7
 468.919921875 1632.00976562 468.919921875 1632.00976562 527.0234375 1675.79785156 c 0,8,9
 539.159179688 1684.8984375 539.159179688 1684.8984375 558.016601562 1689.07226562 c 0,10,11
 564.354492188 1690.47558594 564.354492188 1690.47558594 571.51171875 1691.41308594 c 128,-1,12
 578.668945312 1692.35058594 578.668945312 1692.35058594 586.669921875 1692.82128906 c 128,-1,13
 594.670898438 1693.29296875 594.670898438 1693.29296875 603.48046875 1693.29296875 c 0,14,15
 623.680664062 1693.29296875 623.680664062 1693.29296875 640.940429688 1689.74902344 c 0,16,17
 649.546875 1687.98144531 649.546875 1687.98144531 657.487304688 1685.26855469 c 128,-1,18
 665.426757812 1682.55664062 665.426757812 1682.55664062 672.708984375 1678.8984375 c 128,-1,19
 679.974609375 1675.24902344 679.974609375 1675.24902344 686.426757812 1670.67480469 c 128,-1,20
 692.879882812 1666.09960938 692.879882812 1666.09960938 698.514648438 1660.60546875 c 0,21,22
 721.583984375 1637.95800781 721.583984375 1637.95800781 733.233398438 1609.76074219 c 128,-1,23
 744.887695312 1581.55175781 744.887695312 1581.55175781 744.887695312 1548.4609375 c 2,24,-1
 743.544921875 1528.96972656 l 2,25,26
 743.096679688 1525.51757812 743.096679688 1525.51757812 742.506835938 1521.95800781 c 128,-1,27
 741.916992188 1518.3984375 741.916992188 1518.3984375 741.185546875 1514.72753906 c 128,-1,28
 740.453125 1511.05761719 740.453125 1511.05761719 739.579101562 1507.28027344 c 0,29,30
 736.954101562 1495.93164062 736.954101562 1495.93164062 733.012695312 1483.25878906 c 2,31,-1
 732.1015625 1480.33105469 l 1,32,-1
 735.162109375 1480.15136719 l 2,33,34
 749.754882812 1479.29492188 749.754882812 1479.29492188 765.197265625 1478.86621094 c 0,35,36
 775.5 1478.58007812 775.5 1478.58007812 787.4609375 1478.4765625 c 2,37,-1
 795.391601562 1478.40722656 l 1,38,-1
 795.391601562 1470.4765625 l 1,39,-1
 795.391601562 1397.1328125 l 1,40,-1
 795.391601562 1389.04785156 l 1,41,-1
 787.306640625 1389.1328125 l 2,42,43
 775.08984375 1389.26269531 775.08984375 1389.26269531 763.436523438 1389.67382812 c 128,-1,44
 751.784179688 1390.08496094 751.784179688 1390.08496094 740.620117188 1390.78125 c 0,45,46
 714.952148438 1392.49707031 714.952148438 1392.49707031 691.053710938 1395.05761719 c 2,47,-1
 689.645507812 1395.20800781 l 1,48,-1
 688.831054688 1394.05175781 l 2,49,50
 652.307617188 1342.23632812 652.307617188 1342.23632812 593.642578125 1306.53027344 c 0,51,52
 512.086914062 1256.37988281 512.086914062 1256.37988281 440.802734375 1230.20703125 c 128,-1,53
 369.518554688 1204.03417969 369.518554688 1204.03417969 308.581054688 1201.80175781 c 2,54,-1
 300.288085938 1201.49804688 l 1,55,-1
 300.288085938 1209.796875 l 1,56,-1
 300.288085938 1283.1171875 l 1,57,-1
 300.288085938 1290.88867188 l 1,58,-1
 308.056640625 1291.11425781 l 2,59,60
 370.845703125 1292.93164062 370.845703125 1292.93164062 430.890625 1316.29492188 c 0,61,62
 460.896484375 1327.97070312 460.896484375 1327.97070312 490.291015625 1345.09570312 c 128,-1,63
 519.685546875 1362.22070312 519.685546875 1362.22070312 548.461914062 1384.78515625 c 0,64,65
 568.288085938 1400.30273438 568.288085938 1400.30273438 584.673828125 1417.54589844 c 2,66,-1
 585.873046875 1418.80859375 l 1,67,-1
 588.053710938 1421.10449219 l 1,68,-1
 585.04296875 1422.08691406 l 2,69,70
 578.961914062 1424.0703125 578.961914062 1424.0703125 573.127929688 1426.28710938 c 128,-1,71
 567.291992188 1428.50390625 567.291992188 1428.50390625 560.61328125 1431.3515625 c 0,0,1
642.354492188 1496.68457031 m 1,72,-1
 647.630859375 1508.99609375 l 2,73,74
 655.528320312 1527.42285156 655.528320312 1527.42285156 655.528320312 1548.4609375 c 0,75,76
 654.806640625 1578.59570312 654.806640625 1578.59570312 640.1015625 1591.3984375 c 0,77,78
 632.529296875 1597.63574219 632.529296875 1597.63574219 624.20703125 1600.78417969 c 128,-1,79
 615.883789062 1603.93261719 615.883789062 1603.93261719 606.904296875 1603.93261719 c 0,80,81
 604.853515625 1603.93261719 604.853515625 1603.93261719 602.916992188 1603.85058594 c 128,-1,82
 600.98046875 1603.76855469 600.98046875 1603.76855469 599.142578125 1603.60253906 c 128,-1,83
 597.3046875 1603.43652344 597.3046875 1603.43652344 595.579101562 1603.18652344 c 128,-1,84
 593.853515625 1602.93652344 593.853515625 1602.93652344 592.228515625 1602.59960938 c 128,-1,85
 590.602539062 1602.26367188 590.602539062 1602.26367188 589.086914062 1601.84082031 c 0,86,87
 581.46484375 1599.71777344 581.46484375 1599.71777344 576.2890625 1595.703125 c 2,88,-1
 569.182617188 1588.94042969 l 1,89,-1
 564.077148438 1580.66796875 l 2,90,91
 562.005859375 1576.109375 562.005859375 1576.109375 560.993164062 1570.62207031 c 128,-1,92
 559.9921875 1565.19628906 559.9921875 1565.19628906 559.9921875 1558.73339844 c 0,93,94
 560.389648438 1547.25390625 560.389648438 1547.25390625 564.067382812 1538.67578125 c 0,95,96
 568.15234375 1529.734375 568.15234375 1529.734375 577.15234375 1522.32910156 c 0,97,98
 580.129882812 1519.87890625 580.129882812 1519.87890625 583.673828125 1517.625 c 128,-1,99
 587.217773438 1515.37207031 587.217773438 1515.37207031 591.294921875 1513.328125 c 128,-1,100
 595.373046875 1511.28417969 595.373046875 1511.28417969 600.020507812 1509.42480469 c 0,101,102
 604.306640625 1507.7109375 604.306640625 1507.7109375 608.959960938 1505.98144531 c 128,-1,103
 613.612304688 1504.25292969 613.612304688 1504.25292969 618.607421875 1502.51757812 c 128,-1,104
 623.602539062 1500.78222656 623.602539062 1500.78222656 628.940429688 1499.04003906 c 128,-1,105
 634.279296875 1497.29882812 634.279296875 1497.29882812 639.928710938 1495.56152344 c 2,106,-1
 641.646484375 1495.03320312 l 1,107,-1
 642.354492188 1496.68457031 l 1,72,-1
EndSplineSet
EndChar

StartChar: uni0650
Encoding: 1616 1616 51
Width: 0
VWidth: 2184
GlyphClass: 4
Flags: W
AnchorPoint: "Anchor-7" 517.472 -47.6934 mark 0
AnchorPoint: "Anchor-6" 517.472 -47.6934 mark 0
AnchorPoint: "Anchor-0" 555.072 -286.893 basemark 0
AnchorPoint: "Anchor-0" 517.472 -47.6934 mark 0
LayerCount: 2
Fore
SplineSet
342.400390625 -312.092773438 m 1,0,-1
 342.400390625 -210.436523438 l 1,1,-1
 342.400390625 -205.064453125 l 1,2,-1
 347.372070312 -203.03125 l 1,3,-1
 742.572265625 -41.431640625 l 1,4,-1
 753.599609375 -36.9228515625 l 1,5,-1
 753.599609375 -48.8369140625 l 1,6,-1
 753.599609375 -150.493164062 l 1,7,-1
 753.599609375 -155.865234375 l 1,8,-1
 748.627929688 -157.8984375 l 1,9,-1
 353.428710938 -319.498046875 l 1,10,-1
 342.400390625 -324.006835938 l 1,11,-1
 342.400390625 -312.092773438 l 1,0,-1
EndSplineSet
EndChar

StartChar: uni0651
Encoding: 1617 1617 52
Width: 0
VWidth: 2184
GlyphClass: 4
Flags: W
AnchorPoint: "Anchor-10" 548.269 1353.65 mark 0
AnchorPoint: "Anchor-9" 548.269 1353.65 mark 0
AnchorPoint: "Anchor-1" 538.668 1755.25 basemark 0
AnchorPoint: "Anchor-1" 548.269 1353.65 mark 0
LayerCount: 2
Fore
SplineSet
437.064453125 1323.9609375 m 0,0,1
 401.298828125 1323.9609375 401.298828125 1323.9609375 374.392578125 1334.3125 c 128,-1,2
 347.374023438 1344.70703125 347.374023438 1344.70703125 329.342773438 1365.01757812 c 128,-1,3
 311.276367188 1385.36914062 311.276367188 1385.36914062 301.961914062 1415.484375 c 128,-1,4
 292.607421875 1445.72851562 292.607421875 1445.72851562 292.396484375 1485.24121094 c 2,5,-1
 291.752929688 1605.65429688 l 1,6,-1
 291.709960938 1613.69726562 l 1,7,-1
 299.752929688 1613.69726562 l 1,8,-1
 370.541992188 1613.69726562 l 1,9,-1
 378.465820312 1613.69726562 l 1,10,-1
 378.541992188 1605.77441406 l 1,11,-1
 379.708007812 1484.48046875 l 2,12,13
 379.78125 1477.12695312 379.78125 1477.12695312 380.676757812 1470.75195312 c 128,-1,14
 381.572265625 1464.37695312 381.572265625 1464.37695312 383.306640625 1458.92089844 c 128,-1,15
 385.041992188 1453.46484375 385.041992188 1453.46484375 387.655273438 1448.97460938 c 128,-1,16
 390.268554688 1444.484375 390.268554688 1444.484375 393.748046875 1441 c 0,17,18
 407.490234375 1427.23535156 407.490234375 1427.23535156 437.147460938 1426.92089844 c 0,19,20
 469.905273438 1426.88964844 469.905273438 1426.88964844 486.252929688 1448.20019531 c 0,21,22
 502.403320312 1469.25488281 502.403320312 1469.25488281 503.010742188 1515.43847656 c 2,23,-1
 504.76953125 1649.21875 l 1,24,-1
 504.873046875 1657.11328125 l 1,25,-1
 512.768554688 1657.11328125 l 1,26,-1
 582.78515625 1657.11328125 l 1,27,-1
 590.666992188 1657.11328125 l 1,28,-1
 590.784179688 1649.23242188 l 1,29,-1
 592.666992188 1522.68359375 l 2,30,31
 593.231445312 1493.61914062 593.231445312 1493.61914062 609.965820312 1479.79101562 c 128,-1,32
 626.548828125 1466.08886719 626.548828125 1466.08886719 662.681640625 1466.12109375 c 0,33,34
 714.924804688 1466.0625 714.924804688 1466.0625 716.029296875 1555.84472656 c 2,35,-1
 717.663085938 1688.62695312 l 1,36,-1
 717.759765625 1696.52832031 l 1,37,-1
 725.662109375 1696.52832031 l 1,38,-1
 800.211914062 1696.52832031 l 1,39,-1
 808.314453125 1696.52832031 l 1,40,-1
 808.2109375 1688.42675781 l 1,41,-1
 806.5390625 1557.00195312 l 2,42,43
 806.166015625 1525.64746094 806.166015625 1525.64746094 801.889648438 1499.27441406 c 128,-1,44
 797.614257812 1472.90136719 797.614257812 1472.90136719 789.493164062 1451.62792969 c 128,-1,45
 781.373046875 1430.35351562 781.373046875 1430.35351562 769.407226562 1414.05371094 c 0,46,47
 733.61328125 1365.296875 733.61328125 1365.296875 663.612304688 1365.35546875 c 0,48,49
 597.1328125 1365.26660156 597.1328125 1365.26660156 561.256835938 1400.10644531 c 2,50,-1
 559.078125 1402.22167969 l 1,51,-1
 557.995117188 1399.38476562 l 2,52,53
 529.360351562 1324.4140625 529.360351562 1324.4140625 437.064453125 1323.9609375 c 0,0,1
EndSplineSet
EndChar

StartChar: uni0652
Encoding: 1618 1618 53
Width: 0
VWidth: 2184
GlyphClass: 4
Flags: W
AnchorPoint: "Anchor-10" 566.159 1177.48 mark 0
AnchorPoint: "Anchor-9" 566.159 1177.48 mark 0
AnchorPoint: "Anchor-1" 554.959 1636.28 basemark 0
AnchorPoint: "Anchor-1" 566.159 1177.48 mark 0
LayerCount: 2
Fore
SplineSet
655.276367188 1382.35546875 m 0,0,1
 655.276367188 1391.5859375 655.276367188 1391.5859375 653.65625 1400.14746094 c 128,-1,2
 652.03515625 1408.70898438 652.03515625 1408.70898438 648.802734375 1416.57421875 c 128,-1,3
 645.5703125 1424.43945312 645.5703125 1424.43945312 640.724609375 1431.60839844 c 128,-1,4
 635.87890625 1438.77734375 635.87890625 1438.77734375 629.43359375 1445.22265625 c 0,5,6
 620.838867188 1453.81835938 620.838867188 1453.81835938 610.89453125 1459.56445312 c 128,-1,7
 600.950195312 1465.31054688 600.950195312 1465.31054688 589.705078125 1468.18652344 c 128,-1,8
 578.459960938 1471.0625 578.459960938 1471.0625 565.948242188 1471.0625 c 0,9,10
 563.15625 1471.0625 563.15625 1471.0625 560.439453125 1470.93066406 c 128,-1,11
 557.721679688 1470.79882812 557.721679688 1470.79882812 555.079101562 1470.53515625 c 0,12,13
 549.83203125 1470.01171875 549.83203125 1470.01171875 544.875 1468.96777344 c 0,14,15
 542.408203125 1468.44824219 542.408203125 1468.44824219 540.01171875 1467.79785156 c 128,-1,16
 537.615234375 1467.1484375 537.615234375 1467.1484375 535.291992188 1466.37109375 c 0,17,-1
 535.180664062 1466.33007812 l 1,18,-1
 526.383789062 1462.79589844 l 1,19,-1
 526.274414062 1462.74804688 l 2,20,21
 524.817382812 1462.05957031 524.817382812 1462.05957031 523.388671875 1461.3125 c 128,-1,22
 521.959960938 1460.56542969 521.959960938 1460.56542969 520.556640625 1459.75976562 c 128,-1,23
 519.154296875 1458.953125 519.154296875 1458.953125 517.778320312 1458.08789062 c 0,24,25
 515.709960938 1456.78808594 515.709960938 1456.78808594 513.701171875 1455.35644531 c 0,26,27
 512.696289062 1454.640625 512.696289062 1454.640625 511.708007812 1453.89160156 c 128,-1,28
 510.719726562 1453.14355469 510.719726562 1453.14355469 509.74609375 1452.36230469 c 0,29,30
 505.833984375 1449.22070312 505.833984375 1449.22070312 502.1484375 1445.53710938 c 0,31,32
 499.9921875 1443.38085938 499.9921875 1443.38085938 498.0234375 1441.15136719 c 128,-1,33
 496.053710938 1438.92285156 496.053710938 1438.92285156 494.271484375 1436.62109375 c 0,34,35
 490.703125 1432.01367188 490.703125 1432.01367188 487.89453125 1427.14648438 c 128,-1,36
 485.083984375 1422.27636719 485.083984375 1422.27636719 482.975585938 1417.07421875 c 0,37,38
 479.795898438 1409.22851562 479.795898438 1409.22851562 478.208007812 1400.54394531 c 128,-1,39
 476.62109375 1391.859375 476.62109375 1391.859375 476.62109375 1382.35546875 c 0,40,41
 476.62109375 1363.27539062 476.62109375 1363.27539062 483.012695312 1347.28808594 c 128,-1,42
 489.404296875 1331.30175781 489.404296875 1331.30175781 502.147460938 1318.55761719 c 0,43,44
 504.28515625 1316.41992188 504.28515625 1316.41992188 506.498046875 1314.46582031 c 128,-1,45
 508.711914062 1312.51074219 508.711914062 1312.51074219 511.000976562 1310.73925781 c 0,46,47
 515.584960938 1307.19140625 515.584960938 1307.19140625 520.528320312 1304.34570312 c 128,-1,48
 525.475585938 1301.49804688 525.475585938 1301.49804688 530.766601562 1299.37695312 c 128,-1,49
 536.053710938 1297.2578125 536.053710938 1297.2578125 541.729492188 1295.84277344 c 128,-1,50
 547.3984375 1294.4296875 547.3984375 1294.4296875 553.451171875 1293.72851562 c 128,-1,51
 559.490234375 1293.02929688 559.490234375 1293.02929688 565.948242188 1293.02929688 c 0,52,53
 569.14453125 1293.02929688 569.14453125 1293.02929688 572.244140625 1293.20996094 c 128,-1,54
 575.34375 1293.38964844 575.34375 1293.38964844 578.346679688 1293.75097656 c 0,55,56
 584.359375 1294.47363281 584.359375 1294.47363281 589.921875 1295.89648438 c 128,-1,57
 595.489257812 1297.3203125 595.489257812 1297.3203125 600.720703125 1299.45410156 c 0,58,59
 604.640625 1301.05273438 604.640625 1301.05273438 608.376953125 1303.05175781 c 128,-1,60
 612.114257812 1305.05078125 612.114257812 1305.05078125 615.702148438 1307.47167969 c 128,-1,61
 619.291015625 1309.89257812 619.291015625 1309.89257812 622.724609375 1312.74316406 c 0,62,63
 624.440429688 1314.16796875 624.440429688 1314.16796875 626.118164062 1315.70019531 c 128,-1,64
 627.795898438 1317.23242188 627.795898438 1317.23242188 629.434570312 1318.87207031 c 0,65,66
 632.680664062 1322.11816406 632.680664062 1322.11816406 635.517578125 1325.53515625 c 128,-1,67
 638.35546875 1328.95214844 638.35546875 1328.95214844 640.784179688 1332.54199219 c 128,-1,68
 643.213867188 1336.13183594 643.213867188 1336.13183594 645.232421875 1339.89453125 c 128,-1,69
 647.25 1343.65820312 647.25 1343.65820312 648.853515625 1347.58691406 c 0,70,71
 649.494140625 1349.15917969 649.494140625 1349.15917969 650.072265625 1350.76464844 c 128,-1,72
 650.649414062 1352.37011719 650.649414062 1352.37011719 651.163085938 1354.0078125 c 128,-1,73
 651.676757812 1355.64453125 651.676757812 1355.64453125 652.125976562 1357.31445312 c 128,-1,74
 652.576171875 1358.984375 652.576171875 1358.984375 652.961914062 1360.68652344 c 128,-1,75
 653.34765625 1362.38769531 653.34765625 1362.38769531 653.668945312 1364.12207031 c 0,76,77
 654.205078125 1367.01074219 654.205078125 1367.01074219 654.5625 1370.00195312 c 128,-1,78
 654.919921875 1372.99414062 654.919921875 1372.99414062 655.098632812 1376.08105469 c 128,-1,79
 655.276367188 1379.16699219 655.276367188 1379.16699219 655.276367188 1382.35546875 c 0,0,1
752.818359375 1382.45996094 m 0,80,81
 752.818359375 1343.27832031 752.818359375 1343.27832031 739.297851562 1310.12597656 c 128,-1,82
 725.776367188 1276.97363281 725.776367188 1276.97363281 698.682617188 1249.70507812 c 0,83,84
 685.233398438 1236.17285156 685.233398438 1236.17285156 670.14453125 1225.94238281 c 0,85,86
 662.604492188 1220.83007812 662.604492188 1220.83007812 654.677734375 1216.56542969 c 128,-1,87
 646.750976562 1212.30078125 646.750976562 1212.30078125 638.43359375 1208.88183594 c 0,88,89
 605.1953125 1195.21972656 605.1953125 1195.21972656 566.2421875 1195.21972656 c 0,90,91
 561.392578125 1195.21972656 561.392578125 1195.21972656 556.62890625 1195.43164062 c 0,92,93
 555.041015625 1195.50292969 555.041015625 1195.50292969 553.461914062 1195.59667969 c 128,-1,94
 551.8828125 1195.69140625 551.8828125 1195.69140625 550.3125 1195.80957031 c 128,-1,95
 548.7421875 1195.92773438 548.7421875 1195.92773438 547.180664062 1196.06933594 c 0,96,97
 537.799804688 1196.92285156 537.799804688 1196.92285156 528.780273438 1198.625 c 0,98,99
 524.264648438 1199.47851562 524.264648438 1199.47851562 519.833984375 1200.546875 c 0,100,101
 517.618164062 1201.08007812 517.618164062 1201.08007812 515.426757812 1201.66796875 c 128,-1,102
 513.234375 1202.25488281 513.234375 1202.25488281 511.064453125 1202.89550781 c 128,-1,103
 508.893554688 1203.53613281 508.893554688 1203.53613281 506.744140625 1204.23144531 c 128,-1,104
 504.595703125 1204.92578125 504.595703125 1204.92578125 502.470703125 1205.67285156 c 128,-1,105
 500.344726562 1206.42089844 500.344726562 1206.42089844 498.2421875 1207.22265625 c 128,-1,106
 496.140625 1208.0234375 496.140625 1208.0234375 494.0625 1208.87792969 c 0,107,108
 485.747070312 1212.29492188 485.747070312 1212.29492188 477.805664062 1216.56640625 c 128,-1,109
 469.874023438 1220.83496094 469.874023438 1220.83496094 462.330078125 1225.94726562 c 0,110,111
 458.563476562 1228.50097656 458.563476562 1228.50097656 454.895507812 1231.26464844 c 128,-1,112
 451.2265625 1234.02832031 451.2265625 1234.02832031 447.657226562 1237.00097656 c 128,-1,113
 444.091796875 1239.97167969 444.091796875 1239.97167969 440.62890625 1243.14746094 c 128,-1,114
 437.166015625 1246.32324219 437.166015625 1246.32324219 433.803710938 1249.70605469 c 0,115,116
 406.829101562 1276.85351562 406.829101562 1276.85351562 393.2421875 1310.19921875 c 128,-1,117
 379.666992188 1343.51171875 379.666992188 1343.51171875 379.666992188 1382.45996094 c 0,118,119
 379.666992188 1385.69042969 379.666992188 1385.69042969 379.760742188 1388.88183594 c 128,-1,120
 379.854492188 1392.07421875 379.854492188 1392.07421875 380.041992188 1395.23242188 c 128,-1,121
 380.229492188 1398.38964844 380.229492188 1398.38964844 380.51171875 1401.51269531 c 1,122,-1
 381.168945312 1407.72070312 l 2,123,124
 381.670898438 1411.83691406 381.670898438 1411.83691406 382.33984375 1415.88183594 c 128,-1,125
 383.008789062 1419.92675781 383.008789062 1419.92675781 383.846679688 1423.90722656 c 128,-1,126
 384.68359375 1427.88867188 384.68359375 1427.88867188 385.688476562 1431.796875 c 0,127,128
 388.706054688 1443.53417969 388.706054688 1443.53417969 393.236328125 1454.62304688 c 128,-1,129
 397.767578125 1465.71484375 397.767578125 1465.71484375 403.796875 1476.12304688 c 0,130,131
 406.809570312 1481.32324219 406.809570312 1481.32324219 410.1953125 1486.34960938 c 128,-1,132
 413.581054688 1491.37695312 413.581054688 1491.37695312 417.338867188 1496.23046875 c 0,133,134
 424.837890625 1505.91210938 424.837890625 1505.91210938 433.8125 1514.890625 c 0,135,136
 487.95703125 1569.03613281 487.95703125 1569.03613281 566.2421875 1569.03613281 c 128,-1,137
 644.528320312 1569.03613281 644.528320312 1569.03613281 698.673828125 1514.88964844 c 0,138,139
 712.125 1501.43554688 712.125 1501.43554688 722.291015625 1486.34570312 c 128,-1,140
 732.44921875 1471.26660156 732.44921875 1471.26660156 739.244140625 1454.63574219 c 0,141,142
 740.943359375 1450.47363281 740.943359375 1450.47363281 742.431640625 1446.21777344 c 128,-1,143
 743.919921875 1441.9609375 743.919921875 1441.9609375 745.19140625 1437.62207031 c 128,-1,144
 746.463867188 1433.28222656 746.463867188 1433.28222656 747.525390625 1428.85253906 c 128,-1,145
 748.5859375 1424.42285156 748.5859375 1424.42285156 749.432617188 1419.90917969 c 128,-1,146
 750.279296875 1415.39550781 750.279296875 1415.39550781 750.915039062 1410.796875 c 128,-1,147
 751.549804688 1406.19824219 751.549804688 1406.19824219 751.97265625 1401.515625 c 128,-1,148
 752.395507812 1396.83203125 752.395507812 1396.83203125 752.607421875 1392.06933594 c 128,-1,149
 752.818359375 1387.30664062 752.818359375 1387.30664062 752.818359375 1382.45996094 c 0,80,81
EndSplineSet
EndChar

StartChar: uni0653
Encoding: 1619 1619 54
Width: 11
VWidth: 2551
GlyphClass: 4
Flags: W
AnchorPoint: "Anchor-10" 397.919 1465.33 mark 0
AnchorPoint: "Anchor-9" 397.919 1465.33 mark 0
AnchorPoint: "Anchor-1" 392.604 1781.32 basemark 0
AnchorPoint: "Anchor-1" 397.919 1465.33 mark 0
LayerCount: 2
Fore
SplineSet
318.891601562 1724.04980469 m 2,0,-1
 702.453125 1724.04980469 l 1,1,-1
 720.323242188 1724.04980469 l 1,2,-1
 720.453125 1706.18066406 l 1,3,-1
 721.666015625 1538.98046875 l 1,4,-1
 721.796875 1520.84960938 l 1,5,-1
 703.666015625 1520.84960938 l 1,6,-1
 328.95703125 1520.84960938 l 2,7,8
 282.822265625 1520.91796875 282.822265625 1520.91796875 248.354492188 1506.24511719 c 128,-1,9
 213.885742188 1491.57128906 213.885742188 1491.57128906 191.306640625 1462.14648438 c 2,10,-1
 175.2109375 1441.17089844 l 1,11,-1
 161.801757812 1423.69628906 l 1,12,-1
 147.34765625 1440.31738281 l 1,13,-1
 47.2685546875 1555.40625 l 1,14,-1
 38.3203125 1565.69726562 l 1,15,-1
 45.8046875 1577.09667969 l 1,16,-1
 54.9619140625 1591.04394531 l 2,17,18
 98.4033203125 1657.18554688 98.4033203125 1657.18554688 164.989257812 1690.60351562 c 0,19,20
 198.299804688 1707.32128906 198.299804688 1707.32128906 236.767578125 1715.68554688 c 128,-1,21
 275.235351562 1724.04980469 275.235351562 1724.04980469 318.891601562 1724.04980469 c 2,0,-1
EndSplineSet
EndChar

StartChar: uni0657
Encoding: 1623 1623 57
Width: 11
VWidth: 2551
GlyphClass: 4
Flags: W
AnchorPoint: "Anchor-10" 648 1575.87 mark 0
AnchorPoint: "Anchor-9" 648 1575.87 mark 0
AnchorPoint: "Anchor-1" 648 2228.92 basemark 0
AnchorPoint: "Anchor-1" 648 1575.87 mark 0
LayerCount: 2
Fore
SplineSet
375.703125 1985.13085938 m 1,0,-1
 485.008789062 1977.50195312 l 1,1,-1
 486.114257812 1977.42480469 l 1,2,-1
 486.765625 1978.32226562 l 2,3,4
 534.696289062 2044.3203125 534.696289062 2044.3203125 599.318359375 2083.65136719 c 0,5,6
 644.692382812 2111.55273438 644.692382812 2111.55273438 687.463867188 2133.07421875 c 128,-1,7
 730.235351562 2154.59570312 730.235351562 2154.59570312 770.359375 2169.71875 c 128,-1,8
 810.482421875 2184.84179688 810.482421875 2184.84179688 847.966796875 2193.59082031 c 128,-1,9
 885.451171875 2202.33886719 885.451171875 2202.33886719 920.30859375 2204.71875 c 2,10,-1
 928.853515625 2205.30175781 l 1,11,-1
 928.853515625 2196.73730469 l 1,12,-1
 928.853515625 2127.40039062 l 1,13,-1
 928.853515625 2119.82910156 l 1,14,-1
 921.293945312 2119.41210938 l 2,15,16
 773.35546875 2111.25878906 773.35546875 2111.25878906 641.291992188 2007.70410156 c 0,17,18
 629.373046875 1998.375 629.373046875 1998.375 618.483398438 1988.52148438 c 0,19,20
 613.038085938 1983.59375 613.038085938 1983.59375 607.850585938 1978.53710938 c 128,-1,21
 602.6640625 1973.48046875 602.6640625 1973.48046875 597.734375 1968.29296875 c 2,22,-1
 584.93359375 1954.81738281 l 1,23,-1
 582.5 1952.25488281 l 1,24,-1
 585.94921875 1951.48828125 l 1,25,-1
 604.08984375 1947.45214844 l 2,26,27
 607.56640625 1946.68066406 607.56640625 1946.68066406 618.106445312 1941.77929688 c 128,-1,28
 628.646484375 1936.87792969 628.646484375 1936.87792969 645.245117188 1928.23828125 c 0,29,30
 662.489257812 1919.26171875 662.489257812 1919.26171875 677.453125 1906.07324219 c 128,-1,31
 692.416992188 1892.88378906 692.416992188 1892.88378906 705.120117188 1875.45019531 c 0,32,33
 718.041015625 1857.71777344 718.041015625 1857.71777344 724.485351562 1838.20703125 c 128,-1,34
 730.9296875 1818.69628906 730.9296875 1818.69628906 730.9296875 1797.32324219 c 0,35,36
 730.9296875 1755.34667969 730.9296875 1755.34667969 718.661132812 1730.61035156 c 0,37,38
 677.525390625 1647.66992188 677.525390625 1647.66992188 577.603515625 1647.66992188 c 0,39,40
 569.333984375 1647.66992188 569.333984375 1647.66992188 561.466796875 1648.31933594 c 128,-1,41
 553.599609375 1648.96875 553.599609375 1648.96875 546.141601562 1650.26757812 c 128,-1,42
 538.682617188 1651.56542969 538.682617188 1651.56542969 531.631835938 1653.50878906 c 128,-1,43
 524.580078125 1655.45214844 524.580078125 1655.45214844 517.92578125 1658.04199219 c 0,44,45
 509.057617188 1661.49414062 509.057617188 1661.49414062 500.95703125 1666.06835938 c 128,-1,46
 492.85546875 1670.64160156 492.85546875 1670.64160156 485.514648438 1676.34179688 c 128,-1,47
 478.173828125 1682.04101562 478.173828125 1682.04101562 471.584960938 1688.87304688 c 0,48,49
 451.791015625 1709.39746094 451.791015625 1709.39746094 439.260742188 1739.72851562 c 0,50,51
 426.422851562 1770.8046875 426.422851562 1770.8046875 426.422851562 1804.69433594 c 0,52,53
 426.422851562 1821.58007812 426.422851562 1821.58007812 429.802734375 1840.74902344 c 0,54,55
 431.495117188 1850.3515625 431.495117188 1850.3515625 434.025390625 1860.56640625 c 128,-1,56
 436.555664062 1870.78125 436.555664062 1870.78125 439.923828125 1881.60546875 c 2,57,-1
 443.915039062 1894.43359375 l 1,58,-1
 444.673828125 1896.87304688 l 1,59,-1
 442.123046875 1897.02441406 l 1,60,-1
 428.704101562 1897.81640625 l 2,61,62
 416.600585938 1898.52832031 416.600585938 1898.52832031 403.177734375 1899.00195312 c 128,-1,63
 389.752929688 1899.47460938 389.752929688 1899.47460938 375.01953125 1899.70898438 c 2,64,-1
 367.146484375 1899.83398438 l 1,65,-1
 367.146484375 1907.70800781 l 1,66,-1
 367.146484375 1977.15039062 l 1,67,-1
 367.146484375 1985.72851562 l 1,68,-1
 375.703125 1985.13085938 l 1,0,-1
531.713867188 1880.85253906 m 1,69,-1
 521.9609375 1858.09863281 l 2,70,71
 516.920898438 1846.34472656 516.920898438 1846.34472656 514.4140625 1831.87597656 c 128,-1,72
 511.908203125 1817.40820312 511.908203125 1817.40820312 511.908203125 1800.21191406 c 0,73,74
 511.908203125 1789.12207031 511.908203125 1789.12207031 514.241210938 1780.01953125 c 0,75,76
 515.4140625 1775.44628906 515.4140625 1775.44628906 517.142578125 1771.36035156 c 128,-1,77
 518.872070312 1767.2734375 518.872070312 1767.2734375 521.16015625 1763.68359375 c 128,-1,78
 523.444335938 1760.09960938 523.444335938 1760.09960938 526.319335938 1756.87988281 c 128,-1,79
 529.1953125 1753.66113281 529.1953125 1753.66113281 532.650390625 1750.81445312 c 0,80,81
 543.338867188 1742.01074219 543.338867188 1742.01074219 554.823242188 1737.58300781 c 128,-1,82
 566.30859375 1733.15429688 566.30859375 1733.15429688 578.560546875 1733.15429688 c 0,83,84
 629.838867188 1734.62695312 629.838867188 1734.62695312 640.8515625 1775.19726562 c 0,85,86
 641.721679688 1778.40039062 641.721679688 1778.40039062 642.299804688 1781.47558594 c 128,-1,87
 642.877929688 1784.5546875 642.877929688 1784.5546875 643.15625 1787.40136719 c 2,88,-1
 643.435546875 1792.97167969 l 2,89,90
 643.435546875 1848.36523438 643.435546875 1848.36523438 543.17578125 1879.19433594 c 2,91,-1
 534.140625 1881.9765625 l 1,92,-1
 532.422851562 1882.50488281 l 1,93,-1
 531.713867188 1880.85253906 l 1,69,-1
EndSplineSet
EndChar

StartChar: uni065A
Encoding: 1626 1626 58
Width: 1295
VWidth: 2551
GlyphClass: 4
Flags: W
AnchorPoint: "Anchor-10" 648 1488.29 mark 0
AnchorPoint: "Anchor-9" 648 1488.29 mark 0
AnchorPoint: "Anchor-1" 645.488 2053.43 basemark 0
AnchorPoint: "Anchor-1" 648 1488.29 mark 0
LayerCount: 2
Fore
SplineSet
562.7421875 1587.69628906 m 1,0,-1
 348.529296875 1945.81835938 l 1,1,-1
 341.287109375 1957.92480469 l 1,2,-1
 355.39453125 1957.92480469 l 1,3,-1
 471.013671875 1957.92480469 l 1,4,-1
 475.294921875 1957.92480469 l 1,5,-1
 477.669921875 1954.36230469 l 1,6,-1
 646.3359375 1701.36035156 l 1,7,-1
 648 1698.86425781 l 1,8,-1
 649.6640625 1701.36035156 l 1,9,-1
 818.327148438 1954.36230469 l 1,10,-1
 820.702148438 1957.92480469 l 1,11,-1
 824.983398438 1957.92480469 l 1,12,-1
 940.604492188 1957.92480469 l 1,13,-1
 954.711914062 1957.92480469 l 1,14,-1
 947.469726562 1945.81835938 l 1,15,-1
 733.25390625 1587.69628906 l 1,16,-1
 730.92578125 1583.80273438 l 1,17,-1
 726.388671875 1583.80273438 l 1,18,-1
 569.607421875 1583.80273438 l 1,19,-1
 565.0703125 1583.80273438 l 1,20,-1
 562.7421875 1587.69628906 l 1,0,-1
EndSplineSet
EndChar

StartChar: afii57392
Encoding: 1632 1632 59
Width: 936
VWidth: 2591
GlyphClass: 2
Flags: W
LayerCount: 2
Fore
SplineSet
364 540 m 128,-1,1
 364 497.171875 364 497.171875 394.5859375 466.5859375 c 128,-1,2
 425.171875 436 425.171875 436 468 436 c 128,-1,3
 510.828125 436 510.828125 436 541.4140625 466.5859375 c 128,-1,4
 572 497.171875 572 497.171875 572 540 c 128,-1,5
 572 582.828125 572 582.828125 541.4140625 613.4140625 c 128,-1,6
 510.828125 644 510.828125 644 468 644 c 128,-1,7
 425.171875 644 425.171875 644 394.5859375 613.4140625 c 128,-1,0
 364 582.828125 364 582.828125 364 540 c 128,-1,1
140.26171875 540.380859375 m 0,8,9
 141.577148438 608.735351562 141.577148438 608.735351562 165.814453125 666.479492188 c 128,-1,10
 190.051757812 724.223632812 190.051757812 724.223632812 237.239257812 771.411132812 c 0,11,12
 255.96875 790.140625 255.96875 790.140625 276.599609375 805.28515625 c 128,-1,13
 297.228515625 820.428710938 297.228515625 820.428710938 319.587890625 831.879882812 c 0,14,15
 330.768554688 837.60546875 330.768554688 837.60546875 342.36328125 842.412109375 c 128,-1,16
 353.95703125 847.21875 353.95703125 847.21875 365.966796875 851.108398438 c 0,17,18
 373.97265625 853.700195312 373.97265625 853.700195312 382.157226562 855.876953125 c 128,-1,19
 390.340820312 858.053710938 390.340820312 858.053710938 398.705078125 859.815429688 c 128,-1,20
 407.068359375 861.577148438 407.068359375 861.577148438 415.611328125 862.923828125 c 0,21,22
 441.245117188 866.962890625 441.245117188 866.962890625 468.26953125 867.22265625 c 0,23,24
 536.56640625 866.565429688 536.56640625 866.565429688 594.297851562 842.623046875 c 128,-1,25
 652.030273438 818.680664062 652.030273438 818.680664062 699.299804688 771.411132812 c 128,-1,26
 746.569335938 724.141601562 746.569335938 724.141601562 770.51171875 666.409179688 c 128,-1,27
 794.455078125 608.676757812 794.455078125 608.676757812 795.111328125 540.380859375 c 0,28,29
 793.798828125 403.849609375 793.798828125 403.849609375 699.299804688 309.350585938 c 0,30,31
 680.5703125 290.62109375 680.5703125 290.62109375 659.939453125 275.4765625 c 0,32,33
 653.0625 270.427734375 653.0625 270.427734375 645.993164062 265.790039062 c 128,-1,34
 638.924804688 261.15234375 638.924804688 261.15234375 631.6640625 256.92578125 c 128,-1,35
 624.403320312 252.698242188 624.403320312 252.698242188 616.950195312 248.881835938 c 0,36,37
 594.591796875 237.431640625 594.591796875 237.431640625 570.573242188 229.653320312 c 0,38,39
 558.563476562 225.764648438 558.563476562 225.764648438 546.15234375 222.811523438 c 128,-1,40
 533.741210938 219.857421875 533.741210938 219.857421875 520.927734375 217.837890625 c 0,41,42
 495.293945312 213.798828125 495.293945312 213.798828125 468.26953125 213.5390625 c 0,43,44
 434.439453125 213.865234375 434.439453125 213.865234375 402.94921875 220.068359375 c 128,-1,45
 371.458007812 226.271484375 371.458007812 226.271484375 342.342773438 238.342773438 c 0,46,47
 284.098632812 262.4921875 284.098632812 262.4921875 237.239257812 309.350585938 c 0,48,49
 142.891601562 403.700195312 142.891601562 403.700195312 140.26171875 540.380859375 c 0,8,9
EndSplineSet
EndChar

StartChar: afii57393
Encoding: 1633 1633 60
Width: 702
VWidth: 2591
GlyphClass: 2
Flags: W
LayerCount: 2
Fore
SplineSet
469.849609375 3.9091796875 m 1,0,-1
 294.870117188 3.9091796875 l 1,1,-1
 256.870117188 3.9091796875 l 1,2,-1
 256.870117188 41.9091796875 l 1,3,-1
 256.870117188 350.008789062 l 2,4,5
 257 814.405273438 257 814.405273438 136.600585938 1216.08886719 c 2,6,-1
 125.823242188 1252.04199219 l 1,7,-1
 161.640625 1263.26269531 l 1,8,-1
 327.640625 1315.26269531 l 1,9,-1
 364.330078125 1326.75488281 l 1,10,-1
 375.393554688 1289.93457031 l 2,11,12
 507.84375 849.225585938 507.84375 849.225585938 507.849609375 349 c 2,13,-1
 507.849609375 41.9091796875 l 1,14,-1
 507.849609375 3.9091796875 l 1,15,-1
 469.849609375 3.9091796875 l 1,0,-1
EndSplineSet
EndChar

StartChar: afii57394
Encoding: 1634 1634 61
Width: 1138
VWidth: 2591
GlyphClass: 2
Flags: W
LayerCount: 2
Fore
SplineSet
506.8515625 349.913085938 m 2,0,-1
 506.864257812 43.9111328125 l 1,1,-1
 506.866210938 3.9091796875 l 1,2,-1
 466.864257812 3.9091796875 l 1,3,-1
 296.094726562 3.9091796875 l 1,4,-1
 256.096679688 3.9091796875 l 1,5,-1
 256.094726562 43.9072265625 l 1,6,-1
 256.076171875 349.885742188 l 2,7,8
 255.999990602 812.057012421 255.999990602 812.057012421 137.997070312 1214.890625 c 2,9,-1
 126.911132812 1252.73535156 l 1,10,-1
 164.594726562 1264.35839844 l 1,11,-1
 327.734375 1314.67578125 l 1,12,-1
 369.05078125 1327.41894531 l 1,13,-1
 378.546875 1285.23730469 l 1,14,-1
 422.120117188 1091.67773438 l 2,15,16
 444 993 444 993 501.9296875 944.66796875 c 0,17,18
 521 929 521 929 543.237304688 918.546875 c 0,19,20
 591 897 591 897 655.510742188 896.381835938 c 0,21,22
 737 896 737 896 777.124023438 939.936523438 c 4,23,24
 815 982 815 982 816.650390625 1079.60449219 c 24,25,26
 818.986721975 1166.50611378 818.986721975 1166.50611378 816.287109375 1276.70703125 c 2,27,-1
 815.283203125 1317.6875 l 1,28,-1
 856.275390625 1317.6875 l 1,29,-1
 1015.61035156 1317.6875 l 1,30,-1
 1054.88964844 1317.6875 l 1,31,-1
 1055.60351562 1278.41503906 l 2,32,33
 1060 1038 1060 1038 1044.31054688 950.747070312 c 0,34,35
 990 639 990 639 656.456054688 637.407226562 c 0,36,37
 565 637 565 637 490.966796875 664.921875 c 1,38,39
 507 523 507 523 506.8515625 349.913085938 c 2,0,-1
EndSplineSet
EndChar

StartChar: afii57395
Encoding: 1635 1635 62
Width: 1415
VWidth: 2591
GlyphClass: 2
Flags: W
LayerCount: 2
Fore
SplineSet
492.098632812 658.672851562 m 5,0,1
 506.844651974 516.497801751 506.844651974 516.497801751 506.8515625 349.923828125 c 2,2,-1
 506.864257812 43.9111328125 l 1,3,-1
 506.866210938 3.9091796875 l 1,4,-1
 256.096679688 3.9091796875 l 1,5,-1
 256.076171875 349.885742188 l 2,6,7
 255.99995693 812.261292783 255.99995693 812.261292783 137.998046875 1214.88476562 c 6,8,-1
 126.905273438 1252.73339844 l 5,9,-1
 369.46484375 1327.54589844 l 5,10,-1
 422.200195312 1081.31445312 l 6,11,12
 464 887 464 887 587.919921875 889.143554688 c 4,13,14
 628 890 628 890 647.987304688 920.650390625 c 4,15,16
 668.250086851 952.391757581 668.250086851 952.391757581 668.405273438 1032.50195312 c 6,17,-1
 668.87890625 1277 l 5,18,-1
 912.200195312 1277 l 5,19,-1
 911.4140625 1022.37402344 l 6,20,21
 911 948 911 948 936.001953125 918.4375 c 132,-1,22
 961 889 961 889 1009.21484375 889.162109375 c 4,23,24
 1058 889 1058 889 1076.63476562 916.104492188 c 4,25,26
 1095.60806711 942.455661938 1095.60806711 942.455661938 1095.40429688 1016.66210938 c 6,27,-1
 1094.58105469 1316.45996094 l 5,28,-1
 1341.88964844 1316.45996094 l 5,29,-1
 1343.0078125 1093.25390625 l 6,30,31
 1344 875 1344 875 1264.43847656 756.079101562 c 132,-1,32
 1185 637 1185 637 1030.45898438 636.934570312 c 132,-1,33
 876 637 876 637 798.620117188 727.955078125 c 5,34,35
 726 640 726 640 607.717773438 639.9140625 c 4,36,37
 543 640 543 640 492.098632812 658.672851562 c 5,0,1
EndSplineSet
EndChar

StartChar: afii57396
Encoding: 1636 1636 63
Width: 966
VWidth: 2591
GlyphClass: 2
Flags: W
LayerCount: 2
Fore
SplineSet
102.434570312 323.2890625 m 0,0,1
 103.991210938 526.8046875 103.991210938 526.8046875 398.206054688 686.323242188 c 2,2,-1
 401.444335938 688.078125 l 1,3,-1
 398.208984375 689.837890625 l 2,4,5
 141.998046875 829.190429688 141.998046875 829.190429688 141.670898438 994.986328125 c 0,6,7
 141.998046875 1303.03125 141.998046875 1303.03125 603.861328125 1304.72753906 c 2,8,-1
 743.153320312 1305.23925781 l 1,9,-1
 780.963867188 1305.37792969 l 1,10,-1
 781.291015625 1267.56835938 l 1,11,-1
 782.837890625 1089.16015625 l 1,12,-1
 783.168945312 1051.02441406 l 1,13,-1
 745.032226562 1050.83203125 l 1,14,-1
 607.1953125 1050.13671875 l 2,15,16
 559.23828125 1049.84667969 559.23828125 1049.84667969 524.020507812 1045.22363281 c 0,17,18
 419.041992188 1031.44042969 419.041992188 1031.44042969 426.018554688 978.727539062 c 0,19,20
 437.173828125 900.643554688 437.173828125 900.643554688 746.522460938 806.517578125 c 2,21,-1
 772.590820312 798.5859375 l 1,22,-1
 770.93359375 770.7421875 l 1,23,-1
 760.93359375 602.7421875 l 1,24,-1
 759.3984375 576.969726562 l 1,25,-1
 734.873046875 568.903320312 l 2,26,27
 555.194335938 509.840820312 555.194335938 509.840820312 470.528320312 462.748046875 c 0,28,29
 384.995117188 415.173828125 384.995117188 415.173828125 385.208984375 361.275390625 c 0,30,31
 383.977539062 260.147460938 383.977539062 260.147460938 619.999023438 260.150390625 c 2,32,-1
 858.108398438 260.153320312 l 1,33,-1
 896.25 260.154296875 l 1,34,-1
 896.109375 222.012695312 l 1,35,-1
 895.447265625 43.0068359375 l 1,36,-1
 895.307617188 5.146484375 l 1,37,-1
 857.446289062 5.1474609375 l 1,38,-1
 620.01171875 5.150390625 l 2,39,40
 610.983398438 5.1474609375 610.983398438 5.1474609375 602.111328125 5.2412109375 c 0,41,42
 99.0810546875 10.5146484375 99.0810546875 10.5146484375 102.434570312 323.2890625 c 0,0,1
EndSplineSet
EndChar

StartChar: afii57397
Encoding: 1637 1637 64
Width: 1172
VWidth: 2591
GlyphClass: 2
Flags: W
LayerCount: 2
Fore
SplineSet
308.793945312 409.532226562 m 0,0,1
 309.002929688 263.997070312 309.002929688 263.997070312 598.861328125 264.440429688 c 0,2,3
 684.422851562 264.626953125 684.422851562 264.626953125 741.709960938 279.568359375 c 128,-1,4
 798.997070312 294.508789062 798.997070312 294.508789062 828.0546875 324.56640625 c 128,-1,5
 857.112304688 354.624023438 857.112304688 354.624023438 857.169921875 399.7109375 c 0,6,7
 857.1484375 424.290039062 857.1484375 424.290039062 852.755859375 450.44921875 c 128,-1,8
 848.362304688 476.608398438 848.362304688 476.608398438 839.599609375 504.3359375 c 128,-1,9
 830.836914062 532.064453125 830.836914062 532.064453125 817.716796875 561.3671875 c 128,-1,10
 804.59765625 590.670898438 804.59765625 590.670898438 787.111328125 621.556640625 c 128,-1,11
 769.624023438 652.443359375 769.624023438 652.443359375 747.797851562 684.8984375 c 128,-1,12
 725.970703125 717.352539062 725.970703125 717.352539062 699.779296875 751.405273438 c 128,-1,13
 673.586914062 785.458007812 673.586914062 785.458007812 643.071289062 821.072265625 c 128,-1,14
 612.555664062 856.6875 612.555664062 856.6875 577.678710938 893.912109375 c 2,15,-1
 576.147460938 895.545898438 l 1,16,-1
 574.696289062 893.841796875 l 2,17,18
 309.000976562 581.737304688 309.000976562 581.737304688 308.793945312 409.532226562 c 0,0,1
321.805664062 1096.125 m 1,19,-1
 464.63671875 1310.58886719 l 1,20,-1
 496.250976562 1288.16894531 l 2,21,22
 1109.00195312 853.96484375 1109.00195312 853.96484375 1109.62890625 418.125 c 0,23,24
 1109.81347656 314.43359375 1109.81347656 314.43359375 1077.14453125 236.010742188 c 128,-1,25
 1044.47460938 157.587890625 1044.47460938 157.587890625 978.956054688 104.23046875 c 0,26,27
 913.6796875 51.1611328125 913.6796875 51.1611328125 817.620117188 24.7255859375 c 128,-1,28
 721.561523438 -1.7099609375 721.561523438 -1.7099609375 594.680664062 -1.4208984375 c 0,29,30
 341.663085938 -1.0009765625 341.663085938 -1.0009765625 201.940429688 102.860351562 c 0,31,32
 62.9970703125 206.0078125 62.9970703125 206.0078125 62.4404296875 409.059570312 c 0,33,34
 62.0009765625 671.288085938 62.0009765625 671.288085938 375.702148438 1055.34765625 c 2,35,-1
 377.057617188 1057.0078125 l 1,36,-1
 375.30859375 1058.24511719 l 1,37,-1
 321.805664062 1096.125 l 1,19,-1
EndSplineSet
EndChar

StartChar: afii57398
Encoding: 1638 1638 65
Width: 1246
VWidth: 2591
GlyphClass: 2
Flags: W
LayerCount: 2
Fore
SplineSet
111.489257812 1316.12207031 m 1,0,-1
 692.96484375 1316.68652344 l 2,1,2
 728.252929688 1316.74902344 728.252929688 1316.74902344 760.16015625 1312.77636719 c 128,-1,3
 792.067382812 1308.8046875 792.067382812 1308.8046875 820.576171875 1300.80761719 c 128,-1,4
 849.083984375 1292.81054688 849.083984375 1292.81054688 874.233398438 1280.78320312 c 128,-1,5
 899.3828125 1268.75683594 899.3828125 1268.75683594 921.15625 1252.72070312 c 128,-1,6
 942.928710938 1236.68457031 942.928710938 1236.68457031 961.364257812 1216.62304688 c 0,7,8
 1054 1116.21875 1054 1116.21875 1054 929 c 2,9,-1
 1054 41.9091796875 l 1,10,-1
 1054 3.9091796875 l 1,11,-1
 1016 3.9091796875 l 1,12,-1
 843.5703125 3.9091796875 l 1,13,-1
 805.5703125 3.9091796875 l 1,14,-1
 805.5703125 41.9091796875 l 1,15,-1
 805.571289062 925.041992188 l 2,16,17
 806.005859375 989.83203125 806.005859375 989.83203125 779.439453125 1016.00390625 c 0,18,19
 752.384765625 1042.41992188 752.384765625 1042.41992188 689 1042.41992188 c 2,20,-1
 111.526367188 1042.41992188 l 1,21,-1
 73.5263671875 1042.41992188 l 1,22,-1
 73.5263671875 1080.41992188 l 1,23,-1
 73.5263671875 1278.12207031 l 1,24,-1
 73.5263671875 1316.08496094 l 1,25,-1
 111.489257812 1316.12207031 l 1,0,-1
EndSplineSet
EndChar

StartChar: afii57399
Encoding: 1639 1639 66
Width: 1201
VWidth: 2591
GlyphClass: 2
Flags: W
LayerCount: 2
Fore
SplineSet
602.055664062 511.091796875 m 2,0,1
 636.907226562 634.395507812 636.907226562 634.395507812 682.252929688 763.4140625 c 0,2,3
 705.059570312 827.846679688 705.059570312 827.846679688 730.262695312 893.911132812 c 128,-1,4
 755.465820312 959.9765625 755.465820312 959.9765625 783.057617188 1027.65429688 c 0,5,6
 838.939453125 1163.45703125 838.939453125 1163.45703125 904.52734375 1304.06347656 c 2,7,-1
 921.323242188 1340.0703125 l 1,8,-1
 956.544921875 1321.68847656 l 1,9,-1
 1117.81152344 1237.52832031 l 1,10,-1
 1151.74121094 1219.82226562 l 1,11,-1
 1133.79394531 1186.02050781 l 2,12,13
 802.41796875 562.28515625 802.41796875 562.28515625 712.418945312 35.51171875 c 2,14,-1
 707.021484375 3.9091796875 l 1,15,-1
 674.961914062 3.9091796875 l 1,16,-1
 526.002929688 3.9091796875 l 1,17,-1
 493.94140625 3.9091796875 l 1,18,-1
 488.544921875 35.5126953125 l 2,19,20
 398.99609375 561.192382812 398.99609375 561.192382812 67.171875 1186.01757812 c 2,21,-1
 49.2216796875 1219.82128906 l 1,22,-1
 83.1533203125 1237.52832031 l 1,23,-1
 244.419921875 1321.68847656 l 1,24,-1
 279.639648438 1340.06933594 l 1,25,-1
 296.435546875 1304.06738281 l 2,26,27
 494.131835938 879.274414062 494.131835938 879.274414062 598.206054688 511.091796875 c 2,28,-1
 600.130859375 504.283203125 l 1,29,-1
 602.055664062 511.091796875 l 2,0,1
EndSplineSet
EndChar

StartChar: afii57400
Encoding: 1640 1640 67
Width: 1201
VWidth: 2591
GlyphClass: 2
Flags: W
LayerCount: 2
Fore
SplineSet
598.919921875 798.844726562 m 2,0,1
 494.096679688 429.620117188 494.096679688 429.620117188 296.4375 5.845703125 c 2,2,-1
 279.642578125 -30.1611328125 l 1,3,-1
 244.419921875 -11.779296875 l 1,4,-1
 83.1533203125 72.380859375 l 1,5,-1
 49.224609375 90.0869140625 l 1,6,-1
 67.1708984375 123.887695312 l 2,7,8
 398.580078125 747.7109375 398.580078125 747.7109375 488.545898438 1274.39648438 c 2,9,-1
 493.942382812 1306 l 1,10,-1
 526.002929688 1306 l 1,11,-1
 674.961914062 1306 l 1,12,-1
 707.020507812 1306 l 1,13,-1
 712.418945312 1274.39941406 l 2,14,15
 801.995117188 748.858398438 801.995117188 748.858398438 1133.79492188 123.887695312 c 2,16,-1
 1151.73828125 90.0859375 l 1,17,-1
 1117.81152344 72.380859375 l 1,18,-1
 956.544921875 -11.779296875 l 1,19,-1
 921.3203125 -30.1630859375 l 1,20,-1
 904.52734375 5.845703125 l 2,21,22
 706.868164062 430.725585938 706.868164062 430.725585938 602.768554688 798.842773438 c 2,23,-1
 600.84765625 805.634765625 l 1,24,-1
 598.919921875 798.844726562 l 2,0,1
EndSplineSet
EndChar

StartChar: afii57401
Encoding: 1641 1641 68
Width: 1147
VWidth: 2591
GlyphClass: 2
Flags: W
LayerCount: 2
Fore
SplineSet
703.274414062 269.950195312 m 1,0,-1
 702.598632812 538.504882812 l 1,1,-1
 702.590820312 541.471679688 l 1,2,-1
 699.84375 540.352539062 l 2,3,4
 610.65234375 504.017578125 610.65234375 504.017578125 501.333984375 504.34375 c 0,5,6
 398.375 504.998046875 398.375 504.998046875 318.793945312 535.381835938 c 128,-1,7
 239.19140625 565.686523438 239.19140625 565.686523438 186.25390625 627.993164062 c 0,8,9
 92 738.735351562 92 738.735351562 92.05859375 887.543945312 c 0,10,11
 92 1075.21875 92 1075.21875 194.025390625 1185.86035156 c 0,12,13
 320.8828125 1325 320.8828125 1325 535 1325 c 0,14,15
 714.158203125 1325 714.158203125 1325 816.389648438 1220.45214844 c 0,16,17
 850.591796875 1185.69628906 850.591796875 1185.69628906 875.369140625 1140.61523438 c 128,-1,18
 900.146484375 1095.53417969 900.146484375 1095.53417969 915.520507812 1040.01171875 c 128,-1,19
 930.89453125 984.489257812 930.89453125 984.489257812 936.815429688 918.583007812 c 0,20,21
 946.001953125 818.883789062 946.001953125 818.883789062 949.92578125 657.115234375 c 0,22,23
 954.25390625 474.252929688 954.25390625 474.252929688 954.25390625 269 c 2,24,-1
 954.25390625 41.9091796875 l 1,25,-1
 954.25390625 3.9091796875 l 1,26,-1
 916.25390625 3.9091796875 l 1,27,-1
 741.274414062 3.9091796875 l 1,28,-1
 703.274414062 3.9091796875 l 1,29,-1
 703.274414062 41.9091796875 l 1,30,-1
 703.274414062 269.950195312 l 1,0,-1
513.998046875 751.966796875 m 0,31,32
 626.741210938 751.966796875 626.741210938 751.966796875 689.255859375 809.26171875 c 2,33,-1
 689.916992188 809.8671875 l 1,34,-1
 689.904296875 810.763671875 l 2,35,36
 688.998046875 876.173828125 688.998046875 876.173828125 675.58984375 959.391601562 c 0,37,38
 665.848632812 1017.06152344 665.848632812 1017.06152344 632.3125 1045.07910156 c 0,39,40
 597.72265625 1074.00292969 597.72265625 1074.00292969 534.450195312 1073.76757812 c 0,41,42
 419.955078125 1074.00195312 419.955078125 1074.00195312 370.365234375 1002.55371094 c 0,43,44
 336.998046875 954.625 336.998046875 954.625 337.166992188 889.380859375 c 0,45,46
 336.998046875 847.486328125 336.998046875 847.486328125 354.524414062 815.879882812 c 0,47,48
 371.57421875 783.413085938 371.57421875 783.413085938 410.866210938 767.862304688 c 0,49,50
 449.6875 751.966796875 449.6875 751.966796875 513.998046875 751.966796875 c 0,31,32
EndSplineSet
EndChar

StartChar: afii57381
Encoding: 1642 1642 69
Width: 1291
VWidth: 2591
GlyphClass: 2
Flags: W
LayerCount: 2
Fore
SplineSet
757.737304688 296.348632812 m 0,0,1
 757.686523438 304.201171875 757.686523438 304.201171875 758.215820312 311.818359375 c 128,-1,2
 758.74609375 319.434570312 758.74609375 319.434570312 759.858398438 326.821289062 c 128,-1,3
 760.969726562 334.20703125 760.969726562 334.20703125 762.6640625 341.359375 c 128,-1,4
 764.358398438 348.51171875 764.358398438 348.51171875 766.63671875 355.435546875 c 128,-1,5
 768.915039062 362.359375 768.915039062 362.359375 771.775390625 369.051757812 c 128,-1,6
 774.63671875 375.744140625 774.63671875 375.744140625 778.083007812 382.2109375 c 128,-1,7
 781.529296875 388.677734375 781.529296875 388.677734375 785.559570312 394.915039062 c 128,-1,8
 789.58984375 401.153320312 789.58984375 401.153320312 794.206054688 407.166992188 c 128,-1,9
 798.823242188 413.180664062 798.823242188 413.180664062 804.024414062 418.96875 c 128,-1,10
 809.2265625 424.756835938 809.2265625 424.756835938 815.016601562 430.322265625 c 0,11,12
 871.924804688 485.720703125 871.924804688 485.720703125 950.865234375 485.545898438 c 0,13,14
 976.517578125 485.602539062 976.517578125 485.602539062 1000.67285156 479.299804688 c 0,15,16
 1012.74902344 476.149414062 1012.74902344 476.149414062 1024.20898438 471.487304688 c 128,-1,17
 1035.66796875 466.825195312 1035.66796875 466.825195312 1046.51757812 460.6484375 c 0,18,19
 1068.22070312 448.29296875 1068.22070312 448.29296875 1086.71289062 430.315429688 c 0,20,21
 1144.42089844 374.765625 1144.42089844 374.765625 1143.984375 296.348632812 c 0,22,23
 1144.42089844 218.778320312 1144.42089844 218.778320312 1086.86035156 162.5234375 c 0,24,25
 1029.72167969 106.573242188 1029.72167969 106.573242188 950.860351562 107.1484375 c 0,26,27
 871.924804688 106.573242188 871.924804688 106.573242188 814.858398438 162.526367188 c 0,28,29
 757.225585938 218.779296875 757.225585938 218.779296875 757.737304688 296.348632812 c 0,0,1
147.40625 1102.66210938 m 0,30,31
 147 1181 147 1181 204.685546875 1236.63574219 c 0,32,33
 262 1292 262 1292 340.534179688 1291.859375 c 0,34,35
 420 1291 420 1291 476.381835938 1236.62890625 c 0,36,37
 533 1182 533 1182 533.653320312 1102.66210938 c 0,38,39
 534 1077 534 1077 527.517578125 1053.30859375 c 0,40,41
 521 1030 521 1030 508.505859375 1008.73046875 c 0,42,43
 496 988 496 988 476.573242188 968.8359375 c 0,44,45
 420 914 420 914 340.529296875 913.461914062 c 0,46,47
 262 913 262 913 204.52734375 968.83984375 c 0,48,49
 176 997 176 997 161.411132812 1030.42382812 c 128,-1,50
 147 1064 147 1064 147.40625 1102.66210938 c 0,30,31
907.361328125 1350.33496094 m 1,51,-1
 1062.67285156 1271.96679688 l 1,52,-1
 1097.54101562 1254.37304688 l 1,53,-1
 372.916992188 -4.298828125 l 1,54,-1
 339.6015625 13.3154296875 l 1,55,-1
 186.237304688 94.40625 l 1,56,-1
 152.374023438 112.311523438 l 1,57,-1
 874.342773438 1366.99609375 l 5,58,-1
 907.361328125 1350.33496094 l 1,51,-1
EndSplineSet
EndChar

StartChar: uni066B
Encoding: 1643 1643 70
Width: 667
VWidth: 2551
GlyphClass: 2
Flags: W
LayerCount: 2
Fore
SplineSet
38.9482421875 -204.85546875 m 1,0,-1
 438.0078125 581.62109375 l 1,1,-1
 445.946289062 597.267578125 l 1,2,-1
 461.791015625 589.731445312 l 1,3,-1
 584.731445312 531.254882812 l 1,4,-1
 601.327148438 523.361328125 l 1,5,-1
 593.090820312 506.93359375 l 1,6,-1
 197.9375 -281.315429688 l 1,7,-1
 190.041015625 -297.068359375 l 1,8,-1
 174.124023438 -289.5078125 l 1,9,-1
 47.27734375 -229.258789062 l 1,10,-1
 30.587890625 -221.33203125 l 1,11,-1
 38.9482421875 -204.85546875 l 1,0,-1
EndSplineSet
EndChar

StartChar: uni066C
Encoding: 1644 1644 71
Width: 592
VWidth: 2302
GlyphClass: 2
Flags: W
LayerCount: 2
Fore
SplineSet
299.39453125 277.99609375 m 0,0,1
 317.21875 277.590820312 317.21875 277.590820312 333.17578125 275.178710938 c 128,-1,2
 349.131835938 272.766601562 349.131835938 272.766601562 363.200195312 268.353515625 c 128,-1,3
 377.267578125 263.94140625 377.267578125 263.94140625 389.463867188 257.547851562 c 128,-1,4
 401.66015625 251.154296875 401.66015625 251.154296875 412.015625 242.770507812 c 0,5,6
 453.3984375 209.263671875 453.3984375 209.263671875 459.090820312 146.446289062 c 0,7,8
 463.663085938 95.3076171875 463.663085938 95.3076171875 458.20703125 43.677734375 c 128,-1,9
 452.751953125 -7.953125 452.751953125 -7.953125 437.259765625 -60.109375 c 0,10,11
 378.936523438 -257.989257812 378.936523438 -257.989257812 177.435546875 -349.392578125 c 2,12,-1
 166.583007812 -354.315429688 l 1,13,-1
 157.8125 -346.247070312 l 1,14,-1
 107.8125 -300.247070312 l 1,15,-1
 89.50390625 -283.40234375 l 1,16,-1
 111.23046875 -271.28125 l 2,17,18
 195.728515625 -224.139648438 195.728515625 -224.139648438 244.883789062 -162.0234375 c 128,-1,19
 294.0390625 -99.90625 294.0390625 -99.90625 307.7265625 -23.251953125 c 2,20,-1
 308.192382812 -20.6123046875 l 1,21,-1
 305.81640625 -20.60546875 l 2,22,23
 293.18359375 -20.5634765625 293.18359375 -20.5634765625 286.624023438 -19.990234375 c 0,24,25
 213.447265625 -15.9150390625 213.447265625 -15.9150390625 174.625976562 20.5830078125 c 128,-1,26
 135.918945312 56.9736328125 135.918945312 56.9736328125 137.076171875 122.286132812 c 0,27,28
 138.125 199.0390625 138.125 199.0390625 180.150390625 239.330078125 c 128,-1,29
 222.181640625 279.626953125 222.181640625 279.626953125 299.39453125 277.99609375 c 0,0,1
EndSplineSet
EndChar

StartChar: afii63167
Encoding: 1645 1645 72
Width: 1411
VWidth: 2551
GlyphClass: 2
Flags: W
LayerCount: 2
Fore
SplineSet
198.916992188 906.817382812 m 1,0,-1
 583.680664062 906.817382812 l 1,1,-1
 585.12890625 906.817382812 l 1,2,-1
 585.581054688 908.193359375 l 1,3,-1
 705.771484375 1274.12109375 l 1,4,-1
 825.956054688 908.193359375 l 1,5,-1
 826.408203125 906.817382812 l 1,6,-1
 827.856445312 906.817382812 l 1,7,-1
 1212.62207031 906.817382812 l 1,8,-1
 901.762695312 679.5703125 l 1,9,-1
 900.592773438 678.71484375 l 1,10,-1
 901.041992188 677.336914062 l 1,11,-1
 1019.94921875 312.037109375 l 1,12,-1
 706.943359375 538.21875 l 1,13,-1
 705.771484375 539.065429688 l 1,14,-1
 704.600585938 538.21875 l 1,15,-1
 391.588867188 312.037109375 l 1,16,-1
 510.497070312 677.336914062 l 1,17,-1
 510.946289062 678.71484375 l 1,18,-1
 509.776367188 679.5703125 l 1,19,-1
 198.916992188 906.817382812 l 1,0,-1
EndSplineSet
EndChar

StartChar: uni066E
Encoding: 1646 1646 73
Width: 1901
VWidth: 2591
GlyphClass: 2
Flags: W
AnchorPoint: "Anchor-10" 879.751 1267.53 basechar 0
AnchorPoint: "Anchor-7" 879.751 -176.707 basechar 0
LayerCount: 2
Fore
SplineSet
536.549804688 260 m 2,0,-1
 1373.10546875 260 l 2,1,2
 1482.9140625 260.004882812 1482.9140625 260.004882812 1532.8203125 312.680664062 c 0,3,4
 1557.82128906 339.0703125 1557.82128906 339.0703125 1570.25195312 381.750976562 c 128,-1,5
 1582.68261719 424.431640625 1582.68261719 424.431640625 1582.68261719 483.366210938 c 2,6,-1
 1582.68261719 681.75 l 1,7,-1
 1582.68261719 719.751953125 l 1,8,-1
 1620.68261719 719.75 l 1,9,-1
 1799.44042969 719.75 l 1,10,-1
 1837.44042969 719.75 l 1,11,-1
 1837.44042969 681.75 l 1,12,-1
 1837.44042969 485.827148438 l 2,13,14
 1837.28515625 328.409179688 1837.28515625 328.409179688 1783.6171875 219.858398438 c 0,15,16
 1756.81152344 165.639648438 1756.81152344 165.639648438 1717.13378906 124.63671875 c 128,-1,17
 1677.45605469 83.6328125 1677.45605469 83.6328125 1624.84765625 55.7783203125 c 0,18,19
 1519.53515625 0.017578125 1519.53515625 0.017578125 1366.46582031 -0 c 2,20,-1
 533.758789062 -0.0966796875 l 2,21,22
 457.0234375 -0.0791015625 457.0234375 -0.0791015625 391.98046875 13.9482421875 c 128,-1,23
 326.96484375 27.962890625 326.96484375 27.962890625 274.751953125 55.3955078125 c 128,-1,24
 222.576171875 82.8076171875 222.576171875 82.8076171875 182.728515625 123.608398438 c 128,-1,25
 142.879882812 164.411132812 142.879882812 164.411132812 116.188476562 217.78515625 c 128,-1,26
 89.474609375 271.204101562 89.474609375 271.204101562 75.8564453125 337.49609375 c 128,-1,27
 62.2333984375 403.817382812 62.2333984375 403.817382812 62.2275390625 481.977539062 c 2,28,-1
 62.2265625 684.66015625 l 1,29,-1
 62.2265625 722.66015625 l 1,30,-1
 100.2265625 722.66015625 l 1,31,-1
 278.984375 722.66015625 l 1,32,-1
 316.984375 722.66015625 l 1,33,-1
 316.984375 684.66015625 l 1,34,-1
 316.984375 482.54296875 l 2,35,36
 316.991210938 365.4140625 316.991210938 365.4140625 369.094726562 312.711914062 c 128,-1,37
 421.206054688 260 421.206054688 260 536.549804688 260 c 2,0,-1
EndSplineSet
Substitution2: "'init' Initial Forms in Arabic lookup 13 subtable" uni066E.init
Substitution2: "'medi' Medial Forms in Arabic lookup 11 subtable" uni066E.medi
Substitution2: "'fina' Terminal Forms in Arabic lookup 9 subtable" uni066E.fina
EndChar

StartChar: uni066F
Encoding: 1647 1647 74
Width: 1434
VWidth: 2591
GlyphClass: 2
Flags: W
AnchorPoint: "Anchor-10" 353.676 1199.52 basechar 0
AnchorPoint: "Anchor-7" 425.271 -675.467 basechar 0
LayerCount: 2
Fore
SplineSet
1368.96679688 398.017578125 m 2,0,-1
 1371.15039062 -26.2822265625 l 2,1,2
 1372.15977595 -238.121485366 1372.15977595 -238.121485366 1222.03936063 -345.060742683 c 128,-1,3
 1071.91894531 -452 1071.91894531 -452 789.385742188 -452 c 2,4,-1
 691.184570312 -452 l 2,5,6
 383.692382812 -452 383.692382812 -452 223.432617188 -301.024414062 c 128,-1,7
 63.224609375 -150.09765625 63.224609375 -150.09765625 63.12109375 141.90625 c 2,8,-1
 62.9873046875 521.857421875 l 1,9,-1
 317.877929688 522.818359375 l 1,10,-1
 317.877929688 143.10546875 l 2,11,12
 317.93359375 -27.3095703125 317.93359375 -27.3095703125 408.241210938 -107.659179688 c 128,-1,13
 498.450195312 -187.922851562 498.450195312 -187.922851562 693.120117188 -186.712890625 c 2,14,-1
 787.553710938 -186.125976562 l 2,15,16
 1121.65763048 -184.215789271 1121.65763048 -184.215789271 1120.20996094 -23.244140625 c 1,17,-1
 1120.20996094 2.98046875 l 1,18,-1
 997.344726562 2.98046875 l 2,19,20
 808.638671875 2.9912109375 808.638671875 2.9912109375 708.62890625 101.18359375 c 128,-1,21
 608.63671875 199.357421875 608.63671875 199.357421875 609.342285156 391.966796875 c 128,-1,22
 610.047851562 584.576171875 610.047851562 584.576171875 708.939453125 695.765136719 c 128,-1,23
 807.831054688 806.954101562 807.831054688 806.954101562 995.758789062 807.463867188 c 0,24,25
 1161.38304111 808.056476115 1161.38304111 808.056476115 1261.99707031 710.119140625 c 0,26,27
 1367.91893682 607.132978789 1367.91893682 607.132978789 1368.96679688 398.017578125 c 2,0,-1
930.811523438 267.831054688 m 0,28,29
 957.41946938 260.890584767 957.41946938 260.890584767 996.32421875 260.874023438 c 2,30,-1
 1117.91015625 260.822265625 l 1,31,-1
 1119.91601562 260.821289062 l 1,32,-1
 1119.56640625 391.768554688 l 2,33,34
 1119 477 1119 477 1091.52734375 514.203125 c 4,35,36
 1058 557 1058 557 992.036132812 556.248046875 c 0,37,38
 921 556 921 556 888.30859375 517.419921875 c 0,39,40
 856 479 856 479 856.129394531 383.112768204 c 0,41,42
 856 287 856 287 930.811523438 267.831054688 c 0,28,29
EndSplineSet
Substitution2: "'init' Initial Forms in Arabic lookup 13 subtable" uni066F.init
Substitution2: "'medi' Medial Forms in Arabic lookup 11 subtable" uni066F.medi
Substitution2: "'fina' Terminal Forms in Arabic lookup 9 subtable" uni066F.fina
EndChar

StartChar: uni0670
Encoding: 1648 1648 75
Width: 11
VWidth: 2551
GlyphClass: 4
Flags: W
AnchorPoint: "Anchor-10" 648 1488.29 mark 0
AnchorPoint: "Anchor-9" 648 1488.29 mark 0
AnchorPoint: "Anchor-1" 648 1984.6 basemark 0
AnchorPoint: "Anchor-1" 648 1488.29 mark 0
LayerCount: 2
Fore
SplineSet
601.571289062 1555.38378906 m 1,0,-1
 601.571289062 1917.51757812 l 1,1,-1
 601.571289062 1925.51757812 l 1,2,-1
 609.571289062 1925.51757812 l 1,3,-1
 686.427734375 1925.51757812 l 1,4,-1
 694.427734375 1925.51757812 l 1,5,-1
 694.427734375 1917.51757812 l 1,6,-1
 694.427734375 1555.38378906 l 1,7,-1
 694.427734375 1547.38378906 l 1,8,-1
 686.427734375 1547.38378906 l 1,9,-1
 609.571289062 1547.38378906 l 1,10,-1
 601.571289062 1547.38378906 l 1,11,-1
 601.571289062 1555.38378906 l 1,0,-1
EndSplineSet
EndChar

StartChar: uni0674
Encoding: 1652 1652 76
Width: 759
VWidth: 2551
GlyphClass: 2
Flags: W
LayerCount: 2
Fore
SplineSet
159.70703125 1782.32421875 m 1,0,-1
 246.987304688 1802.46484375 l 1,1,-1
 250.977539062 1803.38574219 l 1,2,-1
 247.797851562 1805.96679688 l 2,3,4
 186.001953125 1856.12304688 186.001953125 1856.12304688 186.018554688 1947.76757812 c 0,5,6
 185.999023438 2072.6640625 185.999023438 2072.6640625 290.84375 2132.01367188 c 0,7,8
 301.978515625 2138.15625 301.978515625 2138.15625 313.704101562 2143.09667969 c 128,-1,9
 325.4296875 2148.03710938 325.4296875 2148.03710938 337.751953125 2151.77636719 c 128,-1,10
 350.073242188 2155.515625 350.073242188 2155.515625 362.984375 2158.04980469 c 128,-1,11
 375.89453125 2160.58398438 375.89453125 2160.58398438 389.401367188 2161.9140625 c 128,-1,12
 402.908203125 2163.24414062 402.908203125 2163.24414062 417 2163.36621094 c 0,13,14
 499.294921875 2162.98925781 499.294921875 2162.98925781 563.5234375 2123.18457031 c 2,15,-1
 567.309570312 2120.83886719 l 1,16,-1
 567.309570312 2116.38476562 l 1,17,-1
 567.309570312 2001.42871094 l 1,18,-1
 567.309570312 1987.65136719 l 1,19,-1
 555.34375 1994.48046875 l 2,20,21
 508.884765625 2020.99609375 508.884765625 2020.99609375 441.8515625 2020.87792969 c 0,22,23
 413.983398438 2020.66699219 413.983398438 2020.66699219 393.532226562 2015.73828125 c 128,-1,24
 373.081054688 2010.81054688 373.081054688 2010.81054688 359.984375 2001.03320312 c 0,25,26
 333.697265625 1981.40820312 333.697265625 1981.40820312 333.44140625 1942.02539062 c 0,27,28
 333.307617188 1920.15625 333.307617188 1920.15625 341.798828125 1903.16113281 c 0,29,30
 344.63671875 1897.48144531 344.63671875 1897.48144531 348.540039062 1892.25488281 c 128,-1,31
 352.444335938 1887.02832031 352.444335938 1887.02832031 357.381835938 1882.28320312 c 128,-1,32
 362.318359375 1877.53710938 362.318359375 1877.53710938 368.299804688 1873.25097656 c 0,33,34
 386.158203125 1860.453125 386.158203125 1860.453125 413.927734375 1851.69433594 c 0,35,-1
 414.85546875 1851.62890625 l 1,36,-1
 584.376953125 1879.66308594 l 1,37,-1
 593.682617188 1881.20214844 l 1,38,-1
 593.682617188 1871.77050781 l 1,39,-1
 593.682617188 1750.89746094 l 1,40,-1
 593.682617188 1744.49414062 l 1,41,-1
 587.434570312 1743.09179688 l 1,42,-1
 163.2578125 1647.86328125 l 1,43,-1
 153.505859375 1645.67382812 l 1,44,-1
 153.505859375 1655.66894531 l 1,45,-1
 153.505859375 1774.52929688 l 1,46,-1
 153.505859375 1780.89355469 l 1,47,-1
 159.70703125 1782.32421875 l 1,0,-1
EndSplineSet
EndChar

StartChar: uni06A1
Encoding: 1697 1697 80
Width: 1886
VWidth: 2591
GlyphClass: 2
Flags: W
AnchorPoint: "Anchor-10" 504.245 1245.49 basechar 0
AnchorPoint: "Anchor-7" 521.19 -147.02 basechar 0
LayerCount: 2
Fore
SplineSet
1288.4921875 0 m 2,0,-1
 533.760742188 -0.0966796875 l 2,1,2
 443 -0 443 -0 366.577148438 20.0146484375 c 0,3,4
 292 40 292 40 234.875 79.552734375 c 0,5,6
 178 119 178 119 139.747070312 177.001953125 c 0,7,8
 101 235 101 235 81.740234375 311.581054688 c 0,9,10
 78 324 78 324 75.78125 337.353515625 c 0,11,12
 73 351 73 351 70.9033203125 364.17578125 c 0,13,14
 69 378 69 378 67.109375 392.049804688 c 0,15,16
 65 406 65 406 64.3974609375 420.974609375 c 0,17,18
 63 436 63 436 62.7705078125 450.951171875 c 0,19,20
 62.2276374669 461.554000805 62.2276374669 461.554000805 62.2275390625 481.977539062 c 2,21,-1
 62.2265625 684.66015625 l 1,22,-1
 62.2265625 722.66015625 l 1,23,-1
 100.2265625 722.66015625 l 1,24,-1
 278.984375 722.66015625 l 1,25,-1
 316.984375 722.66015625 l 1,26,-1
 316.984375 684.66015625 l 1,27,-1
 316.984375 482.54296875 l 2,28,29
 317 424 317 424 329.987304688 381.484375 c 128,-1,30
 343 339 343 339 369.09375 312.712890625 c 0,31,32
 421 260 421 260 536.549804688 260 c 2,33,-1
 1291.0234375 260 l 2,34,35
 1548.49980407 260 1548.49980407 260 1577.87988281 356.389648438 c 6,36,-1
 1578.72851562 359.173828125 l 1,37,-1
 1575.82519531 358.967773438 l 2,38,39
 1520 355 1520 355 1468.12304688 354.33984375 c 0,40,41
 1266 354 1266 354 1175.00878906 426.015625 c 0,42,43
 1124 467 1124 467 1097.72460938 527.013671875 c 0,44,45
 1072 587 1072 587 1071.89746094 666.305664062 c 0,46,47
 1072 727 1072 727 1082.49316406 778.90234375 c 0,48,49
 1093 830 1093 830 1115.1484375 875.366210938 c 0,50,51
 1138 920 1138 920 1170.625 954.422851562 c 0,52,53
 1273 1060 1273 1060 1452.24121094 1060.38964844 c 0,54,55
 1572 1060 1572 1060 1655.06933594 1018.03417969 c 0,56,57
 1697 997 1697 997 1728.2734375 965.743164062 c 0,58,59
 1760 935 1760 935 1780.95605469 893.904296875 c 0,60,61
 1823.849436 812.286494143 1823.849436 812.286494143 1823.79882812 693.641601562 c 2,62,-1
 1823.66308594 375.408203125 l 2,63,64
 1824 188 1824 188 1685.41601562 94.14453125 c 0,65,66
 1546 0 1546 0 1288.4921875 0 c 2,0,-1
1580.93554688 696.447265625 m 2,67,68
 1580.84980908 758.135605729 1580.84980908 758.135605729 1552.47070312 783.758789062 c 0,69,70
 1543 792 1543 792 1528.765625 798.208007812 c 0,71,72
 1515 804 1515 804 1495.96289062 806.71484375 c 0,73,74
 1477 809 1477 809 1454.05859375 809.401367188 c 0,75,76
 1413 809 1413 809 1387.38085938 799.235351562 c 0,77,78
 1381 797 1381 797 1375.06640625 793.71875 c 0,79,80
 1317 764 1317 764 1316.76855469 686.958984375 c 0,81,82
 1317 639 1317 639 1351.67675781 617.860351562 c 0,83,84
 1386 597 1386 597 1475.78808594 597.682617188 c 0,85,86
 1489 598 1489 598 1502.03222656 598.122070312 c 0,87,88
 1515 599 1515 599 1528.26171875 599.196289062 c 0,89,90
 1535 600 1535 600 1541.21386719 599.959960938 c 0,91,92
 1548 600 1548 600 1554.05957031 600.868164062 c 0,93,94
 1576.60026115 602.839687772 1576.60026115 602.839687772 1579.26464844 603.111328125 c 2,95,-1
 1581.06542969 603.294921875 l 1,96,-1
 1581.0625 605.104492188 l 1,97,-1
 1580.93554688 696.447265625 l 2,67,68
EndSplineSet
Substitution2: "'init' Initial Forms in Arabic lookup 13 subtable" uni06A1.init
Substitution2: "'medi' Medial Forms in Arabic lookup 11 subtable" uni06A1.medi
Substitution2: "'fina' Terminal Forms in Arabic lookup 9 subtable" uni06A1.fina
EndChar

StartChar: uni06A9
Encoding: 1705 1705 81
Width: 1855
VWidth: 2591
GlyphClass: 2
Flags: W
AnchorPoint: "Anchor-10" 599.382 1393.15 basechar 0
AnchorPoint: "Anchor-7" 849.692 -192.794 basechar 0
LayerCount: 2
Fore
SplineSet
536.546875 260 m 2,0,-1
 1260.25683594 260.096679688 l 2,1,2
 1308.88574219 260.078125 1308.88574219 260.078125 1345.89160156 264.94921875 c 128,-1,3
 1382.89648438 269.8203125 1382.89648438 269.8203125 1406.15820312 278.0859375 c 128,-1,4
 1429.41992188 286.352539062 1429.41992188 286.352539062 1444.01855469 298.583007812 c 128,-1,5
 1458.6171875 310.814453125 1458.6171875 310.814453125 1464.32324219 324.149414062 c 128,-1,6
 1470.02832031 337.484375 1470.02832031 337.484375 1470.03222656 353.859375 c 0,7,8
 1470.02441406 367.83203125 1470.02441406 367.83203125 1444.1015625 410.7109375 c 128,-1,9
 1418.17773438 453.58984375 1418.17773438 453.58984375 1368.39941406 510.360351562 c 2,10,-1
 1047.74023438 876.057617188 l 2,11,12
 989.825195312 942.155273438 989.825195312 942.155273438 990.948242188 1038.8984375 c 0,13,14
 991.577148438 1110.17089844 991.577148438 1110.17089844 1028.9765625 1160.83300781 c 128,-1,15
 1066.37597656 1211.49414062 1066.37597656 1211.49414062 1134.71484375 1233.99707031 c 2,16,-1
 1759.31347656 1439.6640625 l 1,17,-1
 1811.82421875 1456.95507812 l 1,18,-1
 1811.82421875 1401.67089844 l 1,19,-1
 1811.82421875 1221.49316406 l 1,20,-1
 1811.82421875 1192.47949219 l 1,21,-1
 1784.24511719 1183.47070312 l 1,22,-1
 1271.04882812 1015.83007812 l 1,23,-1
 1542.87792969 705.600585938 l 2,24,25
 1714.82910156 509.233398438 1714.82910156 509.233398438 1716.66113281 348.509765625 c 0,26,27
 1718.52929688 176.00390625 1718.52929688 176.00390625 1599.81054688 88.1103515625 c 128,-1,28
 1481.09179688 0.216796875 1481.09179688 0.216796875 1260.80957031 0.001953125 c 2,29,-1
 1259.80859375 0.0009765625 l 1,30,-1
 1258.77246094 0 l 1,31,-1
 533.758789062 -0.0966796875 l 2,32,33
 303.560546875 -0.044921875 303.560546875 -0.044921875 182.89453125 123.5703125 c 128,-1,34
 62.228515625 247.186523438 62.228515625 247.186523438 62.2275390625 481.977539062 c 2,35,-1
 62.2265625 682.66015625 l 1,36,-1
 62.2265625 722.66015625 l 1,37,-1
 102.2265625 722.66015625 l 1,38,-1
 276.984375 722.66015625 l 1,39,-1
 316.984375 722.66015625 l 1,40,-1
 316.984375 682.66015625 l 1,41,-1
 316.984375 482.54296875 l 2,42,43
 316.991210938 365.237304688 316.991210938 365.237304688 369.014648438 312.619140625 c 128,-1,44
 421.038085938 260 421.038085938 260 536.546875 260 c 2,0,-1
EndSplineSet
Substitution2: "'init' Initial Forms in Arabic lookup 13 subtable" uniFB90
Substitution2: "'medi' Medial Forms in Arabic lookup 11 subtable" uniFB91
Substitution2: "'fina' Terminal Forms in Arabic lookup 9 subtable" uniFB8F
EndChar

StartChar: afii57514
Encoding: 1722 1722 83
Width: 1442
VWidth: 2591
GlyphClass: 2
Flags: W
AnchorPoint: "Anchor-10" 597.158 963.159 basechar 0
AnchorPoint: "Anchor-7" 701.132 -668.307 basechar 0
LayerCount: 2
Fore
SplineSet
1367.5625 91.0478515625 m 2,0,1
 1361.72070312 -176.330078125 1361.72070312 -176.330078125 1203.71582031 -313.46484375 c 0,2,3
 1045.32128906 -450.940429688 1045.32128906 -450.940429688 748.819335938 -450.940429688 c 2,4,-1
 694.1015625 -450.940429688 l 2,5,6
 384.791015625 -451 384.791015625 -451 224.205078125 -300.438476562 c 0,7,8
 63.224609375 -150.338867188 63.224609375 -150.338867188 63.12109375 141.263671875 c 2,9,-1
 63 483.987304688 l 1,10,-1
 62.9873046875 521.9921875 l 1,11,-1
 100.9921875 522 l 1,12,-1
 281.870117188 522.033203125 l 1,13,-1
 319.877929688 522.041015625 l 1,14,-1
 319.877929688 484.033203125 l 1,15,-1
 319.877929688 142.461914062 l 2,16,17
 320.000976562 -27.8955078125 320.000976562 -27.8955078125 410.552734375 -108.776367188 c 0,18,19
 500.833007812 -189.639648438 500.833007812 -189.639648438 696.272460938 -189.639648438 c 2,20,-1
 747.399414062 -189.639648438 l 2,21,22
 944.672851562 -190.000976562 944.672851562 -190.000976562 1034.30761719 -121.837890625 c 0,23,24
 1124.24511719 -53.8095703125 1124.24511719 -53.8095703125 1124.16210938 86.53515625 c 2,25,-1
 1123.81445312 672.795898438 l 1,26,-1
 1123.79199219 710.798828125 l 1,27,-1
 1161.79492188 710.818359375 l 1,28,-1
 1342.24804688 710.911132812 l 1,29,-1
 1381.09375 710.931640625 l 1,30,-1
 1380.25878906 672.095703125 l 1,31,-1
 1367.5625 91.0478515625 l 2,0,1
EndSplineSet
Substitution2: "'init' Initial Forms in Arabic lookup 13 subtable" uni06BA.init
Substitution2: "'medi' Medial Forms in Arabic lookup 11 subtable" uni06BA.medi
Substitution2: "'fina' Terminal Forms in Arabic lookup 9 subtable" uniFB9F
EndChar

StartChar: uni06F4
Encoding: 1780 1780 90
Width: 1156
VWidth: 2591
GlyphClass: 2
Flags: W
LayerCount: 2
Fore
SplineSet
827.729492188 560.797851562 m 0,0,1
 637.370117188 561 637.370117188 561 495.719726562 615.09375 c 2,2,-1
 492.454101562 616.340820312 l 1,3,-1
 493.033203125 612.893554688 l 2,4,5
 506.84375 530.759765625 506.84375 530.759765625 506.8515625 349.923828125 c 2,6,-1
 506.864257812 41.9111328125 l 1,7,-1
 506.866210938 3.9091796875 l 1,8,-1
 256.096679688 3.9091796875 l 1,9,-1
 256.076171875 349.885742188 l 2,10,11
 256 811.53515625 256 811.53515625 137.438476562 1216.79394531 c 2,12,-1
 126.920898438 1252.73925781 l 1,13,-1
 369.942382812 1327.69335938 l 1,14,15
 402.299804688 1146.65820312 402.299804688 1146.65820312 426.673828125 1047.13867188 c 128,-1,16
 451.047851562 947.618164062 451.047851562 947.618164062 468.463867188 926.719726562 c 2,17,-1
 478.463867188 914.719726562 l 1,18,-1
 481.743164062 910.783203125 l 1,19,-1
 481.997070312 915.900390625 l 2,20,21
 501.903320312 1317 501.903320312 1317 854.5 1317 c 0,22,23
 965.521484375 1317 965.521484375 1317 1055.40136719 1278.85058594 c 1,24,-1
 1033.19335938 1052.05175781 l 1,25,26
 953.1640625 1078.00097656 953.1640625 1078.00097656 889.999023438 1078.04003906 c 0,27,28
 848.397460938 1078.02636719 848.397460938 1078.02636719 815.470703125 1067.97070312 c 128,-1,29
 782.543945312 1057.9140625 782.543945312 1057.9140625 758.329101562 1037.76855469 c 128,-1,30
 734.115234375 1017.62402344 734.115234375 1017.62402344 718.795898438 987.455078125 c 0,31,32
 695 941.487304688 695 941.487304688 695 866 c 0,33,34
 695 809.00390625 695 809.00390625 866.8515625 808.645507812 c 0,35,36
 976.017578125 808.005859375 976.017578125 808.005859375 1088.59472656 843.91015625 c 1,37,-1
 1092.29199219 596.346679688 l 1,38,39
 959.749023438 560.998046875 959.749023438 560.998046875 827.729492188 560.797851562 c 0,0,1
EndSplineSet
PairPos2: "'kern' Horizontal Kerning lookup 15-4" uni06F5 dx=-40 dy=0 dh=-40 dv=0 dx=0 dy=0 dh=0 dv=0
EndChar

StartChar: uni06F5
Encoding: 1781 1781 91
Width: 1258
VWidth: 2591
GlyphClass: 2
Flags: W
LayerCount: 2
Fore
SplineSet
391.478515625 263.59765625 m 4,0,1
 510.3515625 262.993164062 510.3515625 262.993164062 528.594726562 460.016601562 c 2,2,-1
 531.7890625 494.513671875 l 1,3,-1
 725.7578125 494.513671875 l 1,4,-1
 727.28125 458.098632812 l 2,5,6
 735.811153234 261.031756167 735.811153234 261.031756167 870.293945312 259.508789062 c 0,7,8
 955.012658114 257.9626412 955.012658114 257.9626412 954.334960938 364.615234375 c 0,9,10
 953.998136129 522.702249491 953.998136129 522.702249491 629.84765625 899.49609375 c 1,11,12
 304.296836033 515.38390742 304.296836033 515.38390742 301.394175741 358 c 0,13,14
 299.660811011 264.015969218 299.660811011 264.015969218 391.478515625 263.59765625 c 4,0,1
622.732421875 121.966796875 m 1,15,16
 542.310417221 0.506403015536 542.310417221 0.506403015536 384.772460938 -0.1123046875 c 0,17,18
 62 -0.0009765625 62 -0.0009765625 62.068359375 336.861328125 c 0,19,20
 62.0000035246 607.254612383 62.0000035246 607.254612383 460.544921875 1079.34472656 c 1,21,22
 457.289494515 1083.04725124 457.289494515 1083.04725124 433.23828125 1108.33007812 c 2,23,-1
 409.47265625 1133.31054688 l 1,24,-1
 584.185546875 1335.23339844 l 1,25,26
 1195.00390625 710.60546875 1195.00390625 710.60546875 1195.99902344 355.302734375 c 128,-1,27
 1196.99414062 0 1196.99414062 0 867.3671875 0.021484375 c 0,28,29
 704.075331987 6.60395610078e-07 704.075331987 6.60395610078e-07 622.732421875 121.966796875 c 1,15,16
EndSplineSet
PairPos2: "'kern' Horizontal Kerning lookup 15-4" uni06F7 dx=-100 dy=0 dh=-100 dv=0 dx=0 dy=0 dh=0 dv=0
PairPos2: "'kern' Horizontal Kerning lookup 15-4" uni06F6 dx=-30 dy=0 dh=-30 dv=0 dx=0 dy=0 dh=0 dv=0
PairPos2: "'kern' Horizontal Kerning lookup 15-4" uni06F4 dx=-30 dy=0 dh=-30 dv=0 dx=0 dy=0 dh=0 dv=0
PairPos2: "'kern' Horizontal Kerning lookup 15-4" uni06F3 dx=-100 dy=0 dh=-100 dv=0 dx=0 dy=0 dh=0 dv=0
PairPos2: "'kern' Horizontal Kerning lookup 15-4" uni06F2 dx=-70 dy=0 dh=-70 dv=0 dx=0 dy=0 dh=0 dv=0
EndChar

StartChar: uni06F6
Encoding: 1782 1782 92
Width: 1000
VWidth: 2591
GlyphClass: 2
Flags: W
LayerCount: 2
Fore
SplineSet
448.1328125 512.106445312 m 1,0,1
 95 573 95 573 94.8466796875 894.379882812 c 0,2,3
 95 1071 95 1071 200.830078125 1188.22070312 c 0,4,5
 316 1316 316 1316 506 1316 c 0,6,7
 638.855801419 1316 638.855801419 1316 735.005859375 1262.49414062 c 2,8,-1
 754.6640625 1251.5546875 l 1,9,-1
 753.149414062 1012.421875 l 5,10,11
 642 1070 642 1070 539.98828125 1070.30664062 c 0,12,13
 453 1070 453 1070 398.147310564 1026.48161008 c 0,14,15
 343 983 343 983 343.496582031 908.059082031 c 0,16,17
 344 810 344 810 411.52734375 775.061523438 c 0,18,19
 469 745 469 745 540 745.451064434 c 0,20,21
 593 746 593 746 628.048828125 770.532226562 c 0,22,23
 709 828 709 828 788.021484375 883.715820312 c 2,24,-1
 822.251953125 907.983398438 l 1,25,-1
 954.7734375 675.333984375 l 1,26,27
 818 585 818 585 654.423828125 365.897949219 c 0,28,29
 491 146 491 146 375.091796875 -52.1767578125 c 1,30,-1
 147.938476562 55.6494140625 l 1,31,32
 215 158 215 158 448.1328125 512.106445312 c 1,0,1
EndSplineSet
PairPos2: "'kern' Horizontal Kerning lookup 15-4" uni06F8 dx=-30 dy=0 dh=-30 dv=0 dx=0 dy=0 dh=0 dv=0
PairPos2: "'kern' Horizontal Kerning lookup 15-4" uni06F7 dx=-30 dy=0 dh=-30 dv=0 dx=0 dy=0 dh=0 dv=0
PairPos2: "'kern' Horizontal Kerning lookup 15-4" uni06F5 dx=-70 dy=0 dh=-70 dv=0 dx=0 dy=0 dh=0 dv=0
EndChar

StartChar: uniFB8F
Encoding: 64399 64399 107
Width: 2022
VWidth: 2591
GlyphClass: 2
Flags: W
AnchorPoint: "Anchor-7" 849.692 -192.794 basechar 0
AnchorPoint: "Anchor-10" 599.382 1393.15 basechar 0
LayerCount: 2
Fore
SplineSet
1259.15136719 0.3837890625 m 2,0,-1
 533.776367188 -0.0966796875 l 2,1,2
 303.557617188 -0.044921875 303.557617188 -0.044921875 182.892578125 123.568359375 c 128,-1,3
 62.228515625 247.182617188 62.228515625 247.182617188 62.2275390625 481.977539062 c 2,4,-1
 62.2265625 682.66015625 l 1,5,-1
 62.2265625 722.66015625 l 1,6,-1
 102.2265625 722.66015625 l 1,7,-1
 276.984375 722.66015625 l 1,8,-1
 316.984375 722.66015625 l 1,9,-1
 316.984375 682.66015625 l 1,10,-1
 316.984375 482.545898438 l 2,11,12
 316.998046875 368.408203125 316.998046875 368.408203125 370.525390625 314.131835938 c 0,13,14
 423.456054688 260.3125 423.456054688 260.3125 536.587890625 260.200195312 c 2,15,-1
 1260.65039062 259.48046875 l 2,16,17
 1374.53613281 259.2578125 1374.53613281 259.2578125 1421.73828125 284.788085938 c 128,-1,18
 1468.94042969 310.319335938 1468.94042969 310.319335938 1470.40722656 355.534179688 c 0,19,20
 1470.49414062 358.19140625 1470.49414062 358.19140625 1468.90332031 363.307617188 c 128,-1,21
 1467.31152344 368.423828125 1467.31152344 368.423828125 1463.57324219 376.49609375 c 128,-1,22
 1459.83398438 384.567382812 1459.83398438 384.567382812 1454.35742188 394.471679688 c 128,-1,23
 1448.88085938 404.376953125 1448.88085938 404.376953125 1440.50683594 417.325195312 c 128,-1,24
 1432.1328125 430.274414062 1432.1328125 430.274414062 1422.00683594 444.381835938 c 128,-1,25
 1411.88085938 458.489257812 1411.88085938 458.489257812 1398.109375 475.73046875 c 128,-1,26
 1384.33691406 492.971679688 1384.33691406 492.971679688 1368.75292969 510.745117188 c 2,27,-1
 1048.06054688 876.479492188 l 2,28,29
 990.9453125 942.091796875 990.9453125 942.091796875 991.30078125 1039.23046875 c 0,30,31
 992.314453125 1110.8125 992.314453125 1110.8125 1029.63671875 1161.38378906 c 128,-1,32
 1066.95996094 1211.95410156 1066.95996094 1211.95410156 1135.06835938 1234.38085938 c 2,33,-1
 1759.66699219 1440.04785156 l 1,34,-1
 1812.17773438 1457.33886719 l 1,35,-1
 1812.17773438 1402.0546875 l 1,36,-1
 1812.17773438 1221.87695312 l 1,37,-1
 1812.17773438 1192.86328125 l 1,38,-1
 1784.59863281 1183.85449219 l 1,39,-1
 1270.90917969 1016.05273438 l 1,40,-1
 1800.90332031 400.88671875 l 2,41,42
 1920.24316406 262.131835938 1920.24316406 262.131835938 2004.97460938 260.47265625 c 2,43,-1
 2029.11816406 260 l 2,44,45
 2044.37304688 260 2044.37304688 260 2055.8125 254.771484375 c 128,-1,46
 2067.25292969 249.543945312 2067.25292969 249.543945312 2073.77929688 238.890625 c 128,-1,47
 2080.3046875 228.237304688 2080.3046875 228.237304688 2084.37792969 218.354492188 c 128,-1,48
 2088.45019531 208.470703125 2088.45019531 208.470703125 2089.89257812 192.650390625 c 128,-1,49
 2091.33398438 176.831054688 2091.33398438 176.831054688 2091.62304688 168.2109375 c 128,-1,50
 2091.91113281 159.591796875 2091.91113281 159.591796875 2091.79101562 144.958984375 c 0,51,52
 2091.74609375 139.477539062 2091.74609375 139.477539062 2091.74609375 137 c 2,53,-1
 2091.74609375 126.052734375 l 2,54,55
 2091.75 124.827148438 2091.75 124.827148438 2091.87109375 113.052734375 c 128,-1,56
 2091.9921875 101.278320312 2091.9921875 101.278320312 2091.92480469 97.291015625 c 128,-1,57
 2091.85742188 93.3046875 2091.85742188 93.3046875 2091.3046875 81.4208984375 c 128,-1,58
 2090.75292969 69.537109375 2090.75292969 69.537109375 2089.64550781 64.1064453125 c 128,-1,59
 2088.53808594 58.67578125 2088.53808594 58.67578125 2086.32714844 48.2666015625 c 128,-1,60
 2084.11621094 37.8564453125 2084.11621094 37.8564453125 2080.984375 32.5654296875 c 128,-1,61
 2077.85253906 27.2734375 2077.85253906 27.2734375 2072.99902344 19.919921875 c 128,-1,62
 2068.14453125 12.5673828125 2068.14453125 12.5673828125 2062.00292969 8.9970703125 c 128,-1,63
 2055.86230469 5.4267578125 2055.86230469 5.4267578125 2047.37988281 2.7138671875 c 128,-1,64
 2038.89746094 0 2038.89746094 0 2028.74609375 0 c 2,65,-1
 2014.12792969 0 l 2,66,67
 1916.32519531 0 1916.32519531 0 1829.56835938 43.078125 c 128,-1,68
 1742.81152344 86.15625 1742.81152344 86.15625 1670.74414062 168.782226562 c 1,69,70
 1618.35742188 82.5185546875 1618.35742188 82.5185546875 1514.48535156 41.5908203125 c 128,-1,71
 1410.61425781 0.6630859375 1410.61425781 0.6630859375 1259.15136719 0.3837890625 c 2,0,-1
EndSplineSet
EndChar

StartChar: uniFB9F
Encoding: 64415 64415 115
Width: 1590
VWidth: 2591
GlyphClass: 2
Flags: W
AnchorPoint: "Anchor-7" 691 -627.5 basechar 0
AnchorPoint: "Anchor-10" 644.402 845.573 basechar 0
LayerCount: 2
Fore
SplineSet
1594.9765625 0 m 2,0,-1
 1557.31738281 0 l 2,1,2
 1499.90722656 0 1499.90722656 0 1452.85351562 9.4150390625 c 128,-1,3
 1405.89257812 18.8134765625 1405.89257812 18.8134765625 1368.8046875 38.4599609375 c 2,4,-1
 1366.07324219 39.90625 l 1,5,-1
 1365.87207031 36.822265625 l 2,6,7
 1350.09863281 -204.966796875 1350.09863281 -204.966796875 1192.43261719 -327.888671875 c 128,-1,8
 1034.6015625 -450.940429688 1034.6015625 -450.940429688 748.819335938 -450.940429688 c 2,9,-1
 694.10546875 -450.940429688 l 2,10,11
 266.29296875 -450.983398438 266.29296875 -450.983398438 126.3046875 -167.640625 c 0,12,13
 94.8583984375 -103.407226562 94.8583984375 -103.407226562 79.0576171875 -26.18359375 c 128,-1,14
 63.255859375 51.0400390625 63.255859375 51.0400390625 63.12109375 141.263671875 c 2,15,-1
 63 483.987304688 l 1,16,-1
 62.9873046875 521.9921875 l 1,17,-1
 100.9921875 522 l 1,18,-1
 281.870117188 522.033203125 l 1,19,-1
 319.877929688 522.041015625 l 1,20,-1
 319.877929688 484.033203125 l 1,21,-1
 319.877929688 142.4609375 l 2,22,23
 319.93359375 -27.828125 319.93359375 -27.828125 410.5546875 -108.77734375 c 128,-1,24
 501.076171875 -189.639648438 501.076171875 -189.639648438 696.272460938 -189.639648438 c 2,25,-1
 747.401367188 -189.639648438 l 2,26,27
 944.633789062 -189.811523438 944.633789062 -189.811523438 1034.31152344 -121.836914062 c 0,28,29
 1124.24609375 -53.6689453125 1124.24609375 -53.6689453125 1124.16210938 86.53515625 c 2,30,-1
 1123.81445312 672.795898438 l 1,31,-1
 1123.79199219 710.798828125 l 1,32,-1
 1161.79492188 710.818359375 l 1,33,-1
 1342.24804688 710.911132812 l 1,34,-1
 1380.26757812 710.930664062 l 1,35,-1
 1380.26757812 672.911132812 l 1,36,-1
 1380.26757812 457.27734375 l 2,37,38
 1380.1484375 352.3125 1380.1484375 352.3125 1424.10449219 306.17578125 c 128,-1,39
 1468.09863281 260 1468.09863281 260 1566.40722656 260 c 2,40,-1
 1594.9765625 260 l 2,41,42
 1600.03222656 260 1600.03222656 260 1604.98339844 258.963867188 c 128,-1,43
 1609.93359375 257.927734375 1609.93359375 257.927734375 1614.8046875 255.846679688 c 0,44,45
 1624.55859375 251.6796875 1624.55859375 251.6796875 1631.45703125 244.935546875 c 0,46,47
 1644 232.674804688 1644 232.674804688 1650.15039062 213.345703125 c 0,48,49
 1653.26660156 203.552734375 1653.26660156 203.552734375 1655.02148438 195.1875 c 128,-1,50
 1656.77539062 186.823242188 1656.77539062 186.823242188 1657.16992188 179.93359375 c 128,-1,51
 1657.57226562 172.930664062 1657.57226562 172.930664062 1657.77441406 162.186523438 c 128,-1,52
 1657.9765625 151.44140625 1657.9765625 151.44140625 1657.9765625 137 c 2,53,-1
 1657.9765625 126.009765625 l 2,54,55
 1657.97753906 123.659179688 1657.97753906 123.659179688 1658.00683594 118.629882812 c 0,56,57
 1657.90527344 114.927734375 1657.90527344 114.927734375 1657.90527344 110.918945312 c 128,-1,58
 1657.90625 106.909179688 1657.90625 106.909179688 1658.00878906 102.731445312 c 0,59,60
 1658.2109375 94.482421875 1658.2109375 94.482421875 1657.48339844 85.6474609375 c 128,-1,61
 1656.74804688 76.7216796875 1656.74804688 76.7216796875 1655.87695312 67.802734375 c 0,62,63
 1655.44824219 63.419921875 1655.44824219 63.419921875 1654.65429688 59.11328125 c 128,-1,64
 1653.86132812 54.8056640625 1653.86132812 54.8056640625 1652.70410156 50.5712890625 c 0,65,66
 1650.37109375 42.044921875 1650.37109375 42.044921875 1647.36621094 34.412109375 c 0,67,68
 1645.89550781 30.67578125 1645.89550781 30.67578125 1643.93652344 27.232421875 c 128,-1,69
 1641.97753906 23.7890625 1641.97753906 23.7890625 1639.52539062 20.6298828125 c 0,70,71
 1637.88476562 18.515625 1637.88476562 18.515625 1636.11328125 16.5966796875 c 128,-1,72
 1634.34277344 14.677734375 1634.34277344 14.677734375 1632.44433594 12.9560546875 c 128,-1,73
 1630.54589844 11.2333984375 1630.54589844 11.2333984375 1628.515625 9.7021484375 c 0,74,75
 1622.49316406 5.1611328125 1622.49316406 5.1611328125 1613.95019531 2.58984375 c 128,-1,76
 1605.34472656 0 1605.34472656 0 1594.9765625 0 c 2,0,-1
EndSplineSet
EndChar

StartChar: uniFBE8
Encoding: 64488 64488 118
Width: 707
VWidth: 2591
GlyphClass: 2
Flags: W
AnchorPoint: "Anchor-10" 399.938 1258.35 basechar 0
AnchorPoint: "Anchor-7" 417.497 -104.32 basechar 0
LayerCount: 2
Fore
SplineSet
-5.03515625 0 m 2,0,1
 -52.439453125 0 -52.439453125 0 -75.08984375 36.3427734375 c 0,2,3
 -98.0234375 73.142578125 -98.0234375 73.142578125 -98.0234375 126 c 2,4,-1
 -98.0234375 137.009765625 l 2,5,6
 -98.0205078125 147.341796875 -98.0205078125 147.341796875 -97.087890625 157.040039062 c 0,7,8
 -87.1957938819 259.917845191 -87.1957938819 259.917845191 -5.0615234375 260 c 6,9,-1
 227.598632812 260.23046875 l 2,10,11
 314.926757812 260.129882812 314.926757812 260.129882812 352.225585938 295.651367188 c 0,12,13
 370.963867188 313.495117188 370.963867188 313.495117188 380.265625 342.759765625 c 128,-1,14
 389.56640625 372.024414062 389.56640625 372.024414062 389.56640625 412.623046875 c 2,15,-1
 389.56640625 708.689453125 l 1,16,-1
 389.56640625 746.689453125 l 1,17,-1
 427.56640625 746.689453125 l 1,18,-1
 606.322265625 746.689453125 l 1,19,-1
 644.322265625 746.689453125 l 1,20,-1
 644.322265625 708.689453125 l 1,21,-1
 644.322265625 412.47265625 l 2,22,23
 644.235351562 312.020507812 644.235351562 312.020507812 617.478515625 235.389648438 c 128,-1,24
 590.720703125 158.758789062 590.720703125 158.758789062 537.34375 105.81640625 c 0,25,26
 430.53125 -0.1240234375 430.53125 -0.1240234375 228.677734375 -0.06640625 c 2,27,-1
 -5.03515625 0 l 2,0,1
EndSplineSet
EndChar

StartChar: uniFBE9
Encoding: 64489 64489 119
Width: 857
VWidth: 2591
GlyphClass: 2
Flags: W
AnchorPoint: "Anchor-10" 369.939 1164.45 basechar 0
AnchorPoint: "Anchor-7" 368.812 -109.016 basechar 0
LayerCount: 2
Fore
SplineSet
862.2265625 260 m 2,0,1
 925.2265625 260 925.2265625 260 925.2265625 137 c 2,2,-1
 925.2265625 125.954101562 l 2,3,4
 925.219726562 123.479492188 925.219726562 123.479492188 925.257324219 112.987792969 c 0,5,6
 925.662222997 1.89857018995e-11 925.662222997 1.89857018995e-11 862.2265625 0 c 2,7,-1
 841.33203125 0 l 2,8,9
 634.359545308 0 634.359545308 0 530.362304688 112.841796875 c 1,10,11
 411.862701841 1.42108547152e-14 411.862701841 1.42108547152e-14 176.1484375 0 c 2,12,-1
 -5.0234375 0 l 2,13,14
 -98.0234375 0 -98.0234375 0 -98.0234375 126 c 2,15,-1
 -98.0234375 137.009765625 l 2,16,17
 -98.0087890625 188.5703125 -98.0087890625 188.5703125 -74.9594726562 224.28515625 c 128,-1,18
 -51.91015625 260 -51.91015625 260 -5.0234375 260 c 2,19,-1
 181.162109375 260 l 2,20,21
 317.013910561 260 317.013910561 260 367 318.814422679 c 0,22,23
 396.671875 353.726819659 396.671875 353.726819659 396.671875 415.358398438 c 6,24,-1
 396.671875 713.372070312 l 1,25,-1
 653.15625 713.372070312 l 1,26,-1
 653.15625 415.366210938 l 2,27,28
 653.08984375 333.973632812 653.08984375 333.973632812 696.209960938 296.9296875 c 128,-1,29
 739.1953125 260 739.1953125 260 840.405273438 260 c 2,30,-1
 862.2265625 260 l 2,0,1
EndSplineSet
EndChar

StartChar: uniFE73
Encoding: 65139 65139 127
Width: 683
VWidth: 2551
GlyphClass: 2
Flags: W
AnchorPoint: "Anchor-10" 252.404 1488.29 basechar 0
AnchorPoint: "Anchor-7" 252.404 -144.32 basechar 0
LayerCount: 2
Fore
SplineSet
340.298828125 398.2109375 m 2,0,1
 341.198242188 317.33203125 341.198242188 317.33203125 406.791992188 251.193359375 c 0,2,3
 440.083007812 217.903320312 440.083007812 217.903320312 490.678710938 201.301757812 c 128,-1,4
 541.2734375 184.700195312 541.2734375 184.700195312 609.067382812 184.700195312 c 2,5,-1
 675.61328125 184.700195312 l 1,6,-1
 675.61328125 8.9091796875 l 1,7,-1
 539.997070312 8.9091796875 l 2,8,9
 373.116210938 8.9091796875 373.116210938 8.9091796875 268.813476562 113.212890625 c 128,-1,10
 164.509765625 217.515625 164.509765625 217.515625 164.509765625 383.141601562 c 2,11,-1
 164.509765625 409.498046875 l 1,12,-1
 340.298828125 409.498046875 l 1,13,-1
 340.298828125 398.2109375 l 2,0,1
EndSplineSet
EndChar

StartChar: uniFE8E
Encoding: 65166 65166 153
Width: 557
VWidth: 2591
GlyphClass: 2
Flags: W
AnchorPoint: "Anchor-10" 246.923 1491.04 basechar 0
AnchorPoint: "Anchor-7" 273.009 -206.554 basechar 0
LayerCount: 2
Fore
SplineSet
562.901367188 0 m 2,0,-1
 487.231445312 0 l 2,1,2
 368 0 368 0 285.456054688 48.7314453125 c 0,3,4
 203 97 203 97 161.918945312 190.0703125 c 0,5,6
 120.69140625 283.700837241 120.69140625 283.700837241 120.69140625 415.251953125 c 2,7,-1
 120.69140625 1313.18847656 l 5,8,-1
 120.69140625 1353.18847656 l 5,9,-1
 160.69140625 1353.18847656 l 5,10,-1
 330 1353.18847656 l 5,11,-1
 370 1353.18847656 l 5,12,-1
 370 1313.18847656 l 5,13,-1
 370 414.139648438 l 2,14,15
 370 371 370 371 377.092773438 340.887695312 c 0,16,17
 384 311 384 311 399.44921875 293.319335938 c 0,18,19
 415 275 415 275 436.575195312 267.7109375 c 0,20,21
 458 260 458 260 490.014648438 260 c 2,22,-1
 562.901367188 260 l 2,23,24
 578 260 578 260 589.793945312 254.802734375 c 0,25,26
 601 250 601 250 607.881835938 239.001953125 c 0,27,28
 614 228 614 228 618.544921875 218.5625 c 128,-1,29
 623 209 623 209 624.080078125 192.955078125 c 0,30,31
 626 177 626 177 625.803710938 168.578125 c 0,32,33
 626 160 626 160 625.954101562 145.333984375 c 0,34,35
 626 143 626 143 625.927734375 142.3359375 c 0,36,37
 626 141 626 141 625.91015625 139.750976562 c 0,38,39
 626 138 626 138 625.901367188 137 c 2,40,-1
 625.901367188 126.04296875 l 2,41,42
 626 76 626 76 618.3515625 50.333984375 c 0,43,44
 604 0 604 0 562.901367188 0 c 2,0,-1
EndSplineSet
EndChar

StartChar: uniFEA2
Encoding: 65186 65186 173
Width: 1359
VWidth: 2591
GlyphClass: 2
Flags: W
AnchorPoint: "Anchor-7" 471.334 -795.653 basechar 0
AnchorPoint: "Anchor-10" 631.761 1313.94 basechar 0
LayerCount: 2
Fore
SplineSet
1311.75683594 0 m 2,0,1
 952.506930066 0 952.506930066 0 892.821289062 279.424804688 c 1,2,3
 457.556819062 204.771942904 457.556819062 204.771942904 349.669921875 7.6201171875 c 0,4,5
 313.827148438 -57.876953125 313.827148438 -57.876953125 313.6875 -139.899414062 c 0,6,7
 312.9453125 -289.061523438 312.9453125 -289.061523438 430.348632812 -364.196289062 c 128,-1,8
 547.750976562 -439.330078125 547.750976562 -439.330078125 804.452148438 -439.172851562 c 2,9,-1
 1256.33007812 -438.895507812 l 1,10,-1
 1256.33007812 -695.5546875 l 1,11,-1
 792.391601562 -694.58203125 l 2,12,13
 386.927572196 -693.97603814 386.927572196 -693.97603814 222.841227504 -536.364972195 c 128,-1,14
 58.7548828125 -378.75390625 58.7548828125 -378.75390625 61.90625 -130.532226562 c 128,-1,15
 65.0576171875 117.689453125 65.0576171875 117.689453125 256.356445312 285.349609375 c 128,-1,16
 447.654296875 453.009765625 447.654296875 453.009765625 813.876953125 524.62109375 c 1,17,-1
 786.708007812 540.283203125 l 2,18,19
 540.837225513 680.940662802 540.837225513 680.940662802 341.344726562 522.440429688 c 2,20,-1
 240.211914062 442.088867188 l 1,21,-1
 72.734375 630.235351562 l 1,22,-1
 165.204101562 708.239257812 l 2,23,24
 500.611694186 991.659408539 500.611694186 991.659408539 865.68359375 781.115234375 c 2,25,-1
 1054.61816406 672.153320312 l 2,26,27
 1151.41222564 616.835368783 1151.41222564 616.835368783 1222.91015625 601.70703125 c 2,28,-1
 1254.88867188 594.939453125 l 1,29,-1
 1254.88 347.55078125 l 1,30,-1
 1216.92089844 344.19140625 l 2,31,32
 1164.65234375 339.313476562 1164.65234375 339.313476562 1120.76464844 332.404296875 c 1,33,34
 1145.26855469 260 1145.26855469 260 1313.16308594 260 c 2,35,-1
 1363.9765625 260 l 2,36,37
 1427.882661 260 1427.882661 260 1427.00292969 142.3359375 c 4,38,39
 1426.9765625 139.204101562 1426.9765625 139.204101562 1426.9765625 137 c 2,40,-1
 1426.9765625 126.009765625 l 2,41,42
 1426.9765625 -2.22951787106e-13 1426.9765625 -2.22951787106e-13 1363.9765625 0 c 2,43,-1
 1311.75683594 0 l 2,0,1
EndSplineSet
EndChar

StartChar: uniFEA3
Encoding: 65187 65187 174
Width: 1282
VWidth: 2591
GlyphClass: 2
Flags: W
AnchorPoint: "Anchor-10" 470.912 1277.39 basechar 0
AnchorPoint: "Anchor-7" 425.185 -211.728 basechar 0
LayerCount: 2
Fore
SplineSet
-5.0234375 0 m 2,0,1
 -52.7666015625 0 -52.7666015625 0 -75.39453125 36.8232421875 c 128,-1,2
 -98.0234375 73.646484375 -98.0234375 73.646484375 -98.0234375 126 c 2,3,-1
 -98.0234375 137.021484375 l 2,4,5
 -97.9931640625 190.807617188 -97.9931640625 190.807617188 -78.1591796875 221.5078125 c 0,6,7
 -52.330078125 260 -52.330078125 260 -5.0234375 260 c 2,8,-1
 300 260 l 2,9,10
 499.299804688 260 499.299804688 260 667.426757812 347.692382812 c 2,11,-1
 884.158203125 460.735351562 l 1,12,-1
 753.952148438 536.118164062 l 2,13,14
 627.83984375 608.560546875 627.83984375 608.560546875 519.16796875 603.8671875 c 128,-1,15
 410.49609375 599.174804688 410.49609375 599.174804688 308.638671875 518.247070312 c 2,16,-1
 237.119140625 461.423828125 l 1,17,-1
 207.505859375 437.895507812 l 1,18,-1
 182.358398438 466.146484375 l 1,19,-1
 67.3408203125 595.358398438 l 1,20,-1
 40.0283203125 626.041992188 l 1,21,-1
 71.4267578125 652.528320312 l 1,22,-1
 132.509765625 704.055664062 l 2,23,24
 297.943359375 843.63671875 297.943359375 843.63671875 475.046875 862.245117188 c 128,-1,25
 652.150390625 880.854492188 652.150390625 880.854492188 832.977539062 776.921875 c 2,26,-1
 1021.97753906 667.921875 l 2,27,28
 1070.02050781 640.205078125 1070.02050781 640.205078125 1112.29882812 622.610351562 c 128,-1,29
 1154.57714844 605.015625 1154.57714844 605.015625 1190.16601562 597.520507812 c 2,30,-1
 1222.18 590.77734375 l 1,31,-1
 1222.18 355.331054688 l 1,32,-1
 793.1953125 122.638671875 l 6,33,34
 568.193359375 0 568.193359375 0 302 0 c 2,35,-1
 -5.0234375 0 l 2,0,1
EndSplineSet
EndChar

StartChar: uniFEA4
Encoding: 65188 65188 175
Width: 1329
VWidth: 2591
GlyphClass: 2
Flags: W
AnchorPoint: "Anchor-7" 425.185 -211.728 basechar 0
AnchorPoint: "Anchor-10" 470.912 1277.39 basechar 0
LayerCount: 2
Fore
SplineSet
878.88671875 169.32421875 m 1,0,-1
 793.1953125 122.638671875 l 2,1,2
 568.193359375 0 568.193359375 0 302 0 c 2,3,-1
 -5.0234375 0 l 2,4,5
 -52.7666015625 0 -52.7666015625 0 -75.39453125 36.8232421875 c 128,-1,6
 -98.0234375 73.646484375 -98.0234375 73.646484375 -98.0234375 126 c 2,7,-1
 -98.0234375 137.021484375 l 2,8,9
 -97.9931640625 190.807617188 -97.9931640625 190.807617188 -78.1591796875 221.5078125 c 0,10,11
 -52.330078125 260 -52.330078125 260 -5.0234375 260 c 2,12,-1
 300 260 l 2,13,14
 499.299804688 260 499.299804688 260 667.426757812 347.692382812 c 2,15,-1
 884.158203125 460.735351562 l 1,16,-1
 753.952148438 536.118164062 l 2,17,18
 627.83984375 608.560546875 627.83984375 608.560546875 519.16796875 603.8671875 c 128,-1,19
 410.49609375 599.174804688 410.49609375 599.174804688 308.638671875 518.247070312 c 2,20,-1
 237.119140625 461.423828125 l 1,21,-1
 207.505859375 437.895507812 l 1,22,-1
 182.358398438 466.146484375 l 1,23,-1
 67.3408203125 595.358398438 l 1,24,-1
 40.0283203125 626.041992188 l 1,25,-1
 71.4267578125 652.528320312 l 1,26,-1
 132.509765625 704.055664062 l 2,27,28
 215.032226562 773.681640625 215.032226562 773.681640625 301.0390625 813.333984375 c 128,-1,29
 387.046875 852.986328125 387.046875 852.986328125 475.024414062 862.276367188 c 128,-1,30
 563.001953125 871.565429688 563.001953125 871.565429688 652.950195312 850.219726562 c 128,-1,31
 742.897460938 828.873046875 742.897460938 828.873046875 832.977539062 776.921875 c 2,32,-1
 1022.00195312 667.907226562 l 2,33,34
 1115.6171875 613.754882812 1115.6171875 613.754882812 1190.43164062 597.467773438 c 2,35,-1
 1222.18066406 590.555664062 l 1,36,-1
 1222.18 355.33203125 l 1,37,-1
 1199.62988281 344.068359375 l 1,38,-1
 1097.54492188 288.451171875 l 1,39,40
 1121.87988281 274.233398438 1121.87988281 274.233398438 1150.39355469 267.1171875 c 128,-1,41
 1178.90722656 260 1178.90722656 260 1213.06835938 260 c 2,42,-1
 1333.9765625 260 l 2,43,44
 1349.34765625 260 1349.34765625 260 1360.86914062 254.802734375 c 128,-1,45
 1372.38964844 249.60546875 1372.38964844 249.60546875 1378.95703125 239.001953125 c 128,-1,46
 1385.52539062 228.3984375 1385.52539062 228.3984375 1389.62011719 218.5625 c 128,-1,47
 1393.71484375 208.727539062 1393.71484375 208.727539062 1395.15527344 192.955078125 c 128,-1,48
 1396.59570312 177.18359375 1396.59570312 177.18359375 1396.87890625 168.578125 c 128,-1,49
 1397.16308594 159.97265625 1397.16308594 159.97265625 1397.02929688 145.333984375 c 0,50,51
 1397.01074219 143.380859375 1397.01074219 143.380859375 1397.00292969 142.3359375 c 128,-1,52
 1396.99414062 141.291992188 1396.99414062 141.291992188 1396.98535156 139.750976562 c 128,-1,53
 1396.9765625 138.209960938 1396.9765625 138.209960938 1396.9765625 137 c 2,54,-1
 1396.9765625 126.020507812 l 2,55,56
 1397.00292969 77.5126953125 1397.00292969 77.5126953125 1389.45605469 50.578125 c 0,57,58
 1375.39941406 0 1375.39941406 0 1333.9765625 0 c 2,59,-1
 1216.07324219 0 l 2,60,61
 995.375976562 0 995.375976562 0 878.88671875 169.32421875 c 1,0,-1
EndSplineSet
EndChar

StartChar: uniFEAA
Encoding: 65194 65194 181
Width: 1204
VWidth: 2591
GlyphClass: 2
Flags: W
AnchorPoint: "Anchor-7" 428.382 -204.53 basechar 0
AnchorPoint: "Anchor-10" 403.659 1338.16 basechar 0
LayerCount: 2
Fore
SplineSet
1208.9765625 0 m 2,0,-1
 1193.35644531 0 l 2,1,2
 1104.38085938 0 1104.38085938 0 1024.83203125 36.0224609375 c 128,-1,3
 945.240234375 72.0634765625 945.240234375 72.0634765625 878.459960938 141.452148438 c 2,4,-1
 876.779296875 143.198242188 l 1,5,-1
 875.383789062 141.216796875 l 2,6,7
 775.938476562 0 775.938476562 0 482.64453125 0 c 2,8,-1
 101.899414062 0 l 1,9,-1
 63.8994140625 0 l 1,10,-1
 63.8994140625 38 l 1,11,-1
 63.8994140625 222 l 1,12,-1
 63.8994140625 260 l 1,13,-1
 101.899414062 260 l 1,14,-1
 469.596679688 260 l 2,15,16
 487.479492188 260 487.479492188 260 504.026367188 260.595703125 c 0,17,18
 558.697265625 262.565429688 558.697265625 262.565429688 596.698242188 270.12109375 c 0,19,20
 604.3203125 271.63671875 604.3203125 271.63671875 611.166992188 273.319335938 c 128,-1,21
 618.013671875 275.001953125 618.013671875 275.001953125 624.13671875 276.868164062 c 128,-1,22
 630.259765625 278.735351562 630.259765625 278.735351562 635.620117188 280.778320312 c 128,-1,23
 640.98046875 282.822265625 640.98046875 282.822265625 645.610351562 285.057617188 c 128,-1,24
 650.240234375 287.291992188 650.240234375 287.291992188 654.119140625 289.713867188 c 0,25,26
 673.432617188 301.771484375 673.432617188 301.771484375 681.243164062 314.713867188 c 128,-1,27
 689.115234375 327.755859375 689.115234375 327.755859375 688.53515625 343.642578125 c 0,28,29
 687.850585938 363.259765625 687.850585938 363.259765625 677.198242188 388.025390625 c 128,-1,30
 666.545898438 412.791015625 666.545898438 412.791015625 646.129882812 442.520507812 c 128,-1,31
 625.712890625 472.25 625.712890625 472.25 595.361328125 507.353515625 c 2,32,-1
 321.017578125 824.64453125 l 1,33,-1
 298.930664062 850.189453125 l 1,34,-1
 321.703125 875.124023438 l 1,35,-1
 447.529296875 1012.89648438 l 1,36,-1
 476.953125 1045.11425781 l 1,37,-1
 504.825195312 1011.54492188 l 1,38,-1
 1042.23242188 364.278320312 l 2,39,40
 1128.83691406 260 1128.83691406 260 1200.41015625 260 c 2,41,-1
 1208.9765625 260 l 2,42,43
 1224.25683594 260 1224.25683594 260 1235.66308594 254.81640625 c 0,44,45
 1241.3046875 252.252929688 1241.3046875 252.252929688 1245.71289062 248.376953125 c 128,-1,46
 1250.12207031 244.500976562 1250.12207031 244.500976562 1253.35546875 239.263671875 c 128,-1,47
 1256.70019531 233.845703125 1256.70019531 233.845703125 1259.41503906 228.633789062 c 128,-1,48
 1262.12890625 223.421875 1262.12890625 223.421875 1264.21191406 218.420898438 c 128,-1,49
 1266.25488281 213.516601562 1266.25488281 213.516601562 1267.671875 207.024414062 c 128,-1,50
 1269.08886719 200.53125 1269.08886719 200.53125 1269.8515625 192.49609375 c 0,51,52
 1270.07324219 190.16796875 1270.07324219 190.16796875 1270.26953125 187.98828125 c 128,-1,53
 1270.46582031 185.80859375 1270.46582031 185.80859375 1270.63671875 183.783203125 c 128,-1,54
 1270.80859375 181.758789062 1270.80859375 181.758789062 1270.95507812 179.8828125 c 128,-1,55
 1271.1015625 178.0078125 1271.1015625 178.0078125 1271.22265625 176.287109375 c 128,-1,56
 1271.34375 174.56640625 1271.34375 174.56640625 1271.44042969 172.997070312 c 128,-1,57
 1271.53710938 171.428710938 1271.53710938 171.428710938 1271.609375 170.013671875 c 128,-1,58
 1271.68066406 168.598632812 1271.68066406 168.598632812 1271.72753906 167.336914062 c 0,59,60
 1271.89257812 162.899414062 1271.89257812 162.899414062 1271.95996094 156.872070312 c 128,-1,61
 1272.02636719 150.844726562 1272.02636719 150.844726562 1271.99414062 143.244140625 c 0,62,63
 1271.98535156 141.1171875 1271.98535156 141.1171875 1271.98144531 139.556640625 c 128,-1,64
 1271.9765625 137.997070312 1271.9765625 137.997070312 1271.9765625 137 c 2,65,-1
 1271.9765625 126.009765625 l 2,66,67
 1271.97753906 123.659179688 1271.97753906 123.659179688 1272.00683594 118.629882812 c 0,68,69
 1271.90527344 114.927734375 1271.90527344 114.927734375 1271.90527344 110.918945312 c 128,-1,70
 1271.90625 106.909179688 1271.90625 106.909179688 1272.00878906 102.731445312 c 0,71,72
 1272.2109375 94.482421875 1272.2109375 94.482421875 1271.48339844 85.6474609375 c 128,-1,73
 1270.74804688 76.7216796875 1270.74804688 76.7216796875 1269.87695312 67.802734375 c 0,74,75
 1269.44824219 63.419921875 1269.44824219 63.419921875 1268.65429688 59.11328125 c 128,-1,76
 1267.86132812 54.8056640625 1267.86132812 54.8056640625 1266.70410156 50.5712890625 c 0,77,78
 1264.37109375 42.044921875 1264.37109375 42.044921875 1261.36621094 34.412109375 c 0,79,80
 1259.89550781 30.67578125 1259.89550781 30.67578125 1257.93652344 27.232421875 c 128,-1,81
 1255.97753906 23.7890625 1255.97753906 23.7890625 1253.52539062 20.6298828125 c 0,82,83
 1251.88476562 18.515625 1251.88476562 18.515625 1250.11328125 16.5966796875 c 128,-1,84
 1248.34277344 14.677734375 1248.34277344 14.677734375 1246.44433594 12.9560546875 c 128,-1,85
 1244.54589844 11.2333984375 1244.54589844 11.2333984375 1242.515625 9.7021484375 c 0,86,87
 1236.49316406 5.1611328125 1236.49316406 5.1611328125 1227.95019531 2.58984375 c 128,-1,88
 1219.34472656 0 1219.34472656 0 1208.9765625 0 c 2,0,-1
EndSplineSet
EndChar

StartChar: uniFEAE
Encoding: 65198 65198 185
Width: 883
VWidth: 2591
GlyphClass: 2
Flags: W
AnchorPoint: "Anchor-10" 450.527 993.269 basechar 0
AnchorPoint: "Anchor-7" 297.433 -629.366 basechar 0
LayerCount: 2
Fore
SplineSet
871.923828125 0 m 2,0,1
 762.02303823 0 762.02303823 0 694.791992188 33.5400390625 c 1,2,3
 671.907038109 -208.584403914 671.907038109 -208.584403914 519.034179688 -330.561523438 c 128,-1,4
 366.080078125 -452.602539062 366.080078125 -452.602539062 95.326171875 -452.412109375 c 2,5,-1
 -16.103515625 -452.333007812 l 1,6,-1
 -16.1025390625 -414.359375 l 1,7,-1
 -16.099609375 -231.1953125 l 1,8,-1
 -16.0986328125 -193.158203125 l 1,9,-1
 90.626953125 -193.265625 l 2,10,11
 274.129882812 -193.600585938 274.129882812 -193.600585938 358.811523438 -117.615234375 c 128,-1,12
 443.584960938 -41.5478515625 443.584960938 -41.5478515625 443.584960938 119.499023438 c 2,13,-1
 443.584960938 684.373046875 l 1,14,-1
 697.209960938 685.905273438 l 1,15,-1
 697.209960938 423.141601562 l 2,16,17
 697.111233547 329.026796851 697.111233547 329.026796851 749.085378287 290 c 0,18,19
 789.038038204 260 789.038038204 260 871.923828125 260 c 6,20,-1
 888.022460938 260 l 2,21,22
 951.535116911 260 951.535116911 260 951.040039062 143.244140625 c 0,23,24
 951.022460938 138.990234375 951.022460938 138.990234375 951.022460938 137 c 2,25,-1
 951.022460938 125.956054688 l 1,26,27
 954.524009635 23.7377677042 954.524009635 23.7377677042 905.314453125 3.296875 c 0,28,29
 897.379882812 0 897.379882812 0 888.022460938 0 c 2,30,-1
 871.923828125 0 l 2,0,1
EndSplineSet
PairPos2: "'kern' Horizontal Kerning lookup 15-2" uniFEF3 dx=60 dy=0 dh=60 dv=0 dx=0 dy=0 dh=0 dv=0
PairPos2: "'kern' Horizontal Kerning lookup 15-1" uniFEFB dx=-100 dy=0 dh=-100 dv=0 dx=0 dy=0 dh=0 dv=0
PairPos2: "'kern' Horizontal Kerning lookup 15-1" uniFEDF dx=-100 dy=0 dh=-100 dv=0 dx=0 dy=0 dh=0 dv=0
PairPos2: "'kern' Horizontal Kerning lookup 15-1" uni062F dx=-100 dy=0 dh=-100 dv=0 dx=0 dy=0 dh=0 dv=0
PairPos2: "'kern' Horizontal Kerning lookup 15-2" uniFB90 dx=-142 dy=0 dh=-142 dv=0 dx=0 dy=0 dh=0 dv=0
PairPos2: "'kern' Horizontal Kerning lookup 15-2" uniFB8E dx=-142 dy=0 dh=-142 dv=0 dx=0 dy=0 dh=0 dv=0
PairPos2: "'kern' Horizontal Kerning lookup 15-2" uni06A9 dx=-142 dy=0 dh=-142 dv=0 dx=0 dy=0 dh=0 dv=0
PairPos2: "'kern' Horizontal Kerning lookup 15-2" uniFEEB dx=-100 dy=0 dh=-100 dv=0 dx=0 dy=0 dh=0 dv=0
PairPos2: "'kern' Horizontal Kerning lookup 15-2" uni0647 dx=-100 dy=0 dh=-100 dv=0 dx=0 dy=0 dh=0 dv=0
PairPos2: "'kern' Horizontal Kerning lookup 15-2" uniFEE7 dx=-100 dy=0 dh=-100 dv=0 dx=0 dy=0 dh=0 dv=0
PairPos2: "'kern' Horizontal Kerning lookup 15-2" uniFEE3 dx=-100 dy=0 dh=-100 dv=0 dx=0 dy=0 dh=0 dv=0
PairPos2: "'kern' Horizontal Kerning lookup 15-2" uni0645 dx=-100 dy=0 dh=-100 dv=0 dx=0 dy=0 dh=0 dv=0
PairPos2: "'kern' Horizontal Kerning lookup 15-2" uniFEDB dx=-142 dy=0 dh=-142 dv=0 dx=0 dy=0 dh=0 dv=0
PairPos2: "'kern' Horizontal Kerning lookup 15-2" uni0643 dx=-100 dy=0 dh=-100 dv=0 dx=0 dy=0 dh=0 dv=0
PairPos2: "'kern' Horizontal Kerning lookup 15-2" uniFED7 dx=-100 dy=0 dh=-100 dv=0 dx=0 dy=0 dh=0 dv=0
PairPos2: "'kern' Horizontal Kerning lookup 15-2" uniFED3 dx=-100 dy=0 dh=-100 dv=0 dx=0 dy=0 dh=0 dv=0
PairPos2: "'kern' Horizontal Kerning lookup 15-2" uni0641 dx=-100 dy=0 dh=-100 dv=0 dx=0 dy=0 dh=0 dv=0
PairPos2: "'kern' Horizontal Kerning lookup 15-2" uniFECF dx=-100 dy=0 dh=-100 dv=0 dx=0 dy=0 dh=0 dv=0
PairPos2: "'kern' Horizontal Kerning lookup 15-2" uniFECB dx=-100 dy=0 dh=-100 dv=0 dx=0 dy=0 dh=0 dv=0
PairPos2: "'kern' Horizontal Kerning lookup 15-2" uniFEC7 dx=-100 dy=0 dh=-100 dv=0 dx=0 dy=0 dh=0 dv=0
PairPos2: "'kern' Horizontal Kerning lookup 15-2" uni0638 dx=-100 dy=0 dh=-100 dv=0 dx=0 dy=0 dh=0 dv=0
PairPos2: "'kern' Horizontal Kerning lookup 15-2" uniFEC3 dx=-100 dy=0 dh=-100 dv=0 dx=0 dy=0 dh=0 dv=0
PairPos2: "'kern' Horizontal Kerning lookup 15-2" uni0637 dx=-100 dy=0 dh=-100 dv=0 dx=0 dy=0 dh=0 dv=0
PairPos2: "'kern' Horizontal Kerning lookup 15-2" uniFEBF dx=-100 dy=0 dh=-100 dv=0 dx=0 dy=0 dh=0 dv=0
PairPos2: "'kern' Horizontal Kerning lookup 15-2" uni0636 dx=-100 dy=0 dh=-100 dv=0 dx=0 dy=0 dh=0 dv=0
PairPos2: "'kern' Horizontal Kerning lookup 15-2" uniFEBB dx=-100 dy=0 dh=-100 dv=0 dx=0 dy=0 dh=0 dv=0
PairPos2: "'kern' Horizontal Kerning lookup 15-2" uni0635 dx=-100 dy=0 dh=-100 dv=0 dx=0 dy=0 dh=0 dv=0
PairPos2: "'kern' Horizontal Kerning lookup 15-2" uniFEB7 dx=-100 dy=0 dh=-100 dv=0 dx=0 dy=0 dh=0 dv=0
PairPos2: "'kern' Horizontal Kerning lookup 15-2" uni0634 dx=-100 dy=0 dh=-100 dv=0 dx=0 dy=0 dh=0 dv=0
PairPos2: "'kern' Horizontal Kerning lookup 15-2" uniFEB3 dx=-100 dy=0 dh=-100 dv=0 dx=0 dy=0 dh=0 dv=0
PairPos2: "'kern' Horizontal Kerning lookup 15-2" uni0633 dx=-100 dy=0 dh=-100 dv=0 dx=0 dy=0 dh=0 dv=0
PairPos2: "'kern' Horizontal Kerning lookup 15-2" uniFEA7 dx=-100 dy=0 dh=-100 dv=0 dx=0 dy=0 dh=0 dv=0
PairPos2: "'kern' Horizontal Kerning lookup 15-2" uniFEA3 dx=-100 dy=0 dh=-100 dv=0 dx=0 dy=0 dh=0 dv=0
PairPos2: "'kern' Horizontal Kerning lookup 15-2" uniFE9F dx=-100 dy=0 dh=-100 dv=0 dx=0 dy=0 dh=0 dv=0
PairPos2: "'kern' Horizontal Kerning lookup 15-2" uniFE9B dx=-100 dy=0 dh=-100 dv=0 dx=0 dy=0 dh=0 dv=0
PairPos2: "'kern' Horizontal Kerning lookup 15-2" uni062B dx=-100 dy=0 dh=-100 dv=0 dx=0 dy=0 dh=0 dv=0
PairPos2: "'kern' Horizontal Kerning lookup 15-2" uniFE97 dx=-100 dy=0 dh=-100 dv=0 dx=0 dy=0 dh=0 dv=0
PairPos2: "'kern' Horizontal Kerning lookup 15-2" uni062A dx=-100 dy=0 dh=-100 dv=0 dx=0 dy=0 dh=0 dv=0
PairPos2: "'kern' Horizontal Kerning lookup 15-2" uni0629 dx=-100 dy=0 dh=-100 dv=0 dx=0 dy=0 dh=0 dv=0
PairPos2: "'kern' Horizontal Kerning lookup 15-2" uniFE91 dx=-47 dy=0 dh=-47 dv=0 dx=0 dy=0 dh=0 dv=0
PairPos2: "'kern' Horizontal Kerning lookup 15-2" uni0628 dx=-100 dy=0 dh=-100 dv=0 dx=0 dy=0 dh=0 dv=0
PairPos2: "'kern' Horizontal Kerning lookup 15-2" uni0627 dx=-160 dy=0 dh=-160 dv=0 dx=0 dy=0 dh=0 dv=0
PairPos2: "'kern' Horizontal Kerning lookup 15-2" uni0622 dx=-160 dy=0 dh=-160 dv=0 dx=0 dy=0 dh=0 dv=0
PairPos2: "'kern' Horizontal Kerning lookup 15-2" uni0621 dx=-100 dy=0 dh=-100 dv=0 dx=0 dy=0 dh=0 dv=0
PairPos2: "'kern' Horizontal Kerning lookup 15-2" uniFB94 dx=-142 dy=0 dh=-142 dv=0 dx=0 dy=0 dh=0 dv=0
PairPos2: "'kern' Horizontal Kerning lookup 15-2" uniFB92 dx=-142 dy=0 dh=-142 dv=0 dx=0 dy=0 dh=0 dv=0
PairPos2: "'kern' Horizontal Kerning lookup 15-2" afii57509 dx=-142 dy=0 dh=-142 dv=0 dx=0 dy=0 dh=0 dv=0
PairPos2: "'kern' Horizontal Kerning lookup 15-2" uniFB7C dx=-100 dy=0 dh=-100 dv=0 dx=0 dy=0 dh=0 dv=0
PairPos2: "'kern' Horizontal Kerning lookup 15-2" afii57506 dx=-100 dy=0 dh=-100 dv=0 dx=0 dy=0 dh=0 dv=0
PairPos2: "'kern' Horizontal Kerning lookup 15-2" afii57440 dx=-100 dy=0 dh=-100 dv=0 dx=0 dy=0 dh=0 dv=0
EndChar

StartChar: uniFEB2
Encoding: 65202 65202 189
Width: 2632
VWidth: 2591
GlyphClass: 2
Flags: W
AnchorPoint: "Anchor-10" 1778.4 1103.57 basechar 0
AnchorPoint: "Anchor-7" 691 -627.5 basechar 0
LayerCount: 2
Fore
SplineSet
1919.80859375 413.815429688 m 2,0,1
 1920.24609375 329.521484375 1920.24609375 329.521484375 1950.53320312 294.518554688 c 0,2,3
 1965.77539062 276.903320312 1965.77539062 276.903320312 1990.32910156 268.040039062 c 128,-1,4
 2014.8828125 259.176757812 2014.8828125 259.176757812 2048.60449219 258.965820312 c 0,5,6
 2114.22949219 258.575195312 2114.22949219 258.575195312 2143.55371094 293.184570312 c 128,-1,7
 2172.75097656 327.640625 2172.75097656 327.640625 2172.66210938 412.634765625 c 2,8,-1
 2172.38867188 675.581054688 l 1,9,-1
 2172.34863281 713.62109375 l 1,10,-1
 2210.38867188 713.62109375 l 1,11,-1
 2387.50585938 713.62109375 l 1,12,-1
 2425.35644531 713.62109375 l 1,13,-1
 2425.50585938 675.770507812 l 1,14,-1
 2426.53027344 415.6015625 l 2,15,16
 2426.58007812 395.176757812 2426.58007812 395.176757812 2429.05078125 377.787109375 c 128,-1,17
 2431.52148438 360.396484375 2431.52148438 360.396484375 2436.43359375 346.021484375 c 128,-1,18
 2441.36132812 331.599609375 2441.36132812 331.599609375 2449.328125 319.475585938 c 128,-1,19
 2457.29492188 307.350585938 2457.29492188 307.350585938 2468.27539062 297.571289062 c 0,20,21
 2490.21679688 278.028320312 2490.21679688 278.028320312 2525.15136719 268.952148438 c 0,22,23
 2559.86621094 259.93359375 2559.86621094 259.93359375 2609.88574219 259.93359375 c 2,24,-1
 2637.26953125 259.93359375 l 2,25,26
 2700.31738281 260.105185881 2700.31738281 260.105185881 2700.31738281 136.93359375 c 2,27,-1
 2700.31738281 125.868164062 l 2,28,29
 2700.3125 124.603515625 2700.3125 124.603515625 2700.31445312 122.614257812 c 0,30,31
 2700.37467927 -0.0664062495675 2700.37467927 -0.0664062495675 2637.31738281 -0.06640625 c 6,32,-1
 2617.30273438 -0.06640625 l 2,33,34
 2517.93945312 -0.0361328125 2517.93945312 -0.0361328125 2442.25585938 26.640625 c 128,-1,35
 2366.57226562 53.318359375 2366.57226562 53.318359375 2314.43164062 106.592773438 c 2,36,-1
 2312.80761719 108.252929688 l 1,37,-1
 2311.40625 106.400390625 l 2,38,39
 2270.34375 52.1005859375 2270.34375 52.1005859375 2205.72167969 25.560546875 c 128,-1,40
 2140.95800781 -1.037109375 2140.95800781 -1.037109375 2056.40917969 -1.06640625 c 0,41,42
 1888.16796875 -1.005859375 1888.16796875 -1.005859375 1801.19140625 104.219726562 c 2,43,-1
 1799.63183594 106.106445312 l 1,44,-1
 1798.09375 104.202148438 l 2,45,46
 1711.65625 -2.8037109375 1711.65625 -2.8037109375 1533.01367188 -1.064453125 c 0,47,48
 1440.34667969 -0.27734375 1440.34667969 -0.27734375 1369.02246094 40.8935546875 c 2,49,-1
 1366.22460938 42.5078125 l 1,50,-1
 1366.02636719 39.2841796875 l 2,51,52
 1351.08398438 -203.40234375 1351.08398438 -203.40234375 1193.3046875 -327.106445312 c 128,-1,53
 1035.36230469 -450.940429688 1035.36230469 -450.940429688 748.819335938 -450.940429688 c 2,54,-1
 694.10546875 -450.940429688 l 2,55,56
 266.29296875 -450.983398438 266.29296875 -450.983398438 126.3046875 -167.640625 c 0,57,58
 94.8583984375 -103.407226562 94.8583984375 -103.407226562 79.0576171875 -26.18359375 c 128,-1,59
 63.255859375 51.0400390625 63.255859375 51.0400390625 63.12109375 141.263671875 c 2,60,-1
 63 483.987304688 l 1,61,-1
 62.9873046875 521.9921875 l 1,62,-1
 100.9921875 522 l 1,63,-1
 281.870117188 522.033203125 l 1,64,-1
 319.877929688 522.041015625 l 1,65,-1
 319.877929688 484.033203125 l 1,66,-1
 319.877929688 142.4609375 l 2,67,68
 319.93359375 -27.828125 319.93359375 -27.828125 410.5546875 -108.77734375 c 128,-1,69
 501.076171875 -189.639648438 501.076171875 -189.639648438 696.272460938 -189.639648438 c 2,70,-1
 747.401367188 -189.639648438 l 2,71,72
 944.633789062 -189.811523438 944.633789062 -189.811523438 1034.31152344 -121.836914062 c 0,73,74
 1124.24609375 -53.6689453125 1124.24609375 -53.6689453125 1124.16210938 86.53515625 c 2,75,-1
 1123.81445312 672.795898438 l 1,76,-1
 1123.79199219 710.798828125 l 1,77,-1
 1161.79492188 710.818359375 l 1,78,-1
 1342.24804688 710.911132812 l 1,79,-1
 1380.26757812 710.930664062 l 1,80,-1
 1380.26757812 672.911132812 l 1,81,-1
 1380.26757812 437.265625 l 2,82,83
 1380.20800781 389.459960938 1380.20800781 389.459960938 1389.2265625 355.2734375 c 128,-1,84
 1398.24414062 321.0859375 1398.24414062 321.0859375 1416.50585938 300.489257812 c 0,85,86
 1452.95019531 259.383789062 1452.95019531 259.383789062 1534.19433594 258.932617188 c 0,87,88
 1556.81835938 258.805664062 1556.81835938 258.805664062 1575.01660156 262.301757812 c 128,-1,89
 1593.21582031 265.797851562 1593.21582031 265.797851562 1607.015625 272.969726562 c 0,90,91
 1634.72753906 287.369140625 1634.72753906 287.369140625 1648.65722656 321.291015625 c 0,92,93
 1662.45605469 354.8984375 1662.45605469 354.8984375 1662.61328125 411.779296875 c 2,94,-1
 1663.33984375 674.725585938 l 1,95,-1
 1663.44433594 712.62109375 l 1,96,-1
 1701.33984375 712.62109375 l 1,97,-1
 1880.45703125 712.62109375 l 1,98,-1
 1918.26074219 712.62109375 l 1,99,-1
 1918.45605469 674.817382812 l 1,100,-1
 1919.80859375 413.815429688 l 2,0,1
EndSplineSet
EndChar

StartChar: uniFEB3
Encoding: 65203 65203 190
Width: 1643
VWidth: 2591
GlyphClass: 2
Flags: W
AnchorPoint: "Anchor-10" 804.679 1151.53 basechar 0
AnchorPoint: "Anchor-7" 934.307 -289.179 basechar 0
LayerCount: 2
Fore
SplineSet
1078.34472656 414.881835938 m 2,0,1
 1078.63183594 359.46875 1078.63183594 359.46875 1093.27148438 324.740234375 c 0,2,3
 1100.85253906 307.668945312 1100.85253906 307.668945312 1112.07324219 295.327148438 c 128,-1,4
 1123.29394531 282.985351562 1123.29394531 282.985351562 1138.13867188 275.42578125 c 0,5,6
 1168.52148438 260 1168.52148438 260 1217.24609375 259.999023438 c 0,7,8
 1245.4921875 260 1245.4921875 260 1266.13964844 268.26953125 c 128,-1,9
 1286.78710938 276.5390625 1286.78710938 276.5390625 1299.65039062 293.15234375 c 0,10,11
 1325.484375 326.95703125 1325.484375 326.95703125 1325.484375 410.9921875 c 2,12,-1
 1325.484375 708.362304688 l 1,13,-1
 1325.484375 746.362304688 l 1,14,-1
 1363.484375 746.362304688 l 1,15,-1
 1542.2421875 746.362304688 l 1,16,-1
 1580.2421875 746.362304688 l 1,17,-1
 1580.2421875 708.362304688 l 1,18,-1
 1580.2421875 403.005859375 l 2,19,20
 1579.39648438 208.69921875 1579.39648438 208.69921875 1489.30761719 104.3671875 c 128,-1,21
 1399.08496094 0 1399.08496094 0 1224.95898438 0 c 0,22,23
 1168.22851562 0 1168.22851562 0 1119.56152344 11.2861328125 c 0,24,25
 1070.74511719 22.87890625 1070.74511719 22.87890625 1030.5859375 45.9990234375 c 0,26,27
 1020.51074219 51.890625 1020.51074219 51.890625 1011.06542969 58.494140625 c 128,-1,28
 1001.62109375 65.09765625 1001.62109375 65.09765625 992.803710938 72.4150390625 c 128,-1,29
 983.986328125 79.7333984375 983.986328125 79.7333984375 975.797851562 87.7646484375 c 128,-1,30
 967.608398438 95.7958984375 967.608398438 95.7958984375 960.043945312 104.54296875 c 2,31,-1
 958.501953125 106.326171875 l 1,32,-1
 956.993164062 104.513671875 l 2,33,34
 870.0625 0 870.0625 0 681.8984375 0 c 0,35,36
 504.94921875 0 504.94921875 0 415.670898438 109.4140625 c 2,37,-1
 414.23828125 111.168945312 l 1,38,-1
 412.673828125 109.530273438 l 2,39,40
 308.14453125 0 308.14453125 0 88.82421875 0 c 2,41,-1
 -5.0234375 0 l 2,42,43
 -29.46875 0 -29.46875 0 -48.1259765625 10.6611328125 c 0,44,45
 -66.5380859375 21.4609375 -66.5380859375 21.4609375 -77.14453125 39.5546875 c 0,46,47
 -88.1162109375 57.7490234375 -88.1162109375 57.7490234375 -92.8662109375 79.6259765625 c 0,48,49
 -98.0234375 101.333007812 -98.0234375 101.333007812 -98.0234375 126 c 2,50,-1
 -98.0234375 137.009765625 l 2,51,52
 -98 188.413085938 -98 188.413085938 -74.8232421875 224.495117188 c 0,53,54
 -51.91015625 260 -51.91015625 260 -5.0234375 260 c 2,55,-1
 89.7529296875 260 l 2,56,57
 193.728515625 260 193.728515625 260 237.499023438 296.794921875 c 0,58,59
 259.649414062 315.346679688 259.649414062 315.346679688 270.725585938 344.704101562 c 128,-1,60
 281.802734375 374.0625 281.802734375 374.0625 281.87890625 414.051757812 c 2,61,-1
 282.379882812 675.759765625 l 1,62,-1
 282.452148438 713.6875 l 1,63,-1
 320.379882812 713.6875 l 1,64,-1
 500.487304688 713.6875 l 1,65,-1
 538.3984375 713.6875 l 1,66,-1
 538.487304688 675.77734375 l 1,67,-1
 539.108398438 412.336914062 l 2,68,69
 538.999023438 395.903320312 538.999023438 395.903320312 540.497070312 381.489257812 c 0,70,71
 542.020507812 366.69921875 542.020507812 366.69921875 544.46484375 354.59375 c 0,72,73
 547.07421875 341.430664062 547.07421875 341.430664062 551.119140625 331.275390625 c 0,74,75
 556.395507812 316.825195312 556.395507812 316.825195312 564.420898438 305.419921875 c 128,-1,76
 572.446289062 294.014648438 572.446289062 294.014648438 583.19140625 285.712890625 c 128,-1,77
 593.936523438 277.412109375 593.936523438 277.412109375 607.323242188 272.294921875 c 0,78,79
 612.338867188 270.198242188 612.338867188 270.198242188 617.819335938 268.483398438 c 128,-1,80
 623.30078125 266.767578125 623.30078125 266.767578125 629.181640625 265.456054688 c 0,81,82
 640.673828125 263.024414062 640.673828125 263.024414062 654.223632812 261.413085938 c 128,-1,83
 667.896484375 260 667.896484375 260 682.744140625 259.999023438 c 0,84,85
 756.875976562 260 756.875976562 260 788.67578125 294.455078125 c 0,86,87
 804.885742188 311.885742188 804.885742188 311.885742188 812.959960938 341.478515625 c 128,-1,88
 821.034179688 371.0703125 821.034179688 371.0703125 821.149414062 412.845703125 c 2,89,-1
 821.875976562 675.791992188 l 1,90,-1
 821.98046875 713.6875 l 1,91,-1
 859.875976562 713.6875 l 1,92,-1
 1038.99316406 713.6875 l 1,93,-1
 1076.796875 713.6875 l 1,94,-1
 1076.9921875 675.883789062 l 1,95,-1
 1078.34472656 414.881835938 l 2,0,1
EndSplineSet
EndChar

StartChar: uniFEB4
Encoding: 65204 65204 191
Width: 1791
VWidth: 2586
GlyphClass: 2
Flags: W
AnchorPoint: "Anchor-10" 880.65 1145.67 basechar 0
LayerCount: 2
Fore
SplineSet
1586.01757812 415.6953125 m 2,0,1
 1586.33984375 333.889648438 1586.33984375 333.889648438 1628.62890625 296.895507812 c 0,2,3
 1649.81054688 278.365234375 1649.81054688 278.365234375 1684.98828125 269.182617188 c 128,-1,4
 1720.16601562 260 1720.16601562 260 1769.37304688 260 c 2,5,-1
 1796.8046875 260 l 2,6,7
 1801.86035156 260 1801.86035156 260 1806.81152344 258.963867188 c 0,8,9
 1857.19952953 248.417077985 1857.19952953 248.417077985 1859.4453125 168.943359375 c 0,10,11
 1859.625 162.619140625 1859.625 162.619140625 1859.71484375 154.625 c 128,-1,12
 1859.8046875 146.629882812 1859.8046875 146.629882812 1859.8046875 137 c 2,13,-1
 1859.8046875 126.0390625 l 2,14,15
 1860.08561842 -6.91642298989e-11 1860.08561842 -6.91642298989e-11 1796.8046875 0 c 6,16,-1
 1776.80078125 0 l 2,17,18
 1727.95898438 0 1727.95898438 0 1684.38671875 6.6474609375 c 128,-1,19
 1640.81542969 13.294921875 1640.81542969 13.294921875 1602.50976562 26.580078125 c 128,-1,20
 1564.23535156 39.8544921875 1564.23535156 39.8544921875 1532.03613281 59.8935546875 c 128,-1,21
 1499.83691406 79.93359375 1499.83691406 79.93359375 1473.67578125 106.751953125 c 2,22,-1
 1472.06542969 108.403320312 l 1,23,-1
 1470.65917969 106.575195312 l 2,24,25
 1429.04296875 52.486328125 1429.04296875 52.486328125 1362.78515625 26.2744140625 c 128,-1,26
 1296.36816406 0 1296.36816406 0 1208.8984375 0 c 0,27,28
 1128.3515625 0 1128.3515625 0 1064.53125 26.349609375 c 128,-1,29
 1000.8046875 52.66015625 1000.8046875 52.66015625 957.51953125 105.248046875 c 2,30,-1
 956.008789062 107.083007812 l 1,31,-1
 954.458984375 105.280273438 l 2,32,33
 863.905273438 0 863.905273438 0 681.8984375 0 c 0,34,35
 593.34375 0 593.34375 0 526.836914062 27.529296875 c 128,-1,36
 460.330078125 55.0595703125 460.330078125 55.0595703125 415.666992188 110.10546875 c 2,37,-1
 414.227539062 111.879882812 l 1,38,-1
 412.659179688 110.217773438 l 2,39,40
 308.677734375 0 308.677734375 0 88.82421875 0 c 2,41,-1
 -5.0234375 0 l 2,42,43
 -98.0234375 0 -98.0234375 0 -98.0234375 126 c 2,44,-1
 -98.0234375 137.009765625 l 2,45,46
 -98.0087890625 188.5703125 -98.0087890625 188.5703125 -74.8232421875 224.495117188 c 0,47,48
 -51.91015625 260 -51.91015625 260 -5.0234375 260 c 2,49,-1
 89.7529296875 260 l 2,50,51
 193.428710938 260 193.428710938 260 237.497070312 296.79296875 c 128,-1,52
 281.724609375 333.717773438 281.724609375 333.717773438 281.87890625 414.051757812 c 2,53,-1
 282.379882812 675.759765625 l 1,54,-1
 282.452148438 713.6875 l 1,55,-1
 320.379882812 713.6875 l 1,56,-1
 500.487304688 713.6875 l 1,57,-1
 538.3984375 713.6875 l 1,58,-1
 538.487304688 675.77734375 l 1,59,-1
 539.108398438 412.313476562 l 2,60,61
 539.30078125 371.459960938 539.30078125 371.459960938 547.703125 342.239257812 c 128,-1,62
 556.10546875 313.018554688 556.10546875 313.018554688 572.877929688 295.443359375 c 0,63,64
 606.299804688 260.422851562 606.299804688 260.422851562 682.731445312 259.999023438 c 0,65,66
 756.787109375 259.58203125 756.787109375 259.58203125 789.287109375 294.749023438 c 0,67,68
 800.170898438 306.526367188 800.170898438 306.526367188 807.40625 323.778320312 c 128,-1,69
 814.641601562 341.029296875 814.641601562 341.029296875 818.233398438 363.548828125 c 128,-1,70
 821.825195312 386.067382812 821.825195312 386.067382812 821.87890625 414.051757812 c 2,71,-1
 822.379882812 675.759765625 l 1,72,-1
 822.452148438 713.6875 l 1,73,-1
 860.379882812 713.6875 l 1,74,-1
 1040.48730469 713.6875 l 1,75,-1
 1078.3984375 713.6875 l 1,76,-1
 1078.48730469 675.77734375 l 1,77,-1
 1079.10839844 412.313476562 l 2,78,79
 1079.49902344 329.556640625 1079.49902344 329.556640625 1110.08789062 295.036132812 c 128,-1,80
 1140.77148438 260.41015625 1140.77148438 260.41015625 1209.75390625 259.999023438 c 0,81,82
 1241.99316406 259.797851562 1241.99316406 259.797851562 1265.45117188 268.256835938 c 128,-1,83
 1288.90820312 276.716796875 1288.90820312 276.716796875 1303.42285156 293.934570312 c 0,84,85
 1332.23730469 328.116210938 1332.23730469 328.116210938 1332.14941406 412.701171875 c 2,86,-1
 1331.87597656 675.647460938 l 1,87,-1
 1331.8359375 713.6875 l 1,88,-1
 1369.87597656 713.6875 l 1,89,-1
 1546.99316406 713.6875 l 1,90,-1
 1584.84375 713.6875 l 1,91,-1
 1584.99316406 675.836914062 l 1,92,-1
 1586.01757812 415.6953125 l 2,0,1
EndSplineSet
EndChar

StartChar: uniFEBA
Encoding: 65210 65210 197
Width: 2583
VWidth: 2591
GlyphClass: 2
Flags: W
AnchorPoint: "Anchor-7" 691 -627.5 basechar 0
AnchorPoint: "Anchor-10" 2006.4 1307.57 basechar 0
LayerCount: 2
Fore
SplineSet
2187.91113281 450.221679688 m 0,0,1
 2155.68261719 592.033203125 2155.68261719 592.033203125 2020.49023438 592.046875 c 0,2,3
 1845.68261719 592.033203125 1845.68261719 592.033203125 1683.09765625 260.560546875 c 1,4,-1
 1981.5625 260.560546875 l 2,5,6
 2170.68261719 261.033203125 2170.68261719 261.033203125 2189.78515625 348.590820312 c 0,7,8
 2194.68261719 370.033203125 2194.68261719 370.033203125 2194.68652344 393.033203125 c 0,9,10
 2194.68261719 421.033203125 2194.68261719 421.033203125 2187.91113281 450.221679688 c 0,0,1
2276.81445312 78.466796875 m 1,11,12
 2156 0 2156 0 1961.43945312 0 c 2,13,-1
 1616 0 l 2,14,15
 1452 0 1452 0 1366.1484375 41.2255859375 c 1,16,17
 1351 -204 1351 -204 1192.98828125 -327.3515625 c 0,18,19
 1035.07611428 -450.940429688 1035.07611428 -450.940429688 748.819335938 -450.940429688 c 2,20,-1
 694.10546875 -450.940429688 l 2,21,22
 166 -451 166 -451 79.0576171875 -26.18359375 c 0,23,24
 63.1530712049 50.2642379277 63.1530712049 50.2642379277 63.12109375 141.263671875 c 2,25,-1
 62.9873046875 521.9921875 l 1,26,-1
 281.870117188 522.033203125 l 1,27,-1
 319.877929688 522.041015625 l 1,28,-1
 319.877929688 142.4609375 l 2,29,30
 320 -28 320 -28 410.5546875 -108.77734375 c 0,31,32
 500.5987313 -189.639648438 500.5987313 -189.639648438 696.272460938 -189.639648438 c 2,33,-1
 747.401367188 -189.639648438 l 2,34,35
 945 -190 945 -190 1034.43994141 -121.740234375 c 0,36,37
 1124.24532069 -53.8144476315 1124.24532069 -53.8144476315 1124.16210938 86.53515625 c 2,38,-1
 1123.79199219 710.798828125 l 1,39,-1
 1380.26757812 710.930664062 l 1,40,-1
 1380.26757812 457.268554688 l 2,41,42
 1380 343 1380 343 1418.92773438 301.587890625 c 1,43,44
 1657 855 1657 855 2017.68066406 855.200195312 c 0,45,46
 2307 855 2307 855 2411.96679688 609.586914062 c 0,47,48
 2453 513 2453 513 2453.29003906 410 c 4,49,50
 2453 341 2453 341 2438.35449219 287.392578125 c 1,51,52
 2480.68833051 260.200195312 2480.68833051 260.200195312 2566.29296875 260.200195312 c 2,53,-1
 2589.296875 260.200195312 l 2,54,55
 2639 260 2639 260 2650.32617188 188.99609375 c 0,56,57
 2652.15136719 175.915172386 2652.15136719 175.915172386 2652.15136719 134.200195312 c 2,58,-1
 2652.15136719 123.168945312 l 2,59,60
 2652 0 2652 0 2589.15136719 0 c 2,61,-1
 2560.16699219 0 l 2,62,63
 2376 0 2376 0 2276.81445312 78.466796875 c 1,11,12
EndSplineSet
EndChar

